<svg viewBox="0 0 64 64" xmlns="http://www.w3.org/2000/svg">
  <defs>
    <linearGradient id="poilBg" x1="0%" y1="0%" x2="100%" y2="100%">
      <stop offset="0%" style="stop-color:#1a3a5c"/>
      <stop offset="100%" style="stop-color:#0d1f3c"/>
    </linearGradient>
    <linearGradient id="poilAccent" x1="0%" y1="0%" x2="100%" y2="100%">
      <stop offset="0%" style="stop-color:#3D5A6E"/>
      <stop offset="100%" style="stop-color:#1A2D3A"/>
    </linearGradient>
    <linearGradient id="poilSheen" x1="0%" y1="0%" x2="100%" y2="100%">
      <stop offset="0%" style="stop-color:#5A7A8E;stop-opacity:0.6"/>
      <stop offset="50%" style="stop-color:#3D5A6E;stop-opacity:0"/>
    </linearGradient>
  </defs>
  <circle cx="32" cy="32" r="30" fill="url(#poilBg)" stroke="#2D4A5E" stroke-width="1.5" stroke-opacity="0.5"/>
  <polygon points="32,16 32.8,18.5 35.5,18.5 33.3,20.2 34.2,22.8 32,21 29.8,22.8 30.7,20.2 28.5,18.5 31.2,18.5" fill="#2D4A5E" fill-opacity="0.5"/>
  <!-- Oil droplet -->
  <g transform="translate(32, 38)">
    <path d="M0,-14 C0,-14 8,0 8,6 C8,12 4,14 0,14 C-4,14 -8,12 -8,6 C-8,0 0,-14 0,-14 Z" fill="url(#poilAccent)"/>
    <path d="M-2,-8 C-2,-8 3,-2 3,2 C3,5 1,6 -1,6 C-3,6 -4,4 -4,2 C-4,-2 -2,-8 -2,-8 Z" fill="url(#poilSheen)"/>
  </g>
</svg>
