<svg width="64" height="64" viewBox="0 0 88 88" fill="none" xmlns="http://www.w3.org/2000/svg">
  <!-- Background circle -->
  <circle cx="44" cy="44" r="42" fill="#050a14"/>
  <!-- Mark -->
  <g transform="translate(44 44) scale(1.9) translate(-14 -14)">
    <path d="M1.47723 14.5265C5.20639 14.5265 7.07101 14.5264 8.54182 15.1356C10.5029 15.948 12.061 17.5061 12.8733 19.4672C13.4825 20.938 13.4825 22.8026 13.4825 26.5317V27.0399C13.4825 27.478 13.4825 27.697 13.4092 27.8067C13.3115 27.9529 13.1352 28.0259 12.9627 27.9916C12.8333 27.9659 12.6784 27.811 12.3687 27.5013L0.507713 15.6403C0.197997 15.3306 0.0431393 15.1757 0.0173975 15.0463C-0.0169249 14.8738 0.0560741 14.6975 0.202355 14.5998C0.312066 14.5265 0.531068 14.5265 0.969074 14.5265H1.47723Z" fill="white"/>
    <path d="M15.6403 27.4923C15.3306 27.802 15.1757 27.9569 15.0463 27.9826C14.8738 28.0169 14.6975 27.9439 14.5998 27.7976C14.5265 27.6879 14.5265 27.4689 14.5265 27.0309V26.5318C14.5265 22.8027 14.5264 20.938 15.1356 19.4672C15.9479 17.5061 17.506 15.948 19.4671 15.1356C20.9379 14.5264 22.8025 14.5265 26.5317 14.5265H27.0309C27.4689 14.5265 27.6879 14.5265 27.7976 14.5998C27.9439 14.6975 28.0169 14.8738 27.9826 15.0463C27.9569 15.1757 27.802 15.3306 27.4923 15.6403L15.6403 27.4923Z" fill="white"/>
    <path d="M27.5013 12.3687C27.811 12.6784 27.9659 12.8333 27.9916 12.9627C28.0259 13.1352 27.9529 13.3115 27.8067 13.4092C27.697 13.4825 27.478 13.4825 27.0399 13.4825H26.5317C22.8025 13.4825 20.9379 13.4825 19.4671 12.8733C17.506 12.061 15.9479 10.5029 15.1356 8.54182C14.5264 7.07101 14.5265 5.2064 14.5265 1.47723V0.969074C14.5265 0.531068 14.5265 0.312066 14.5998 0.202355C14.6975 0.0560741 14.8738 -0.0169249 15.0463 0.0173975C15.1757 0.0431393 15.3306 0.197998 15.6403 0.507714L27.5013 12.3687Z" fill="white"/>
    <path d="M13.4825 1.47723C13.4825 5.20639 13.4825 7.07101 12.8733 8.54182C12.061 10.5029 10.5029 12.061 8.54182 12.8733C7.07101 13.4825 5.2064 13.4825 1.47723 13.4825H0.960053C0.522048 13.4825 0.303045 13.4825 0.193335 13.4092C0.0470538 13.3115 -0.0259451 13.1352 0.00837721 12.9627C0.034119 12.8333 0.188977 12.6784 0.498694 12.3687L12.3687 0.498694C12.6784 0.188977 12.8333 0.034119 12.9627 0.00837721C13.1352 -0.0259451 13.3115 0.0470538 13.4092 0.193335C13.4825 0.303045 13.4825 0.522048 13.4825 0.960053V1.47723Z" fill="white"/>
  </g>
</svg>
