<svg width="667" height="168" viewBox="0 0 667 168" fill="none" xmlns="http://www.w3.org/2000/svg">
<path d="M266.057 151.173H251.688V41.8181H263.486L265.301 51.9519H266.057C271.049 44.9944 279.519 40.3056 290.863 40.3056C310.677 40.3056 325.045 54.6745 325.045 81.2947C325.045 108.066 310.677 122.435 290.863 122.435C279.216 122.435 271.351 117.444 266.814 111.545H266.057V151.173ZM288.443 109.276C301.299 109.276 310.677 99.8986 310.677 81.2947C310.677 62.842 301.299 53.4644 288.443 53.4644C275.435 53.4644 266.057 62.842 266.057 81.2947C266.057 99.8986 275.435 109.276 288.443 109.276Z" fill="white"/>
<path d="M370.383 122.435C348.3 122.435 333.175 107.764 333.175 81.2947C333.175 54.8257 348.3 40.3056 370.383 40.3056C392.466 40.3056 407.591 54.8257 407.591 81.2947C407.591 107.764 392.466 122.435 370.383 122.435ZM370.383 109.276C383.391 109.276 393.222 99.8986 393.222 81.2947C393.222 62.842 383.391 53.4644 370.383 53.4644C357.375 53.4644 347.544 62.842 347.544 81.2947C347.544 99.8986 357.375 109.276 370.383 109.276Z" fill="white"/>
<path d="M434.691 120.923H420.322V15.0466H434.691V120.923Z" fill="white"/>
<path d="M480.559 40.3056C500.222 40.3056 512.019 51.3469 512.019 69.0433V120.923H500.07L498.407 110.789H497.65C494.625 115.931 486.155 122.435 474.055 122.435C457.266 122.435 446.679 111.847 446.679 97.9324C446.679 84.1685 457.266 73.5809 476.627 73.5809H497.65V68.7408C497.65 59.0607 490.693 53.1619 480.408 53.1619C471.635 53.1619 466.039 57.2457 464.073 63.1445H449.099C452.729 49.2294 463.77 40.3056 480.559 40.3056ZM475.719 109.73C489.18 109.73 497.65 101.109 497.65 89.916V85.5297H476.929C466.19 85.5297 461.048 90.3698 461.048 97.4786C461.048 104.89 466.341 109.73 475.719 109.73Z" fill="white"/>
<path d="M541.4 120.923H527.031V41.8181H538.829L540.644 51.9519H541.4C545.938 44.5406 552.744 41.8181 561.819 41.8181H570.591V55.4307H562.273C550.021 55.4307 541.4 63.447 541.4 75.0934V120.923Z" fill="white"/>
<path d="M585.583 28.8105C580.441 28.8105 576.357 24.7267 576.357 19.7354C576.357 14.5928 580.441 10.3578 585.583 10.3578C590.726 10.3578 594.809 14.5928 594.809 19.7354C594.809 24.7267 590.726 28.8105 585.583 28.8105ZM592.843 120.923H578.474V41.8181H592.843V120.923Z" fill="white"/>
<path d="M634.818 122.435C617.575 122.435 605.929 113.209 602.904 99.1424H618.331C620.146 105.646 626.801 109.579 634.818 109.579C647.069 109.579 652.06 104.89 652.06 98.9911C652.06 81.5972 605.475 94.7561 605.475 62.9933C605.475 50.8932 616.214 40.3056 634.818 40.3056C650.397 40.3056 662.497 47.7169 665.371 61.632H650.094C648.279 56.792 643.742 53.1619 634.818 53.1619C624.835 53.1619 619.995 57.0945 619.995 62.9933C619.995 80.9922 666.732 68.2871 666.732 98.9911C666.732 112.301 654.934 122.435 634.818 122.435Z" fill="white"/>
<path d="M8.81065 87.1589C31.0524 87.1589 42.1735 87.1585 50.9459 90.8139C62.6423 95.6877 71.935 105.037 76.7798 116.803C80.4133 125.628 80.4137 136.815 80.4137 159.19V162.24C80.4137 164.868 80.4137 166.182 79.9765 166.84C79.3935 167.718 78.3424 168.156 77.3132 167.95C76.5414 167.795 75.6178 166.866 73.7705 165.008L3.02815 93.8418C1.18091 91.9835 0.257295 91.0544 0.103764 90.2779C-0.100945 89.2426 0.334442 88.1852 1.2069 87.5988C1.86125 87.1589 3.16744 87.1589 5.77983 87.1589H8.81065Z" fill="white"/>
<path d="M93.2833 164.954C91.436 166.812 90.5124 167.741 89.7405 167.896C88.7114 168.102 87.6603 167.664 87.0773 166.786C86.6401 166.128 86.6401 164.814 86.6401 162.186V159.191C86.6401 136.816 86.6398 125.628 90.2733 116.803C95.1181 105.037 104.411 95.6877 116.107 90.8139C124.88 87.1585 136.001 87.1589 158.242 87.1589H161.22C163.833 87.1589 165.139 87.1589 165.793 87.5988C166.666 88.1852 167.101 89.2426 166.896 90.2779C166.743 91.0544 165.819 91.9835 163.972 93.8418L93.2833 164.954Z" fill="white"/>
<path d="M164.026 74.2123C165.873 76.0706 166.797 76.9997 166.95 77.7762C167.155 78.8115 166.719 79.8689 165.847 80.4554C165.193 80.8952 163.886 80.8952 161.274 80.8952H158.242C136.001 80.8952 124.88 80.895 116.107 77.2396C104.411 72.3657 95.1181 63.0173 90.2733 51.2509C86.6397 42.426 86.6401 31.2384 86.6401 8.8634V5.81444C86.6401 3.18641 86.6401 1.87239 87.0773 1.21413C87.6603 0.336444 88.7114 -0.101549 89.7405 0.104385C90.5124 0.258835 91.436 1.18799 93.2833 3.04628L164.026 74.2123Z" fill="white"/>
<path d="M80.4137 8.8634C80.4137 31.2384 80.4135 42.426 76.7798 51.2509C71.935 63.0173 62.6422 72.3657 50.9459 77.2396C42.1735 80.895 31.0524 80.8952 8.81065 80.8952H5.72603C3.11364 80.8952 1.80745 80.8952 1.1531 80.4554C0.280642 79.8689 -0.154744 78.8115 0.0499641 77.7762C0.203495 76.9997 1.12711 76.0706 2.97435 74.2123L73.7705 2.99216C75.6178 1.13386 76.5414 0.204714 77.3132 0.0502633C78.3424 -0.155671 79.3935 0.282323 79.9765 1.16001C80.4137 1.81827 80.4137 3.13229 80.4137 5.76032V8.8634Z" fill="white"/>
</svg>
