<svg xmlns="http://www.w3.org/2000/svg" viewBox="0 0 1200 630" width="1200" height="630">
  <!-- Background -->
  <rect width="1200" height="630" fill="#050a14"/>

  <!-- Embedded System Diagram (centered vertically: 45px from top) -->
  <g transform="translate(0, 45)">
    <defs>
      <!-- Enhanced Gradients -->
      <linearGradient id="ethGradient" x1="0%" y1="0%" x2="100%" y2="100%">
        <stop offset="0%" style="stop-color:#7BA5C9"/>
        <stop offset="100%" style="stop-color:#5A84A8"/>
      </linearGradient>
      <linearGradient id="pethGradient" x1="0%" y1="0%" x2="100%" y2="100%">
        <stop offset="0%" style="stop-color:#9ECBEB"/>
        <stop offset="100%" style="stop-color:#7BA5C9"/>
      </linearGradient>
      <linearGradient id="pusdGradient" x1="0%" y1="0%" x2="100%" y2="100%">
        <stop offset="0%" style="stop-color:#F5F0E6"/>
        <stop offset="100%" style="stop-color:#E8DCC4"/>
      </linearGradient>
      <linearGradient id="polarGradient" x1="0%" y1="0%" x2="100%" y2="100%">
        <stop offset="0%" style="stop-color:#B8A8DF"/>
        <stop offset="100%" style="stop-color:#9B8FCF"/>
      </linearGradient>
      <linearGradient id="curveGradient" x1="0%" y1="100%" x2="100%" y2="0%">
        <stop offset="0%" style="stop-color:#122a4d"/>
        <stop offset="100%" style="stop-color:#1a3a5c"/>
      </linearGradient>

      <!-- Radial gradients for token circle backgrounds -->
      <radialGradient id="ethCircleBg" cx="50%" cy="30%" r="70%">
        <stop offset="0%" style="stop-color:#142d4f"/>
        <stop offset="100%" style="stop-color:#0d1f3c"/>
      </radialGradient>
      <radialGradient id="pethCircleBg" cx="50%" cy="30%" r="70%">
        <stop offset="0%" style="stop-color:#0f2a4a"/>
        <stop offset="100%" style="stop-color:#0d1f3c"/>
      </radialGradient>
      <radialGradient id="pusdCircleBg" cx="50%" cy="30%" r="70%">
        <stop offset="0%" style="stop-color:#1a2f48"/>
        <stop offset="100%" style="stop-color:#0d1f3c"/>
      </radialGradient>
      <radialGradient id="polarCircleBg" cx="50%" cy="30%" r="70%">
        <stop offset="0%" style="stop-color:#1a254a"/>
        <stop offset="100%" style="stop-color:#0d1f3c"/>
      </radialGradient>

      <!-- Arrow path gradients -->
      <linearGradient id="arrowGradient1" x1="0%" y1="0%" x2="100%" y2="0%">
        <stop offset="0%" style="stop-color:#627D92"/>
        <stop offset="100%" style="stop-color:#7BA5C9"/>
      </linearGradient>

      <!-- Enhanced bonding curve area gradients -->
      <linearGradient id="burnedAreaGradient" x1="0%" y1="0%" x2="100%" y2="100%">
        <stop offset="0%" style="stop-color:#9B8FCF"/>
        <stop offset="100%" style="stop-color:#7B6FAF"/>
      </linearGradient>
      <linearGradient id="availableAreaGradient" x1="0%" y1="100%" x2="100%" y2="0%">
        <stop offset="0%" style="stop-color:#5A84A8"/>
        <stop offset="100%" style="stop-color:#7BA5C9"/>
      </linearGradient>

      <!-- Enhanced Shadows -->
      <filter id="shadow" x="-30%" y="-30%" width="160%" height="160%">
        <feDropShadow dx="0" dy="6" stdDeviation="12" flood-color="#000000" flood-opacity="0.35"/>
      </filter>
      <filter id="shadowSmall" x="-20%" y="-20%" width="140%" height="140%">
        <feDropShadow dx="0" dy="3" stdDeviation="6" flood-color="#000000" flood-opacity="0.25"/>
      </filter>
      <filter id="softGlow" x="-50%" y="-50%" width="200%" height="200%">
        <feGaussianBlur stdDeviation="2" result="coloredBlur"/>
        <feMerge>
          <feMergeNode in="coloredBlur"/>
          <feMergeNode in="SourceGraphic"/>
        </feMerge>
      </filter>

      <!-- Arrow markers -->
      <marker id="arrowCream" markerWidth="12" markerHeight="12" refX="10" refY="6" orient="auto" markerUnits="userSpaceOnUse">
        <path d="M2,2 L10,6 L2,10" fill="none" stroke="#E8DCC4" stroke-width="2" stroke-linecap="round" stroke-linejoin="round"/>
      </marker>
      <marker id="arrowBlue" markerWidth="12" markerHeight="12" refX="10" refY="6" orient="auto" markerUnits="userSpaceOnUse">
        <path d="M2,2 L10,6 L2,10" fill="none" stroke="#7BA5C9" stroke-width="2" stroke-linecap="round" stroke-linejoin="round"/>
      </marker>
      <marker id="arrowSlate" markerWidth="12" markerHeight="12" refX="10" refY="6" orient="auto" markerUnits="userSpaceOnUse">
        <path d="M2,2 L10,6 L2,10" fill="none" stroke="#627D92" stroke-width="2" stroke-linecap="round" stroke-linejoin="round"/>
      </marker>
      <marker id="arrowPurple" markerWidth="12" markerHeight="12" refX="10" refY="6" orient="auto" markerUnits="userSpaceOnUse">
        <path d="M2,2 L10,6 L2,10" fill="none" stroke="#9B8FCF" stroke-width="2" stroke-linecap="round" stroke-linejoin="round"/>
      </marker>

      <!-- POLAR emblem star gradients -->
      <radialGradient id="polarEmblemGlow" cx="50%" cy="50%" r="50%">
        <stop offset="0%" style="stop-color:#9B8FCF;stop-opacity:0.32"/>
        <stop offset="100%" style="stop-color:#9B8FCF;stop-opacity:0"/>
      </radialGradient>
      <linearGradient id="polarStarLeft" x1="0%" y1="50%" x2="100%" y2="50%">
        <stop offset="0%" style="stop-color:#9B8FCF;stop-opacity:0"/>
        <stop offset="46%" style="stop-color:#B8A8DF"/>
      </linearGradient>
      <linearGradient id="polarStarRight" x1="100%" y1="50%" x2="0%" y2="50%">
        <stop offset="0%" style="stop-color:#9B8FCF;stop-opacity:0"/>
        <stop offset="46%" style="stop-color:#B8A8DF"/>
      </linearGradient>
      <linearGradient id="polarStarTop" x1="50%" y1="0%" x2="50%" y2="100%">
        <stop offset="0%" style="stop-color:#9B8FCF;stop-opacity:0"/>
        <stop offset="46%" style="stop-color:#B8A8DF"/>
      </linearGradient>
      <linearGradient id="polarStarBottom" x1="50%" y1="100%" x2="50%" y2="0%">
        <stop offset="0%" style="stop-color:#9B8FCF;stop-opacity:0"/>
        <stop offset="46%" style="stop-color:#B8A8DF"/>
      </linearGradient>
    </defs>

    <!-- Background gradient overlay -->
    <rect width="1200" height="540" fill="url(#curveGradient)" opacity="0.3"/>

    <!-- Subtle divider -->
    <line x1="60" y1="305" x2="1140" y2="305" stroke="rgba(232,220,196,0.06)" stroke-width="1"/>

    <!-- Step Labels -->
    <g font-family="Inter, system-ui, sans-serif" font-size="14" font-weight="600" fill="#E8DCC4" letter-spacing="0.15em">
      <text x="120" y="48" text-anchor="middle">STEP 1</text>
      <text x="380" y="48" text-anchor="middle">STEP 2</text>
      <text x="630" y="48" text-anchor="middle">STEP 3</text>
      <text x="870" y="48" text-anchor="middle">STEP 4</text>
      <text x="1100" y="48" text-anchor="middle">OUTCOME</text>
    </g>

    <!-- STEP 1: ETH -->
    <g transform="translate(70, 125)">
      <circle cx="50" cy="50" r="58" fill="none" stroke="#627D92" stroke-width="1" opacity="0.2"/>
      <circle cx="50" cy="50" r="50" fill="url(#ethCircleBg)" stroke="#627D92" stroke-width="2" filter="url(#shadow)"/>
      <g transform="translate(50, 50)">
        <polygon points="0,-26 17,0 0,10 -17,0" fill="#7BA5C9" opacity="0.95"/>
        <polygon points="0,10 17,0 0,26 -17,0" fill="#5A84A8" opacity="0.85"/>
        <polygon points="0,-26 8,-5 0,-8 -8,-5" fill="#9ECBEB" opacity="0.3"/>
      </g>
      <text x="50" y="125" font-family="'Cormorant Garamond', Georgia, serif" font-size="18" font-weight="500" fill="#E8DCC4" text-anchor="middle">ETH</text>
      <text x="50" y="148" font-family="Inter, system-ui, sans-serif" font-size="12" fill="rgba(232,220,196,0.55)" text-anchor="middle" letter-spacing="0.05em">Swap</text>
    </g>

    <!-- Arrow 1 -->
    <line x1="183" y1="175" x2="275" y2="175" stroke="#627D92" stroke-width="2" stroke-dasharray="8,5" marker-end="url(#arrowSlate)" opacity="0.85"/>

    <!-- STEP 2: BONDING CURVE -->
    <g transform="translate(280, 85)">
      <rect x="0" y="0" width="200" height="200" rx="24" fill="#0d1f3c" stroke="rgba(232,220,196,0.12)" stroke-width="1" filter="url(#shadow)"/>
      <rect x="4" y="4" width="192" height="192" rx="22" fill="none" stroke="rgba(232,220,196,0.03)" stroke-width="1"/>
      <g transform="translate(40, 30)">
        <rect x="0" y="0" width="120" height="100" fill="#122a4d" stroke="rgba(232,220,196,0.15)" stroke-width="1" rx="6"/>
        <line x1="0" y1="50" x2="120" y2="50" stroke="rgba(232,220,196,0.05)" stroke-width="1"/>
        <line x1="60" y1="0" x2="60" y2="100" stroke="rgba(232,220,196,0.05)" stroke-width="1"/>
        <path d="M0,100 L0,100 C0,55 12,35 30,22 L30,100 Z" fill="url(#burnedAreaGradient)" opacity="0.35"/>
        <path d="M30,22 C45,14 60,8 80,4 C95,2 110,0 120,0 L120,100 L30,100 Z" fill="url(#availableAreaGradient)" opacity="0.25"/>
        <path d="M0,100 C0,55 12,35 30,22 C45,14 60,8 80,4 C95,2 110,0 120,0" stroke="#E8DCC4" stroke-width="2.5" fill="none" filter="url(#softGlow)"/>
        <line x1="30" y1="22" x2="30" y2="100" stroke="#E8DCC4" stroke-width="1.5" stroke-dasharray="4,3" opacity="0.5"/>
        <circle cx="30" cy="22" r="3" fill="#E8DCC4" opacity="0.8"/>
      </g>
      <text x="100" y="162" font-family="'Cormorant Garamond', Georgia, serif" font-size="16" font-weight="500" fill="#E8DCC4" text-anchor="middle">Bonding Curve</text>
      <text x="100" y="182" font-family="Inter, system-ui, sans-serif" font-size="11" fill="rgba(232,220,196,0.55)" text-anchor="middle" letter-spacing="0.03em">Capture volatility</text>
    </g>

    <!-- Arrow 2 -->
    <g>
      <line x1="485" y1="175" x2="567" y2="175" stroke="#7BA5C9" stroke-width="2" marker-end="url(#arrowBlue)" opacity="0.85"/>
      <rect x="504" y="145" width="44" height="18" rx="9" fill="#0d1f3c" stroke="rgba(123,165,201,0.3)" stroke-width="1"/>
      <text x="526" y="158" font-family="Inter, system-ui, sans-serif" font-size="10" fill="#7BA5C9" text-anchor="middle" font-weight="500">issue</text>
    </g>

    <!-- STEP 3: pETH -->
    <g transform="translate(580, 125)">
      <circle cx="50" cy="50" r="58" fill="none" stroke="#7BA5C9" stroke-width="1" opacity="0.2"/>
      <circle cx="50" cy="50" r="50" fill="url(#pethCircleBg)" stroke="#7BA5C9" stroke-width="2" filter="url(#shadow)"/>
      <g filter="url(#softGlow)">
        <polygon points="50,22 51.6,27.5 57.9,27.5 52.9,31.6 54.6,37.2 50,33.0 45.4,37.2 47.1,31.6 42.1,27.5 48.4,27.5" fill="#9ECBEB" fill-opacity="0.8"/>
      </g>
      <g transform="translate(50, 58)">
        <polygon points="0,-22 17,0 0,8 -17,0" fill="#9ECBEB" opacity="0.9"/>
        <polygon points="0,8 17,0 0,24 -17,0" fill="#7BA5C9" opacity="0.8"/>
        <polygon points="0,-22 8,-4 0,-6 -8,-4" fill="#B8D4F0" opacity="0.3"/>
      </g>
      <text x="50" y="125" font-family="'Cormorant Garamond', Georgia, serif" font-size="18" font-weight="500" fill="#E8DCC4" text-anchor="middle">pETH</text>
      <text x="50" y="148" font-family="Inter, system-ui, sans-serif" font-size="12" fill="rgba(232,220,196,0.55)" text-anchor="middle" letter-spacing="0.05em">Collateral</text>
    </g>

    <!-- Arrow 3 -->
    <g>
      <line x1="693" y1="175" x2="775" y2="175" stroke="#7BA5C9" stroke-width="2" marker-end="url(#arrowBlue)" opacity="0.85"/>
      <rect x="709" y="145" width="50" height="18" rx="9" fill="#0d1f3c" stroke="rgba(123,165,201,0.3)" stroke-width="1"/>
      <text x="734" y="158" font-family="Inter, system-ui, sans-serif" font-size="10" fill="#7BA5C9" text-anchor="middle" font-weight="500">deposit</text>
    </g>

    <!-- STEP 4: CDPs -->
    <g transform="translate(780, 85)">
      <rect x="0" y="0" width="180" height="200" rx="24" fill="#0d1f3c" stroke="rgba(232,220,196,0.12)" stroke-width="1" filter="url(#shadow)"/>
      <rect x="4" y="4" width="172" height="192" rx="22" fill="none" stroke="rgba(232,220,196,0.03)" stroke-width="1"/>
      <g transform="translate(90, 70)">
        <rect x="-70" y="-40" width="140" height="90" rx="10" fill="#122a4d" stroke="rgba(232,220,196,0.08)" stroke-width="1"/>
        <g transform="translate(-52, 5)">
          <rect x="0" y="-30" width="9" height="50" rx="3" fill="#7BA5C9" opacity="0.75" filter="url(#shadowSmall)"/>
          <rect x="0" y="-30" width="9" height="15" rx="3" fill="#9ECBEB" opacity="0.3"/>
          <rect x="11" y="-18" width="9" height="38" rx="3" fill="#E8DCC4" opacity="0.75" filter="url(#shadowSmall)"/>
          <rect x="11" y="-18" width="9" height="12" rx="3" fill="#F5F0E6" opacity="0.3"/>
        </g>
        <g transform="translate(-22, 5)">
          <rect x="0" y="-20" width="9" height="40" rx="3" fill="#7BA5C9" opacity="0.75" filter="url(#shadowSmall)"/>
          <rect x="0" y="-20" width="9" height="12" rx="3" fill="#9ECBEB" opacity="0.3"/>
          <rect x="11" y="-8" width="9" height="28" rx="3" fill="#E8DCC4" opacity="0.75" filter="url(#shadowSmall)"/>
          <rect x="11" y="-8" width="9" height="9" rx="3" fill="#F5F0E6" opacity="0.3"/>
        </g>
        <g transform="translate(8, 5)">
          <rect x="0" y="-12" width="9" height="32" rx="3" fill="#7BA5C9" opacity="0.75" filter="url(#shadowSmall)"/>
          <rect x="0" y="-12" width="9" height="10" rx="3" fill="#9ECBEB" opacity="0.3"/>
          <rect x="11" y="-2" width="9" height="22" rx="3" fill="#E8DCC4" opacity="0.75" filter="url(#shadowSmall)"/>
          <rect x="11" y="-2" width="9" height="7" rx="3" fill="#F5F0E6" opacity="0.3"/>
        </g>
        <g transform="translate(38, 5)">
          <rect x="0" y="-25" width="9" height="45" rx="3" fill="#7BA5C9" opacity="0.75" filter="url(#shadowSmall)"/>
          <rect x="0" y="-25" width="9" height="14" rx="3" fill="#9ECBEB" opacity="0.3"/>
          <rect x="11" y="-12" width="9" height="32" rx="3" fill="#E8DCC4" opacity="0.75" filter="url(#shadowSmall)"/>
          <rect x="11" y="-12" width="9" height="10" rx="3" fill="#F5F0E6" opacity="0.3"/>
        </g>
        <rect x="-52" y="50" width="34" height="14" rx="7" fill="rgba(123,165,201,0.1)"/>
        <text x="-35" y="60" font-family="Inter, system-ui, sans-serif" font-size="9" fill="#7BA5C9" text-anchor="middle" font-weight="500">pETH</text>
        <rect x="18" y="50" width="34" height="14" rx="7" fill="rgba(232,220,196,0.1)"/>
        <text x="35" y="60" font-family="Inter, system-ui, sans-serif" font-size="9" fill="#E8DCC4" text-anchor="middle" font-weight="500">pUSD</text>
      </g>
      <text x="90" y="162" font-family="'Cormorant Garamond', Georgia, serif" font-size="16" font-weight="500" fill="#E8DCC4" text-anchor="middle">CDPs</text>
      <text x="90" y="182" font-family="Inter, system-ui, sans-serif" font-size="11" fill="rgba(232,220,196,0.55)" text-anchor="middle" letter-spacing="0.03em">Borrow pUSD</text>
    </g>

    <!-- Arrow 4 -->
    <g>
      <line x1="965" y1="175" x2="1033" y2="175" stroke="#E8DCC4" stroke-width="2" marker-end="url(#arrowCream)" opacity="0.85"/>
      <rect x="983" y="145" width="32" height="18" rx="9" fill="#0d1f3c" stroke="rgba(232,220,196,0.25)" stroke-width="1"/>
      <text x="999" y="158" font-family="Inter, system-ui, sans-serif" font-size="10" fill="#E8DCC4" text-anchor="middle" font-weight="500">mint</text>
    </g>

    <!-- OUTCOME: pUSD -->
    <g transform="translate(1050, 125)">
      <circle cx="50" cy="50" r="58" fill="none" stroke="#E8DCC4" stroke-width="1" opacity="0.25"/>
      <circle cx="50" cy="50" r="62" fill="none" stroke="#E8DCC4" stroke-width="0.5" opacity="0.12"/>
      <circle cx="50" cy="50" r="50" fill="url(#pusdCircleBg)" stroke="#E8DCC4" stroke-width="2.5" filter="url(#shadow)"/>
      <text x="50" y="70" font-family="'Cormorant Garamond', Georgia, serif" font-size="43" font-weight="500" fill="url(#pusdGradient)" text-anchor="middle" filter="url(#softGlow)">$</text>
      <g filter="url(#softGlow)">
        <polygon points="50,22 51.6,27.5 57.9,27.5 52.9,31.6 54.6,37.2 50,33.0 45.4,37.2 47.1,31.6 42.1,27.5 48.4,27.5" fill="#F5F0E6" fill-opacity="0.85"/>
      </g>
      <text x="50" y="125" font-family="'Cormorant Garamond', Georgia, serif" font-size="18" font-weight="600" fill="#E8DCC4" text-anchor="middle">pUSD</text>
      <g transform="translate(50, 145)">
        <rect x="-50" y="0" width="100" height="30" rx="15" fill="#122a4d" stroke="#E8DCC4" stroke-width="1.5" filter="url(#shadowSmall)"/>
        <text x="0" y="20" font-family="Inter, system-ui, sans-serif" font-size="11" font-weight="600" fill="#E8DCC4" text-anchor="middle" letter-spacing="0.05em">Scalable Yield</text>
      </g>
    </g>

    <!-- POLAR SECTION -->
    <path d="M630 280 L630 400 L533 400" stroke="#9B8FCF" stroke-width="2" fill="none" stroke-dasharray="6,4" marker-end="url(#arrowPurple)" opacity="0.8" stroke-linejoin="round"/>
    <rect x="640" y="305" width="60" height="18" rx="9" fill="#0d1f3c" stroke="rgba(155,143,207,0.3)" stroke-width="1"/>
    <text x="670" y="318" font-family="Inter, system-ui, sans-serif" font-size="10" fill="#9B8FCF" font-weight="500" text-anchor="middle">burn pETH</text>

    <!-- POLAR Circle -->
    <g transform="translate(420, 350)">
      <circle cx="50" cy="50" r="58" fill="none" stroke="#9B8FCF" stroke-width="1" opacity="0.2"/>
      <circle cx="50" cy="50" r="50" fill="url(#polarCircleBg)" stroke="#9B8FCF" stroke-width="2" filter="url(#shadow)"/>
      <g transform="translate(50, 50)">
        <circle cx="0" cy="0" r="26" fill="url(#polarEmblemGlow)"/>
        <path d="M-32,0 L-5.5,-3 L0,0 L-5.5,3 Z" fill="url(#polarStarLeft)"/>
        <path d="M32,0 L5.5,3 L0,0 L5.5,-3 Z" fill="url(#polarStarRight)"/>
        <path d="M0,-32 L3,-5.5 L0,0 L-3,-5.5 Z" fill="url(#polarStarTop)"/>
        <path d="M0,32 L3,5.5 L0,0 L-3,5.5 Z" fill="url(#polarStarBottom)"/>
        <circle cx="0" cy="0" r="3.5" fill="#B8A8DF" filter="url(#softGlow)"/>
      </g>
      <text x="50" y="125" font-family="'Cormorant Garamond', Georgia, serif" font-size="18" font-weight="500" fill="#E8DCC4" text-anchor="middle">POLAR</text>
      <text x="50" y="148" font-family="Inter, system-ui, sans-serif" font-size="12" fill="rgba(232,220,196,0.55)" text-anchor="middle" letter-spacing="0.05em">Stewardship</text>
    </g>

    <!-- Arrow from POLAR to Bonding Curve -->
    <path d="M407 400 L380 400 L380 290" stroke="#9B8FCF" stroke-width="2" fill="none" marker-end="url(#arrowPurple)" opacity="0.8" stroke-linejoin="round"/>
    <rect x="230" y="378" width="125" height="18" rx="9" fill="#0d1f3c" stroke="rgba(155,143,207,0.3)" stroke-width="1"/>
    <text x="292" y="391" font-family="Inter, system-ui, sans-serif" font-size="10" fill="#9B8FCF" font-weight="500" text-anchor="middle">raise pETH floor price</text>

    <!-- Arrow from burn pETH to Scalable Yield -->
    <path d="M630 400 L1100 400 L1100 305" stroke="#9B8FCF" stroke-width="2" fill="none" stroke-dasharray="6,4" marker-end="url(#arrowPurple)" opacity="0.8" stroke-linejoin="round"/>
    <rect x="817" y="378" width="65" height="18" rx="9" fill="#0d1f3c" stroke="rgba(155,143,207,0.3)" stroke-width="1"/>
    <text x="850" y="391" font-family="Inter, system-ui, sans-serif" font-size="10" fill="#9B8FCF" font-weight="500" text-anchor="middle">release ETH</text>
  </g>

  <!-- Polaris Logo (bottom-left corner, scaled to ~150px wide) -->
  <g transform="translate(24, 520) scale(0.59)">
    <defs>
      <radialGradient id="logoGlow" cx="0" cy="0" r="1" gradientUnits="userSpaceOnUse" gradientTransform="translate(43.1475 43.1469) rotate(90) scale(33.9014)">
        <stop stop-color="#E8DCC4" stop-opacity="0.32"/>
        <stop offset="1" stop-color="#E8DCC4" stop-opacity="0"/>
      </radialGradient>
      <linearGradient id="logoStarLeft" x1="0" y1="43.5285" x2="43.5285" y2="43.5285" gradientUnits="userSpaceOnUse">
        <stop stop-color="#E8DCC4" stop-opacity="0"/>
        <stop offset="0.464207" stop-color="#E8DCC4"/>
      </linearGradient>
      <linearGradient id="logoStarRight" x1="87.0571" y1="43.5285" x2="43.5287" y2="43.5285" gradientUnits="userSpaceOnUse">
        <stop stop-color="#E8DCC4" stop-opacity="0"/>
        <stop offset="0.464207" stop-color="#E8DCC4"/>
      </linearGradient>
      <linearGradient id="logoStarTop" x1="43.5288" y1="0" x2="43.5288" y2="43.5284" gradientUnits="userSpaceOnUse">
        <stop stop-color="#E8DCC4" stop-opacity="0"/>
        <stop offset="0.464207" stop-color="#E8DCC4"/>
      </linearGradient>
      <linearGradient id="logoStarBottom" x1="43.5288" y1="87.0564" x2="43.5288" y2="43.5279" gradientUnits="userSpaceOnUse">
        <stop stop-color="#E8DCC4" stop-opacity="0"/>
        <stop offset="0.464207" stop-color="#E8DCC4"/>
      </linearGradient>
    </defs>
    <path d="M43.1475 77.0483C61.8707 77.0483 77.0489 61.8701 77.0489 43.1469C77.0489 24.4237 61.8707 9.24548 43.1475 9.24548C24.4243 9.24548 9.24609 24.4237 9.24609 43.1469C9.24609 61.8701 24.4243 77.0483 43.1475 77.0483Z" fill="url(#logoGlow)"/>
    <path d="M0 43.5285L36.2737 39.5989L43.5284 43.5285L36.2737 47.4582L0 43.5285Z" fill="url(#logoStarLeft)"/>
    <path d="M87.0571 43.5285L50.7834 39.5989L43.5287 43.5285L50.7834 47.4582L87.0571 43.5285Z" fill="url(#logoStarRight)"/>
    <path d="M43.5288 0L47.4585 36.2737L43.5288 43.5284L39.5992 36.2737L43.5288 0Z" fill="url(#logoStarTop)"/>
    <path d="M43.5288 87.0564L47.4585 50.7827L43.5288 43.5279L39.5992 50.7827L43.5288 87.0564Z" fill="url(#logoStarBottom)"/>
    <path d="M43.5281 47.8809C45.9321 47.8809 47.8809 45.9321 47.8809 43.5281C47.8809 41.1241 45.9321 39.1753 43.5281 39.1753C41.1241 39.1753 39.1753 41.1241 39.1753 43.5281C39.1753 45.9321 41.1241 47.8809 43.5281 47.8809Z" fill="white"/>
    <path d="M106.645 61.6112V25.238H120.622C124.26 25.238 127.169 26.2599 129.352 28.3037C131.569 30.3129 132.677 33.0149 132.677 36.4097C132.677 39.8046 131.569 42.5239 129.352 44.5678C127.169 46.6116 124.26 47.6335 120.622 47.6335H111.165V61.6112H106.645ZM120.259 29.3949H111.165V43.4766H120.207C122.597 43.4766 124.502 42.8357 125.922 41.554C127.343 40.2722 128.053 38.5575 128.053 36.4097C128.053 34.262 127.343 32.5646 125.922 31.3175C124.537 30.0358 122.649 29.3949 120.259 29.3949Z" fill="white"/>
    <path d="M157.171 58.1818C154.746 60.6759 151.594 61.923 147.714 61.923C143.834 61.923 140.665 60.6759 138.205 58.1818C135.78 55.6529 134.568 52.3794 134.568 48.361C134.568 44.3426 135.78 41.0863 138.205 38.5921C140.665 36.0633 143.834 34.7989 147.714 34.7989C151.594 34.7989 154.746 36.0633 157.171 38.5921C159.631 41.0863 160.861 44.3426 160.861 48.361C160.861 52.3794 159.631 55.6529 157.171 58.1818ZM141.375 55.3758C143.003 57.2118 145.116 58.1298 147.714 58.1298C150.312 58.1298 152.425 57.2118 154.054 55.3758C155.682 53.5398 156.496 51.2016 156.496 48.361C156.496 45.5204 155.682 43.1821 154.054 41.3461C152.425 39.5101 150.312 38.5921 147.714 38.5921C145.116 38.5921 143.003 39.5101 141.375 41.3461C139.747 43.1821 138.933 45.5204 138.933 48.361C138.933 51.2016 139.747 53.5398 141.375 55.3758Z" fill="white"/>
    <path d="M165.747 61.6112V25.238H170.008V61.6112H165.747Z" fill="white"/>
    <path d="M199.28 57.7141H200.631V61.6112H198.292C196.595 61.6112 195.382 61.2648 194.655 60.572C193.927 59.8792 193.546 58.8573 193.512 57.5063C191.468 60.4508 188.506 61.923 184.626 61.923C181.682 61.923 179.309 61.2302 177.507 59.8445C175.741 58.4589 174.857 56.5709 174.857 54.1807C174.857 51.5133 175.758 49.4695 177.559 48.0492C179.395 46.6289 182.045 45.9188 185.51 45.9188H193.304V44.1001C193.304 42.368 192.715 41.017 191.537 40.0471C190.394 39.0771 188.783 38.5921 186.705 38.5921C184.869 38.5921 183.345 39.0078 182.132 39.8392C180.954 40.636 180.227 41.7099 179.95 43.0609H175.689C176.001 40.4628 177.144 38.4363 179.118 36.9813C181.128 35.5264 183.726 34.7989 186.913 34.7989C190.307 34.7989 192.923 35.6303 194.759 37.2931C196.629 38.9212 197.565 41.2768 197.565 44.3599V55.9474C197.565 56.6402 197.686 57.1079 197.928 57.3504C198.206 57.5929 198.656 57.7141 199.28 57.7141ZM193.304 50.8032V49.5041H185.094C181.145 49.5041 179.17 50.9764 179.17 53.9209C179.17 55.2373 179.69 56.2938 180.729 57.0906C181.768 57.8873 183.171 58.2857 184.938 58.2857C187.536 58.2857 189.58 57.6102 191.07 56.2592C192.559 54.8735 193.304 53.0549 193.304 50.8032Z" fill="white"/>
    <path d="M216.169 35.1107H217.364V39.2677H215.234C212.705 39.2677 210.886 40.1164 209.778 41.8138C208.704 43.5112 208.167 45.607 208.167 48.1012V61.6112H203.906V35.1107H207.595L208.167 39.1118C209.795 36.4444 212.463 35.1107 216.169 35.1107Z" fill="white"/>
    <path d="M225.215 29.8626C224.695 30.3822 224.037 30.642 223.24 30.642C222.443 30.642 221.785 30.3822 221.265 29.8626C220.746 29.3429 220.486 28.6848 220.486 27.888C220.486 27.0913 220.746 26.4331 221.265 25.9135C221.785 25.3938 222.443 25.134 223.24 25.134C224.037 25.134 224.695 25.3938 225.215 25.9135C225.734 26.4331 225.994 27.0913 225.994 27.888C225.994 28.6848 225.734 29.3429 225.215 29.8626ZM221.058 61.6112V35.1107H225.318V61.6112H221.058Z" fill="white"/>
    <path d="M230.064 52.8816H234.429C234.499 54.4751 235.191 55.7742 236.508 56.7788C237.824 57.7834 239.573 58.2857 241.756 58.2857C243.626 58.2857 245.151 57.9219 246.329 57.1945C247.541 56.4324 248.147 55.4451 248.147 54.2327C248.147 53.5745 248.009 53.0202 247.731 52.5699C247.489 52.1195 247.212 51.7731 246.9 51.5306C246.623 51.2535 246.103 51.0283 245.341 50.8551C244.579 50.6473 243.99 50.526 243.575 50.4914C243.159 50.4221 242.397 50.3182 241.288 50.1796C239.591 49.9718 238.188 49.7466 237.079 49.5041C235.971 49.227 234.88 48.8286 233.806 48.309C232.732 47.7547 231.935 47.0273 231.415 46.1266C230.896 45.1913 230.636 44.0655 230.636 42.7491C230.636 40.3588 231.606 38.4363 233.546 36.9813C235.52 35.4918 238.015 34.7643 241.028 34.7989C244.146 34.8336 246.675 35.5784 248.615 37.0333C250.555 38.4536 251.629 40.4974 251.836 43.1648H247.472C247.298 41.7791 246.623 40.6533 245.445 39.7873C244.302 38.8866 242.83 38.4363 241.028 38.4363C239.158 38.4363 237.651 38.8 236.508 39.5275C235.399 40.2549 234.845 41.2249 234.845 42.4373C234.845 43.1301 234.984 43.7017 235.261 44.1521C235.572 44.6024 236.075 44.9661 236.768 45.2433C237.495 45.4857 238.153 45.6763 238.742 45.8148C239.366 45.9188 240.284 46.04 241.496 46.1786C242.882 46.3518 244.042 46.525 244.978 46.6982C245.913 46.8714 246.883 47.1485 247.887 47.5296C248.892 47.9106 249.689 48.361 250.278 48.8806C250.901 49.4002 251.403 50.093 251.785 50.9591C252.166 51.7905 252.356 52.7777 252.356 53.9209C252.356 56.3458 251.334 58.2857 249.29 59.7406C247.281 61.1955 244.77 61.923 241.756 61.923C238.257 61.923 235.434 61.1263 233.286 59.5328C231.173 57.9393 230.099 55.7222 230.064 52.8816Z" fill="white"/>
  </g>
</svg>
