<svg xmlns="http://www.w3.org/2000/svg" viewBox="0 0 400 1450" fill="none">
  <defs>
    <!-- Enhanced Gradients -->
    <linearGradient id="ethGradient" x1="0%" y1="0%" x2="100%" y2="100%">
      <stop offset="0%" style="stop-color:#7BA5C9"/>
      <stop offset="100%" style="stop-color:#5A84A8"/>
    </linearGradient>
    <linearGradient id="pethGradient" x1="0%" y1="0%" x2="100%" y2="100%">
      <stop offset="0%" style="stop-color:#9ECBEB"/>
      <stop offset="100%" style="stop-color:#7BA5C9"/>
    </linearGradient>
    <linearGradient id="pusdGradient" x1="0%" y1="0%" x2="100%" y2="100%">
      <stop offset="0%" style="stop-color:#F5F0E6"/>
      <stop offset="100%" style="stop-color:#E8DCC4"/>
    </linearGradient>
    <linearGradient id="polarGradient" x1="0%" y1="0%" x2="100%" y2="100%">
      <stop offset="0%" style="stop-color:#B8A8DF"/>
      <stop offset="100%" style="stop-color:#9B8FCF"/>
    </linearGradient>
    <linearGradient id="curveGradient" x1="0%" y1="100%" x2="100%" y2="0%">
      <stop offset="0%" style="stop-color:#122a4d"/>
      <stop offset="100%" style="stop-color:#1a3a5c"/>
    </linearGradient>

    <!-- Radial gradients for token circle backgrounds -->
    <radialGradient id="ethCircleBg" cx="50%" cy="30%" r="70%">
      <stop offset="0%" style="stop-color:#142d4f"/>
      <stop offset="100%" style="stop-color:#0d1f3c"/>
    </radialGradient>
    <radialGradient id="pethCircleBg" cx="50%" cy="30%" r="70%">
      <stop offset="0%" style="stop-color:#0f2a4a"/>
      <stop offset="100%" style="stop-color:#0d1f3c"/>
    </radialGradient>
    <radialGradient id="pusdCircleBg" cx="50%" cy="30%" r="70%">
      <stop offset="0%" style="stop-color:#1a2f48"/>
      <stop offset="100%" style="stop-color:#0d1f3c"/>
    </radialGradient>
    <radialGradient id="polarCircleBg" cx="50%" cy="30%" r="70%">
      <stop offset="0%" style="stop-color:#1a254a"/>
      <stop offset="100%" style="stop-color:#0d1f3c"/>
    </radialGradient>

    <!-- Enhanced bonding curve area gradients -->
    <linearGradient id="burnedAreaGradient" x1="0%" y1="0%" x2="100%" y2="100%">
      <stop offset="0%" style="stop-color:#9B8FCF"/>
      <stop offset="100%" style="stop-color:#7B6FAF"/>
    </linearGradient>
    <linearGradient id="availableAreaGradient" x1="0%" y1="100%" x2="100%" y2="0%">
      <stop offset="0%" style="stop-color:#5A84A8"/>
      <stop offset="100%" style="stop-color:#7BA5C9"/>
    </linearGradient>

    <!-- Enhanced Shadows -->
    <filter id="shadow" x="-30%" y="-30%" width="160%" height="160%">
      <feDropShadow dx="0" dy="4" stdDeviation="8" flood-color="#000000" flood-opacity="0.35"/>
    </filter>
    <filter id="shadowSmall" x="-20%" y="-20%" width="140%" height="140%">
      <feDropShadow dx="0" dy="2" stdDeviation="4" flood-color="#000000" flood-opacity="0.25"/>
    </filter>
    <filter id="softGlow" x="-50%" y="-50%" width="200%" height="200%">
      <feGaussianBlur stdDeviation="2" result="coloredBlur"/>
      <feMerge>
        <feMergeNode in="coloredBlur"/>
        <feMergeNode in="SourceGraphic"/>
      </feMerge>
    </filter>

    <!-- Arrow markers - vertical orientation -->
    <marker id="arrowCreamDown" markerWidth="12" markerHeight="12" refX="6" refY="10" orient="auto" markerUnits="userSpaceOnUse">
      <path d="M2,2 L6,10 L10,2" fill="none" stroke="#E8DCC4" stroke-width="2" stroke-linecap="round" stroke-linejoin="round"/>
    </marker>
    <marker id="arrowBlueDown" markerWidth="12" markerHeight="12" refX="6" refY="10" orient="auto" markerUnits="userSpaceOnUse">
      <path d="M2,2 L6,10 L10,2" fill="none" stroke="#7BA5C9" stroke-width="2" stroke-linecap="round" stroke-linejoin="round"/>
    </marker>
    <marker id="arrowSlateDown" markerWidth="12" markerHeight="12" refX="6" refY="10" orient="auto" markerUnits="userSpaceOnUse">
      <path d="M2,2 L6,10 L10,2" fill="none" stroke="#627D92" stroke-width="2" stroke-linecap="round" stroke-linejoin="round"/>
    </marker>
    <marker id="arrowPurpleDown" markerWidth="12" markerHeight="12" refX="6" refY="10" orient="auto" markerUnits="userSpaceOnUse">
      <path d="M2,2 L6,10 L10,2" fill="none" stroke="#9B8FCF" stroke-width="2" stroke-linecap="round" stroke-linejoin="round"/>
    </marker>
    <marker id="arrowPurpleUp" markerWidth="12" markerHeight="12" refX="6" refY="2" orient="auto" markerUnits="userSpaceOnUse">
      <path d="M2,10 L6,2 L10,10" fill="none" stroke="#9B8FCF" stroke-width="2" stroke-linecap="round" stroke-linejoin="round"/>
    </marker>

    <!-- POLAR emblem star gradients -->
    <radialGradient id="polarEmblemGlow" cx="50%" cy="50%" r="50%">
      <stop offset="0%" style="stop-color:#9B8FCF;stop-opacity:0.32"/>
      <stop offset="100%" style="stop-color:#9B8FCF;stop-opacity:0"/>
    </radialGradient>
    <linearGradient id="polarStarLeft" x1="0%" y1="50%" x2="100%" y2="50%">
      <stop offset="0%" style="stop-color:#9B8FCF;stop-opacity:0"/>
      <stop offset="46%" style="stop-color:#B8A8DF"/>
    </linearGradient>
    <linearGradient id="polarStarRight" x1="100%" y1="50%" x2="0%" y2="50%">
      <stop offset="0%" style="stop-color:#9B8FCF;stop-opacity:0"/>
      <stop offset="46%" style="stop-color:#B8A8DF"/>
    </linearGradient>
    <linearGradient id="polarStarTop" x1="50%" y1="0%" x2="50%" y2="100%">
      <stop offset="0%" style="stop-color:#9B8FCF;stop-opacity:0"/>
      <stop offset="46%" style="stop-color:#B8A8DF"/>
    </linearGradient>
    <linearGradient id="polarStarBottom" x1="50%" y1="100%" x2="50%" y2="0%">
      <stop offset="0%" style="stop-color:#9B8FCF;stop-opacity:0"/>
      <stop offset="46%" style="stop-color:#B8A8DF"/>
    </linearGradient>
  </defs>

  <!-- Background -->
  <rect width="400" height="1450" fill="#0a1628"/>
  <rect width="400" height="1450" fill="url(#curveGradient)" opacity="0.3"/>

  <!-- ==================== STEP 1: ETH ==================== -->
  <g transform="translate(200, 70)">
    <!-- Step Label -->
    <text x="0" y="-30" font-family="Inter, system-ui, sans-serif" font-size="12" font-weight="600" fill="#E8DCC4" text-anchor="middle" letter-spacing="0.15em">STEP 1</text>
    <!-- Outer glow ring -->
    <circle cx="0" cy="42" r="50" fill="none" stroke="#627D92" stroke-width="1" opacity="0.2"/>
    <!-- ETH Circle -->
    <circle cx="0" cy="42" r="42" fill="url(#ethCircleBg)" stroke="#627D92" stroke-width="2" filter="url(#shadow)"/>
    <!-- ETH Diamond Logo -->
    <g transform="translate(0, 42)">
      <polygon points="0,-22 14,0 0,8 -14,0" fill="#7BA5C9" opacity="0.95"/>
      <polygon points="0,8 14,0 0,22 -14,0" fill="#5A84A8" opacity="0.85"/>
      <polygon points="0,-22 7,-4 0,-6 -7,-4" fill="#9ECBEB" opacity="0.3"/>
    </g>
    <!-- Label -->
    <text x="0" y="112" font-family="'Cormorant Garamond', Georgia, serif" font-size="16" font-weight="500" fill="#E8DCC4" text-anchor="middle">ETH</text>
    <text x="0" y="130" font-family="Inter, system-ui, sans-serif" font-size="11" fill="rgba(232,220,196,0.55)" text-anchor="middle" letter-spacing="0.05em">Swap</text>
  </g>

  <!-- Arrow 1: ETH to Bonding Curve -->
  <!-- ETH ends ~y=200, STEP 2 label at y=248 -->
  <g>
    <line x1="200" y1="205" x2="200" y2="223" stroke="#627D92" stroke-width="2" stroke-dasharray="6,4" opacity="0.85"/>
    <polygon points="200,233 194,221 206,221" fill="#627D92" opacity="0.85"/>
  </g>

  <!-- ==================== STEP 2: BONDING CURVE ==================== -->
  <g transform="translate(120, 260)">
    <!-- Step Label -->
    <text x="80" y="-12" font-family="Inter, system-ui, sans-serif" font-size="12" font-weight="600" fill="#E8DCC4" text-anchor="middle" letter-spacing="0.15em">STEP 2</text>
    <!-- Card Background -->
    <rect x="0" y="0" width="160" height="170" rx="20" fill="#0d1f3c" stroke="rgba(232,220,196,0.12)" stroke-width="1" filter="url(#shadow)"/>
    <rect x="3" y="3" width="154" height="164" rx="18" fill="none" stroke="rgba(232,220,196,0.03)" stroke-width="1"/>

    <!-- Mini Bonding Curve Graph -->
    <g transform="translate(20, 20)">
      <rect x="0" y="0" width="120" height="85" fill="#122a4d" stroke="rgba(232,220,196,0.15)" stroke-width="1" rx="6"/>

      <!-- Grid lines -->
      <line x1="0" y1="42" x2="120" y2="42" stroke="rgba(232,220,196,0.05)" stroke-width="1"/>
      <line x1="60" y1="0" x2="60" y2="85" stroke="rgba(232,220,196,0.05)" stroke-width="1"/>

      <!-- Area 1: released ETH (purple) -->
      <path d="M0.0,85.0 L0.2,74.1 L0.4,71.3 L0.6,69.3 L0.8,67.8 L1.0,66.4 L1.3,65.3 L1.5,64.2 L1.7,63.3 L1.9,62.4 L2.1,61.6 L2.3,60.9 L2.5,60.1 L2.7,59.5 L2.9,58.8 L3.1,58.2 L3.3,57.6 L3.5,57.1 L3.8,56.5 L4.0,56.0 L4.2,55.5 L4.4,55.0 L4.6,54.6 L4.8,54.1 L5.0,53.7 L5.0,53.7 L6.9,50.1 L8.8,47.2 L10.7,44.6 L12.6,42.4 L14.5,40.3 L16.4,38.5 L18.3,36.7 L20.2,35.1 L22.1,33.6 L24.0,32.2 L25.9,30.8 L27.8,29.5 L29.7,28.3 L31.6,27.1 L33.5,26.0 L35.4,24.9 L36.4,24.3 L36.4,85 L0,85 Z" fill="#9B8FCF" opacity="0.35"/>

      <!-- Area 2: pUSD (cream) -->
      <path d="M36.4,24.3 L37.3,23.8 L39.2,22.8 L41.1,21.8 L43.0,20.8 L44.9,19.9 L46.8,19.0 L48.7,18.1 L50.6,17.3 L52.5,16.4 L54.4,15.6 L56.3,14.8 L58.2,14.0 L60.1,13.3 L62.0,12.5 L63.9,11.8 L65.8,11.1 L67.7,10.4 L69.6,9.7 L71.5,9.0 L73.4,8.3 L73.4,85 L36.4,85 Z" fill="#E8DCC4" opacity="0.20"/>

      <!-- Area 3: pETH mcap (green) -->
      <path d="M36.4,24.3 L37.3,23.8 L39.2,22.8 L41.1,21.8 L43.0,20.8 L44.9,19.9 L46.8,19.0 L48.7,18.1 L50.6,17.3 L52.5,16.4 L54.4,15.6 L56.3,14.8 L58.2,14.0 L60.1,13.3 L62.0,12.5 L63.9,11.8 L65.8,11.1 L67.7,10.4 L69.6,9.7 L71.5,9.0 L73.4,8.3 L75.3,7.7 L77.2,7.0 L79.1,6.4 L81.0,5.8 L82.9,5.2 L84.8,4.5 L86.7,3.9 L88.6,3.4 L90.5,2.8 L92.4,2.2 L94.3,1.6 L96.2,1.1 L98.1,0.5 L100.0,0.0 L100,0 L36.4,0 Z" fill="#6BCAA0" opacity="0.22"/>

      <!-- Area 4: ETH reserve (steel blue) -->
      <path d="M73.4,8.3 L75.3,7.7 L77.2,7.0 L79.1,6.4 L81.0,5.8 L82.9,5.2 L84.8,4.5 L86.7,3.9 L88.6,3.4 L90.5,2.8 L92.4,2.2 L94.3,1.6 L96.2,1.1 L98.1,0.5 L100.0,0.0 L100,0 L100,85 L73.4,85 Z" fill="#7BA5C9" opacity="0.25"/>

      <!-- Bonding curve polyline -->
      <path d="M0.0,85.0 L0.2,74.1 L0.4,71.3 L0.6,69.3 L0.8,67.8 L1.0,66.4 L1.3,65.3 L1.5,64.2 L1.7,63.3 L1.9,62.4 L2.1,61.6 L2.3,60.9 L2.5,60.1 L2.7,59.5 L2.9,58.8 L3.1,58.2 L3.3,57.6 L3.5,57.1 L3.8,56.5 L4.0,56.0 L4.2,55.5 L4.4,55.0 L4.6,54.6 L4.8,54.1 L5.0,53.7 L5.0,53.7 L6.9,50.1 L8.8,47.2 L10.7,44.6 L12.6,42.4 L14.5,40.3 L16.4,38.5 L18.3,36.7 L20.2,35.1 L22.1,33.6 L24.0,32.2 L25.9,30.8 L27.8,29.5 L29.7,28.3 L31.6,27.1 L33.5,26.0 L35.4,24.9 L37.3,23.8 L39.2,22.8 L41.1,21.8 L43.0,20.8 L44.9,19.9 L46.8,19.0 L48.7,18.1 L50.6,17.3 L52.5,16.4 L54.4,15.6 L56.3,14.8 L58.2,14.0 L60.1,13.3 L62.0,12.5 L63.9,11.8 L65.8,11.1 L67.7,10.4 L69.6,9.7 L71.5,9.0 L73.4,8.3 L75.3,7.7 L77.2,7.0 L79.1,6.4 L81.0,5.8 L82.9,5.2 L84.8,4.5 L86.7,3.9 L88.6,3.4 L90.5,2.8 L92.4,2.2 L94.3,1.6 L96.2,1.1 L98.1,0.5 L100.0,0.0" fill="none" stroke="#E8DCC4" stroke-width="2" stroke-linecap="round" stroke-linejoin="round" filter="url(#softGlow)"/>


      <!-- Floor price dot -->
      <circle cx="36.4" cy="24.3" r="3" fill="#E8DCC4" opacity="0.8"/>

      <!-- Market price dot at endpoint -->
      <circle cx="100" cy="0" r="3" fill="#9ECBEB" opacity="0.8"/>
    </g>

    <!-- Title -->
    <text x="80" y="130" font-family="'Cormorant Garamond', Georgia, serif" font-size="14" font-weight="500" fill="#E8DCC4" text-anchor="middle">Bonding Curve</text>
    <text x="80" y="150" font-family="Inter, system-ui, sans-serif" font-size="10" fill="rgba(232,220,196,0.55)" text-anchor="middle" letter-spacing="0.03em">Capture volatility</text>
  </g>

  <!-- Arrow 2: Bonding Curve to pETH -->
  <!-- Bonding Curve ends y=430, STEP 3 label at y=495 -->
  <g>
    <line x1="200" y1="435" x2="200" y2="468" stroke="#7BA5C9" stroke-width="2" opacity="0.85"/>
    <polygon points="200,478 194,466 206,466" fill="#7BA5C9" opacity="0.85"/>
    <rect x="212" y="448" width="40" height="16" rx="8" fill="#0d1f3c" stroke="rgba(123,165,201,0.3)" stroke-width="1"/>
    <text x="232" y="460" font-family="Inter, system-ui, sans-serif" font-size="9" fill="#7BA5C9" text-anchor="middle" font-weight="500">issue</text>
  </g>

  <!-- ==================== STEP 3: pETH ==================== -->
  <g transform="translate(200, 510)">
    <!-- Step Label -->
    <text x="0" y="-15" font-family="Inter, system-ui, sans-serif" font-size="12" font-weight="600" fill="#E8DCC4" text-anchor="middle" letter-spacing="0.15em">STEP 3</text>
    <!-- Outer glow ring -->
    <circle cx="0" cy="42" r="50" fill="none" stroke="#7BA5C9" stroke-width="1" opacity="0.2"/>
    <!-- pETH Circle -->
    <circle cx="0" cy="42" r="42" fill="url(#pethCircleBg)" stroke="#7BA5C9" stroke-width="2" filter="url(#shadow)"/>
    <!-- Small star above -->
    <g filter="url(#softGlow)">
      <polygon points="0,20 1.3,24.5 6.6,24.5 2.4,27.8 3.8,32.4 0,29 -3.8,32.4 -2.4,27.8 -6.6,24.5 -1.3,24.5" fill="#9ECBEB" fill-opacity="0.8"/>
    </g>
    <!-- pETH Diamond -->
    <g transform="translate(0, 48)">
      <polygon points="0,-18 14,0 0,7 -14,0" fill="#9ECBEB" opacity="0.9"/>
      <polygon points="0,7 14,0 0,20 -14,0" fill="#7BA5C9" opacity="0.8"/>
      <polygon points="0,-18 7,-3 0,-5 -7,-3" fill="#B8D4F0" opacity="0.3"/>
    </g>
    <!-- Label -->
    <text x="0" y="112" font-family="'Cormorant Garamond', Georgia, serif" font-size="16" font-weight="500" fill="#E8DCC4" text-anchor="middle">pETH</text>
    <text x="0" y="130" font-family="Inter, system-ui, sans-serif" font-size="11" fill="rgba(232,220,196,0.55)" text-anchor="middle" letter-spacing="0.05em">Collateral</text>
  </g>

  <!-- Arrow 3: pETH to CDPs -->
  <!-- pETH ends ~y=640, STEP 4 label at y=698 -->
  <g>
    <line x1="200" y1="645" x2="200" y2="670" stroke="#7BA5C9" stroke-width="2" opacity="0.85"/>
    <polygon points="200,680 194,668 206,668" fill="#7BA5C9" opacity="0.85"/>
    <rect x="212" y="652" width="50" height="16" rx="8" fill="#0d1f3c" stroke="rgba(123,165,201,0.3)" stroke-width="1"/>
    <text x="237" y="664" font-family="Inter, system-ui, sans-serif" font-size="9" fill="#7BA5C9" text-anchor="middle" font-weight="500">deposit</text>
  </g>

  <!-- ==================== STEP 4: CDPs ==================== -->
  <g transform="translate(120, 710)">
    <!-- Step Label -->
    <text x="80" y="-12" font-family="Inter, system-ui, sans-serif" font-size="12" font-weight="600" fill="#E8DCC4" text-anchor="middle" letter-spacing="0.15em">STEP 4</text>
    <!-- Card Background -->
    <rect x="0" y="0" width="160" height="170" rx="20" fill="#0d1f3c" stroke="rgba(232,220,196,0.12)" stroke-width="1" filter="url(#shadow)"/>
    <rect x="3" y="3" width="154" height="164" rx="18" fill="none" stroke="rgba(232,220,196,0.03)" stroke-width="1"/>

    <!-- CDPs Container -->
    <g transform="translate(80, 60)">
      <rect x="-55" y="-32" width="110" height="75" rx="8" fill="#122a4d" stroke="rgba(232,220,196,0.08)" stroke-width="1"/>

      <!-- CDP 1 -->
      <g transform="translate(-42, 5)">
        <rect x="0" y="-25" width="8" height="42" rx="2" fill="#7BA5C9" opacity="0.75" filter="url(#shadowSmall)"/>
        <rect x="0" y="-25" width="8" height="13" rx="2" fill="#9ECBEB" opacity="0.3"/>
        <rect x="10" y="-15" width="8" height="32" rx="2" fill="#E8DCC4" opacity="0.75" filter="url(#shadowSmall)"/>
        <rect x="10" y="-15" width="8" height="10" rx="2" fill="#F5F0E6" opacity="0.3"/>
      </g>

      <!-- CDP 2 -->
      <g transform="translate(-16, 5)">
        <rect x="0" y="-17" width="8" height="34" rx="2" fill="#7BA5C9" opacity="0.75" filter="url(#shadowSmall)"/>
        <rect x="0" y="-17" width="8" height="10" rx="2" fill="#9ECBEB" opacity="0.3"/>
        <rect x="10" y="-7" width="8" height="24" rx="2" fill="#E8DCC4" opacity="0.75" filter="url(#shadowSmall)"/>
        <rect x="10" y="-7" width="8" height="8" rx="2" fill="#F5F0E6" opacity="0.3"/>
      </g>

      <!-- CDP 3 -->
      <g transform="translate(10, 5)">
        <rect x="0" y="-10" width="8" height="27" rx="2" fill="#7BA5C9" opacity="0.75" filter="url(#shadowSmall)"/>
        <rect x="0" y="-10" width="8" height="8" rx="2" fill="#9ECBEB" opacity="0.3"/>
        <rect x="10" y="-2" width="8" height="19" rx="2" fill="#E8DCC4" opacity="0.75" filter="url(#shadowSmall)"/>
        <rect x="10" y="-2" width="8" height="6" rx="2" fill="#F5F0E6" opacity="0.3"/>
      </g>

      <!-- CDP 4 -->
      <g transform="translate(36, 5)">
        <rect x="0" y="-21" width="8" height="38" rx="2" fill="#7BA5C9" opacity="0.75" filter="url(#shadowSmall)"/>
        <rect x="0" y="-21" width="8" height="12" rx="2" fill="#9ECBEB" opacity="0.3"/>
        <rect x="10" y="-10" width="8" height="27" rx="2" fill="#E8DCC4" opacity="0.75" filter="url(#shadowSmall)"/>
        <rect x="10" y="-10" width="8" height="9" rx="2" fill="#F5F0E6" opacity="0.3"/>
      </g>

      <!-- Labels -->
      <rect x="-42" y="42" width="30" height="12" rx="6" fill="rgba(123,165,201,0.1)"/>
      <text x="-27" y="51" font-family="Inter, system-ui, sans-serif" font-size="8" fill="#7BA5C9" text-anchor="middle" font-weight="500">pETH</text>
      <rect x="12" y="42" width="30" height="12" rx="6" fill="rgba(232,220,196,0.1)"/>
      <text x="27" y="51" font-family="Inter, system-ui, sans-serif" font-size="8" fill="#E8DCC4" text-anchor="middle" font-weight="500">pUSD</text>
    </g>

    <!-- Title -->
    <text x="80" y="130" font-family="'Cormorant Garamond', Georgia, serif" font-size="14" font-weight="500" fill="#E8DCC4" text-anchor="middle">CDPs</text>
    <text x="80" y="150" font-family="Inter, system-ui, sans-serif" font-size="10" fill="rgba(232,220,196,0.55)" text-anchor="middle" letter-spacing="0.03em">Borrow pUSD</text>
  </g>

  <!-- Arrow 4: CDPs to pUSD -->
  <!-- CDPs ends y=880, OUTCOME label at y=945 -->
  <g>
    <line x1="200" y1="885" x2="200" y2="918" stroke="#E8DCC4" stroke-width="2" opacity="0.85"/>
    <polygon points="200,928 194,916 206,916" fill="#E8DCC4" opacity="0.85"/>
    <rect x="212" y="895" width="32" height="16" rx="8" fill="#0d1f3c" stroke="rgba(232,220,196,0.25)" stroke-width="1"/>
    <text x="228" y="907" font-family="Inter, system-ui, sans-serif" font-size="9" fill="#E8DCC4" text-anchor="middle" font-weight="500">mint</text>
  </g>

  <!-- ==================== OUTCOME: pUSD + Yield ==================== -->
  <g transform="translate(200, 960)">
    <!-- Step Label -->
    <text x="0" y="-15" font-family="Inter, system-ui, sans-serif" font-size="12" font-weight="600" fill="#E8DCC4" text-anchor="middle" letter-spacing="0.15em">OUTCOME</text>
    <!-- Outer glow rings -->
    <circle cx="0" cy="42" r="50" fill="none" stroke="#E8DCC4" stroke-width="1" opacity="0.25"/>
    <circle cx="0" cy="42" r="54" fill="none" stroke="#E8DCC4" stroke-width="0.5" opacity="0.12"/>
    <!-- pUSD Circle -->
    <circle cx="0" cy="42" r="42" fill="url(#pusdCircleBg)" stroke="#E8DCC4" stroke-width="2.5" filter="url(#shadow)"/>
    <!-- Dollar Symbol -->
    <text x="0" y="58" font-family="'Cormorant Garamond', Georgia, serif" font-size="36" font-weight="500" fill="url(#pusdGradient)" text-anchor="middle" filter="url(#softGlow)">$</text>
    <!-- Small star -->
    <g filter="url(#softGlow)">
      <polygon points="0,18 1.3,22.5 6.6,22.5 2.4,25.8 3.8,30.4 0,27 -3.8,30.4 -2.4,25.8 -6.6,22.5 -1.3,22.5" fill="#F5F0E6" fill-opacity="0.85"/>
    </g>
    <!-- Label -->
    <text x="0" y="112" font-family="'Cormorant Garamond', Georgia, serif" font-size="16" font-weight="600" fill="#E8DCC4" text-anchor="middle">pUSD</text>

    <!-- Yield Badge -->
    <g transform="translate(0, 130)">
      <rect x="-50" y="0" width="100" height="26" rx="13" fill="#122a4d" stroke="#E8DCC4" stroke-width="1.5" filter="url(#shadowSmall)"/>
      <text x="0" y="17" font-family="Inter, system-ui, sans-serif" font-size="10" font-weight="600" fill="#E8DCC4" text-anchor="middle" letter-spacing="0.05em">Scalable Yield</text>
    </g>
  </g>

  <!-- Subtle divider before POLAR section -->
  <line x1="40" y1="1135" x2="360" y2="1135" stroke="rgba(232,220,196,0.06)" stroke-width="1"/>

  <!-- ==================== POLAR SECTION ==================== -->
  <g transform="translate(200, 1200)">
    <!-- POLAR Circle -->
    <circle cx="0" cy="42" r="50" fill="none" stroke="#9B8FCF" stroke-width="1" opacity="0.2"/>
    <circle cx="0" cy="42" r="42" fill="url(#polarCircleBg)" stroke="#9B8FCF" stroke-width="2" filter="url(#shadow)"/>

    <!-- POLAR Four-pointed star -->
    <g transform="translate(0, 42)">
      <circle cx="0" cy="0" r="22" fill="url(#polarEmblemGlow)"/>
      <path d="M-27,0 L-4.5,-2.5 L0,0 L-4.5,2.5 Z" fill="url(#polarStarLeft)"/>
      <path d="M27,0 L4.5,2.5 L0,0 L4.5,-2.5 Z" fill="url(#polarStarRight)"/>
      <path d="M0,-27 L2.5,-4.5 L0,0 L-2.5,-4.5 Z" fill="url(#polarStarTop)"/>
      <path d="M0,27 L2.5,4.5 L0,0 L-2.5,4.5 Z" fill="url(#polarStarBottom)"/>
      <circle cx="0" cy="0" r="3" fill="#B8A8DF" filter="url(#softGlow)"/>
    </g>

    <!-- Label -->
    <text x="0" y="112" font-family="'Cormorant Garamond', Georgia, serif" font-size="16" font-weight="500" fill="#E8DCC4" text-anchor="middle">POLAR</text>
    <text x="0" y="130" font-family="Inter, system-ui, sans-serif" font-size="11" fill="rgba(232,220,196,0.55)" text-anchor="middle" letter-spacing="0.05em">Stewardship</text>
  </g>

  <!-- POLAR Loop Arrows and Labels -->

  <!-- Right side: Arrow from pETH down to POLAR (burn pETH) -->
  <!-- pETH circle center at (200, 552), POLAR circle center at (200, 1242) -->
  <g opacity="0.75">
    <!-- Start dot at pETH right edge -->
    <circle cx="250" cy="552" r="4" fill="#9B8FCF"/>
    <!-- Path: right from pETH, down, then left toward POLAR -->
    <path d="M254 552 L320 552 L320 1242 L258 1242" stroke="#9B8FCF" stroke-width="1.5" fill="none" stroke-dasharray="5,3" stroke-linejoin="round"/>
    <!-- Arrowhead pointing left into POLAR -->
    <polygon points="250,1242 262,1236 262,1248" fill="#9B8FCF"/>
    <!-- Label along the vertical segment -->
    <rect x="325" y="885" width="55" height="18" rx="9" fill="#0d1f3c" stroke="rgba(155,143,207,0.3)" stroke-width="1"/>
    <text x="352" y="898" font-family="Inter, system-ui, sans-serif" font-size="9" fill="#9B8FCF" text-anchor="middle" font-weight="500">burn pETH</text>
  </g>

  <!-- Left side: Arrow from POLAR up to Bonding Curve (raise floor) -->
  <!-- POLAR circle center at (200, 1242), Bonding Curve card at x=120-280, y=260-430 -->
  <g opacity="0.75">
    <!-- Start dot at POLAR left edge -->
    <circle cx="150" cy="1242" r="4" fill="#9B8FCF"/>
    <!-- Path: left from POLAR, up, then right toward Bonding Curve left side -->
    <path d="M146 1242 L65 1242 L65 345 L112 345" stroke="#9B8FCF" stroke-width="1.5" fill="none" stroke-linejoin="round"/>
    <!-- Arrowhead pointing right into Bonding Curve -->
    <polygon points="120,345 108,339 108,351" fill="#9B8FCF"/>
    <!-- Label along the vertical segment -->
    <rect x="10" y="780" width="50" height="18" rx="9" fill="#0d1f3c" stroke="rgba(155,143,207,0.3)" stroke-width="1"/>
    <text x="35" y="793" font-family="Inter, system-ui, sans-serif" font-size="8" fill="#9B8FCF" text-anchor="middle" font-weight="500">raise floor</text>
  </g>

  <!-- Right side: Arrow from POLAR up to Yield badge (release ETH) -->
  <!-- Starts at same point where burn pETH connects to POLAR (y=1242) -->
  <g opacity="0.75">
    <!-- Start dot at POLAR right edge - same y as burn pETH connection point -->
    <circle cx="266" cy="1242" r="4" fill="#9B8FCF"/>
    <!-- Path: right, up, then left toward Yield badge right edge -->
    <path d="M270 1242 L295 1242 L295 1103 L258 1103" stroke="#9B8FCF" stroke-width="1.5" fill="none" stroke-dasharray="5,3" stroke-linejoin="round"/>
    <!-- Arrowhead pointing left into Yield -->
    <polygon points="250,1103 262,1097 262,1109" fill="#9B8FCF"/>
    <!-- Label - next to the arrow path -->
    <rect x="230" y="1148" width="55" height="18" rx="9" fill="#0d1f3c" stroke="rgba(155,143,207,0.3)" stroke-width="1"/>
    <text x="257" y="1161" font-family="Inter, system-ui, sans-serif" font-size="9" fill="#9B8FCF" text-anchor="middle" font-weight="500">release ETH</text>
  </g>

</svg>
