<svg xmlns="http://www.w3.org/2000/svg" viewBox="0 0 1200 680" fill="none">
  <defs>
    <!-- ========== Gradients ========== -->
    <linearGradient id="ethGradient" x1="0%" y1="0%" x2="100%" y2="100%">
      <stop offset="0%" style="stop-color:#7BA5C9"/>
      <stop offset="100%" style="stop-color:#5A84A8"/>
    </linearGradient>
    <linearGradient id="pethGradient" x1="0%" y1="0%" x2="100%" y2="100%">
      <stop offset="0%" style="stop-color:#9ECBEB"/>
      <stop offset="100%" style="stop-color:#7BA5C9"/>
    </linearGradient>
    <linearGradient id="pusdGradient" x1="0%" y1="0%" x2="100%" y2="100%">
      <stop offset="0%" style="stop-color:#F5F0E6"/>
      <stop offset="100%" style="stop-color:#E8DCC4"/>
    </linearGradient>
    <linearGradient id="pgoldGradient" x1="0%" y1="0%" x2="100%" y2="100%">
      <stop offset="0%" style="stop-color:#F5D76E"/>
      <stop offset="100%" style="stop-color:#D4A830"/>
    </linearGradient>
    <linearGradient id="pgoldDark" x1="0%" y1="0%" x2="100%" y2="100%">
      <stop offset="0%" style="stop-color:#C49A2A"/>
      <stop offset="100%" style="stop-color:#A67C1A"/>
    </linearGradient>
    <linearGradient id="pchfGradient" x1="0%" y1="0%" x2="100%" y2="100%">
      <stop offset="0%" style="stop-color:#F2E0E0"/>
      <stop offset="100%" style="stop-color:#D9B3B3"/>
    </linearGradient>
    <linearGradient id="curveGradient" x1="0%" y1="100%" x2="100%" y2="0%">
      <stop offset="0%" style="stop-color:#122a4d"/>
      <stop offset="100%" style="stop-color:#1a3a5c"/>
    </linearGradient>

    <!-- Radial gradients for token circle backgrounds -->
    <radialGradient id="ethCircleBg" cx="50%" cy="30%" r="70%">
      <stop offset="0%" style="stop-color:#142d4f"/>
      <stop offset="100%" style="stop-color:#0d1f3c"/>
    </radialGradient>
    <radialGradient id="pethCircleBg" cx="50%" cy="30%" r="70%">
      <stop offset="0%" style="stop-color:#0f2a4a"/>
      <stop offset="100%" style="stop-color:#0d1f3c"/>
    </radialGradient>
    <radialGradient id="pusdCircleBg" cx="50%" cy="30%" r="70%">
      <stop offset="0%" style="stop-color:#1a2f48"/>
      <stop offset="100%" style="stop-color:#0d1f3c"/>
    </radialGradient>
    <radialGradient id="pgoldCircleBg" cx="50%" cy="30%" r="70%">
      <stop offset="0%" style="stop-color:#1a2a3c"/>
      <stop offset="100%" style="stop-color:#0d1f3c"/>
    </radialGradient>
    <radialGradient id="pchfCircleBg" cx="50%" cy="30%" r="70%">
      <stop offset="0%" style="stop-color:#1a2838"/>
      <stop offset="100%" style="stop-color:#0d1f3c"/>
    </radialGradient>

    <!-- Bonding curve area gradients -->
    <linearGradient id="burnedAreaGradient" x1="0%" y1="0%" x2="100%" y2="100%">
      <stop offset="0%" style="stop-color:#9B8FCF"/>
      <stop offset="100%" style="stop-color:#7B6FAF"/>
    </linearGradient>
    <linearGradient id="availableAreaGradient" x1="0%" y1="100%" x2="100%" y2="0%">
      <stop offset="0%" style="stop-color:#5A84A8"/>
      <stop offset="100%" style="stop-color:#7BA5C9"/>
    </linearGradient>

    <!-- ========== Filters ========== -->
    <filter id="shadow" x="-30%" y="-30%" width="160%" height="160%">
      <feDropShadow dx="0" dy="6" stdDeviation="12" flood-color="#000000" flood-opacity="0.35"/>
    </filter>
    <filter id="shadowSmall" x="-20%" y="-20%" width="140%" height="140%">
      <feDropShadow dx="0" dy="3" stdDeviation="6" flood-color="#000000" flood-opacity="0.25"/>
    </filter>
    <filter id="softGlow" x="-50%" y="-50%" width="200%" height="200%">
      <feGaussianBlur stdDeviation="2" result="coloredBlur"/>
      <feMerge>
        <feMergeNode in="coloredBlur"/>
        <feMergeNode in="SourceGraphic"/>
      </feMerge>
    </filter>

    <!-- ========== Arrow Markers ========== -->
    <marker id="arrowCream" markerWidth="12" markerHeight="12" refX="10" refY="6" orient="auto" markerUnits="userSpaceOnUse">
      <path d="M2,2 L10,6 L2,10" fill="none" stroke="#E8DCC4" stroke-width="2" stroke-linecap="round" stroke-linejoin="round"/>
    </marker>
    <marker id="arrowBlue" markerWidth="12" markerHeight="12" refX="10" refY="6" orient="auto" markerUnits="userSpaceOnUse">
      <path d="M2,2 L10,6 L2,10" fill="none" stroke="#7BA5C9" stroke-width="2" stroke-linecap="round" stroke-linejoin="round"/>
    </marker>
    <marker id="arrowSlate" markerWidth="12" markerHeight="12" refX="10" refY="6" orient="auto" markerUnits="userSpaceOnUse">
      <path d="M2,2 L10,6 L2,10" fill="none" stroke="#627D92" stroke-width="2" stroke-linecap="round" stroke-linejoin="round"/>
    </marker>
    <marker id="arrowGold" markerWidth="12" markerHeight="12" refX="10" refY="6" orient="auto" markerUnits="userSpaceOnUse">
      <path d="M2,2 L10,6 L2,10" fill="none" stroke="#D4A830" stroke-width="2" stroke-linecap="round" stroke-linejoin="round"/>
    </marker>
    <marker id="arrowRose" markerWidth="12" markerHeight="12" refX="10" refY="6" orient="auto" markerUnits="userSpaceOnUse">
      <path d="M2,2 L10,6 L2,10" fill="none" stroke="#D9B3B3" stroke-width="2" stroke-linecap="round" stroke-linejoin="round"/>
    </marker>
  </defs>

  <!-- ========== Background ========== -->
  <rect width="1200" height="680" fill="#0a1628"/>
  <rect width="1200" height="680" fill="url(#curveGradient)" opacity="0.3"/>

  <!-- ========== Step Labels ========== -->
  <g font-family="Inter, system-ui, sans-serif" font-size="14" font-weight="600" fill="#E8DCC4" letter-spacing="0.15em">
    <text x="120" y="48" text-anchor="middle">STEP 1</text>
    <text x="380" y="48" text-anchor="middle">STEP 2</text>
    <text x="630" y="48" text-anchor="middle">STEP 3</text>
    <text x="870" y="48" text-anchor="middle">STEP 4</text>
    <text x="1100" y="48" text-anchor="middle">OUTCOME</text>
  </g>

  <!-- ==================== STEP 1: ETH (centered at y=340) ==================== -->
  <g transform="translate(70, 290)">
    <circle cx="50" cy="50" r="58" fill="none" stroke="#627D92" stroke-width="1" opacity="0.2"/>
    <circle cx="50" cy="50" r="50" fill="url(#ethCircleBg)" stroke="#627D92" stroke-width="2" filter="url(#shadow)"/>
    <g transform="translate(50, 50)">
      <polygon points="0,-26 17,0 0,10 -17,0" fill="#7BA5C9" opacity="0.95"/>
      <polygon points="0,10 17,0 0,26 -17,0" fill="#5A84A8" opacity="0.85"/>
      <polygon points="0,-26 8,-5 0,-8 -8,-5" fill="#9ECBEB" opacity="0.3"/>
    </g>
    <text x="50" y="125" font-family="'Cormorant Garamond', Georgia, serif" font-size="18" font-weight="500" fill="#E8DCC4" text-anchor="middle">ETH</text>
    <text x="50" y="148" font-family="Inter, system-ui, sans-serif" font-size="12" fill="rgba(232,220,196,0.55)" text-anchor="middle" letter-spacing="0.05em">Swap</text>
  </g>

  <!-- Arrow 1: ETH → Bonding Curve -->
  <g>
    <line x1="183" y1="340" x2="275" y2="340" stroke="#627D92" stroke-width="2" stroke-dasharray="8,5" marker-end="url(#arrowSlate)" opacity="0.85"/>
  </g>

  <!-- ==================== STEP 2: BONDING CURVE (centered at y=340) ==================== -->
  <g transform="translate(280, 240)">
    <rect x="0" y="0" width="200" height="200" rx="24" fill="#0d1f3c" stroke="rgba(232,220,196,0.12)" stroke-width="1" filter="url(#shadow)"/>
    <rect x="4" y="4" width="192" height="192" rx="22" fill="none" stroke="rgba(232,220,196,0.03)" stroke-width="1"/>
    <g transform="translate(40, 30)">
      <rect x="0" y="0" width="120" height="100" fill="#122a4d" stroke="rgba(232,220,196,0.15)" stroke-width="1" rx="6"/>
      <line x1="0" y1="50" x2="120" y2="50" stroke="rgba(232,220,196,0.05)" stroke-width="1"/>
      <line x1="60" y1="0" x2="60" y2="100" stroke="rgba(232,220,196,0.05)" stroke-width="1"/>
      <path d="M0,100 L0,100 C0,55 12,35 30,22 L30,100 Z" fill="url(#burnedAreaGradient)" opacity="0.35"/>
      <path d="M30,22 C45,14 60,8 80,4 C95,2 110,0 120,0 L120,100 L30,100 Z" fill="url(#availableAreaGradient)" opacity="0.25"/>
      <path d="M0,100 C0,55 12,35 30,22 C45,14 60,8 80,4 C95,2 110,0 120,0" stroke="#E8DCC4" stroke-width="2.5" fill="none" filter="url(#softGlow)"/>
      <line x1="30" y1="22" x2="30" y2="100" stroke="#E8DCC4" stroke-width="1.5" stroke-dasharray="4,3" opacity="0.5"/>
      <circle cx="30" cy="22" r="3" fill="#E8DCC4" opacity="0.8"/>
    </g>
    <text x="100" y="162" font-family="'Cormorant Garamond', Georgia, serif" font-size="16" font-weight="500" fill="#E8DCC4" text-anchor="middle">Bonding Curve</text>
    <text x="100" y="182" font-family="Inter, system-ui, sans-serif" font-size="11" fill="rgba(232,220,196,0.55)" text-anchor="middle" letter-spacing="0.03em">Capture volatility</text>
  </g>

  <!-- Arrow 2: Bonding Curve → pETH -->
  <g>
    <line x1="485" y1="340" x2="567" y2="340" stroke="#7BA5C9" stroke-width="2" marker-end="url(#arrowBlue)" opacity="0.85"/>
    <rect x="504" y="310" width="44" height="18" rx="9" fill="#0d1f3c" stroke="rgba(123,165,201,0.3)" stroke-width="1"/>
    <text x="526" y="323" font-family="Inter, system-ui, sans-serif" font-size="10" fill="#7BA5C9" text-anchor="middle" font-weight="500">issue</text>
  </g>

  <!-- ==================== STEP 3: pETH (centered at y=340) ==================== -->
  <g transform="translate(580, 290)">
    <circle cx="50" cy="50" r="58" fill="none" stroke="#7BA5C9" stroke-width="1" opacity="0.2"/>
    <circle cx="50" cy="50" r="50" fill="url(#pethCircleBg)" stroke="#7BA5C9" stroke-width="2" filter="url(#shadow)"/>
    <g filter="url(#softGlow)">
      <polygon points="50,22 51.6,27.5 57.9,27.5 52.9,31.6 54.6,37.2 50,33.0 45.4,37.2 47.1,31.6 42.1,27.5 48.4,27.5" fill="#9ECBEB" fill-opacity="0.8"/>
    </g>
    <g transform="translate(50, 58)">
      <polygon points="0,-22 17,0 0,8 -17,0" fill="#9ECBEB" opacity="0.9"/>
      <polygon points="0,8 17,0 0,24 -17,0" fill="#7BA5C9" opacity="0.8"/>
      <polygon points="0,-22 8,-4 0,-6 -8,-4" fill="#B8D4F0" opacity="0.3"/>
    </g>
    <text x="50" y="125" font-family="'Cormorant Garamond', Georgia, serif" font-size="18" font-weight="500" fill="#E8DCC4" text-anchor="middle">pETH</text>
    <text x="50" y="148" font-family="Inter, system-ui, sans-serif" font-size="12" fill="rgba(232,220,196,0.55)" text-anchor="middle" letter-spacing="0.05em">Collateral</text>
  </g>

  <!-- ==================== FORK from pETH to 3 CDPs ==================== -->

  <!-- Fork arm: up to Row 1 (pUSD, y=140) -->
  <line x1="693" y1="340" x2="775" y2="140" stroke="#7BA5C9" stroke-width="2" marker-end="url(#arrowBlue)" opacity="0.7"/>
  <rect x="709" y="224" width="50" height="18" rx="9" fill="#0d1f3c" stroke="rgba(123,165,201,0.3)" stroke-width="1"/>
  <text x="734" y="237" font-family="Inter, system-ui, sans-serif" font-size="10" fill="#7BA5C9" text-anchor="middle" font-weight="500">deposit</text>

  <!-- Fork arm: straight to Row 2 (pGOLD, y=340) -->
  <line x1="693" y1="340" x2="775" y2="340" stroke="#7BA5C9" stroke-width="2" marker-end="url(#arrowBlue)" opacity="0.7"/>
  <rect x="709" y="310" width="50" height="18" rx="9" fill="#0d1f3c" stroke="rgba(123,165,201,0.3)" stroke-width="1"/>
  <text x="734" y="323" font-family="Inter, system-ui, sans-serif" font-size="10" fill="#7BA5C9" text-anchor="middle" font-weight="500">deposit</text>

  <!-- Fork arm: down to Row 3 (pCHF, y=540) -->
  <line x1="693" y1="340" x2="775" y2="540" stroke="#7BA5C9" stroke-width="2" marker-end="url(#arrowBlue)" opacity="0.7"/>
  <rect x="709" y="438" width="50" height="18" rx="9" fill="#0d1f3c" stroke="rgba(123,165,201,0.3)" stroke-width="1"/>
  <text x="734" y="451" font-family="Inter, system-ui, sans-serif" font-size="10" fill="#7BA5C9" text-anchor="middle" font-weight="500">deposit</text>

  <!-- ==================== ROW 1: CDPs → pUSD (centered at y=140) ==================== -->
  <g transform="translate(780, 50)">
    <rect x="0" y="0" width="180" height="190" rx="24" fill="#0d1f3c" stroke="rgba(232,220,196,0.12)" stroke-width="1" filter="url(#shadow)"/>
    <rect x="4" y="4" width="172" height="182" rx="22" fill="none" stroke="rgba(232,220,196,0.03)" stroke-width="1"/>
    <g transform="translate(90, 65)">
      <rect x="-70" y="-40" width="140" height="85" rx="10" fill="#122a4d" stroke="rgba(232,220,196,0.08)" stroke-width="1"/>
      <g transform="translate(-52, 2)">
        <rect x="0" y="-28" width="9" height="46" rx="3" fill="#7BA5C9" opacity="0.75" filter="url(#shadowSmall)"/>
        <rect x="0" y="-28" width="9" height="14" rx="3" fill="#9ECBEB" opacity="0.3"/>
        <rect x="11" y="-16" width="9" height="34" rx="3" fill="#E8DCC4" opacity="0.75" filter="url(#shadowSmall)"/>
        <rect x="11" y="-16" width="9" height="10" rx="3" fill="#F5F0E6" opacity="0.3"/>
      </g>
      <g transform="translate(-22, 2)">
        <rect x="0" y="-18" width="9" height="36" rx="3" fill="#7BA5C9" opacity="0.75" filter="url(#shadowSmall)"/>
        <rect x="0" y="-18" width="9" height="11" rx="3" fill="#9ECBEB" opacity="0.3"/>
        <rect x="11" y="-6" width="9" height="24" rx="3" fill="#E8DCC4" opacity="0.75" filter="url(#shadowSmall)"/>
        <rect x="11" y="-6" width="9" height="8" rx="3" fill="#F5F0E6" opacity="0.3"/>
      </g>
      <g transform="translate(8, 2)">
        <rect x="0" y="-10" width="9" height="28" rx="3" fill="#7BA5C9" opacity="0.75" filter="url(#shadowSmall)"/>
        <rect x="0" y="-10" width="9" height="9" rx="3" fill="#9ECBEB" opacity="0.3"/>
        <rect x="11" y="0" width="9" height="18" rx="3" fill="#E8DCC4" opacity="0.75" filter="url(#shadowSmall)"/>
        <rect x="11" y="0" width="9" height="6" rx="3" fill="#F5F0E6" opacity="0.3"/>
      </g>
      <g transform="translate(38, 2)">
        <rect x="0" y="-23" width="9" height="41" rx="3" fill="#7BA5C9" opacity="0.75" filter="url(#shadowSmall)"/>
        <rect x="0" y="-23" width="9" height="12" rx="3" fill="#9ECBEB" opacity="0.3"/>
        <rect x="11" y="-10" width="9" height="28" rx="3" fill="#E8DCC4" opacity="0.75" filter="url(#shadowSmall)"/>
        <rect x="11" y="-10" width="9" height="9" rx="3" fill="#F5F0E6" opacity="0.3"/>
      </g>
      <rect x="-52" y="45" width="34" height="14" rx="7" fill="rgba(123,165,201,0.1)"/>
      <text x="-35" y="55" font-family="Inter, system-ui, sans-serif" font-size="9" fill="#7BA5C9" text-anchor="middle" font-weight="500">pETH</text>
      <rect x="18" y="45" width="34" height="14" rx="7" fill="rgba(232,220,196,0.1)"/>
      <text x="35" y="55" font-family="Inter, system-ui, sans-serif" font-size="9" fill="#E8DCC4" text-anchor="middle" font-weight="500">pUSD</text>
    </g>
    <text x="90" y="152" font-family="'Cormorant Garamond', Georgia, serif" font-size="16" font-weight="500" fill="#E8DCC4" text-anchor="middle">CDPs</text>
    <text x="90" y="172" font-family="Inter, system-ui, sans-serif" font-size="11" fill="rgba(232,220,196,0.55)" text-anchor="middle" letter-spacing="0.03em">Borrow pUSD</text>
  </g>

  <!-- Arrow: CDPs → pUSD -->
  <g>
    <line x1="965" y1="140" x2="1033" y2="140" stroke="#E8DCC4" stroke-width="2" marker-end="url(#arrowCream)" opacity="0.85"/>
    <rect x="983" y="110" width="32" height="18" rx="9" fill="#0d1f3c" stroke="rgba(232,220,196,0.25)" stroke-width="1"/>
    <text x="999" y="123" font-family="Inter, system-ui, sans-serif" font-size="10" fill="#E8DCC4" text-anchor="middle" font-weight="500">mint</text>
  </g>

  <!-- pUSD Outcome -->
  <g transform="translate(1050, 90)">
    <circle cx="50" cy="50" r="58" fill="none" stroke="#E8DCC4" stroke-width="1" opacity="0.25"/>
    <circle cx="50" cy="50" r="62" fill="none" stroke="#E8DCC4" stroke-width="0.5" opacity="0.12"/>
    <circle cx="50" cy="50" r="50" fill="url(#pusdCircleBg)" stroke="#E8DCC4" stroke-width="2.5" filter="url(#shadow)"/>
    <text x="50" y="70" font-family="'Cormorant Garamond', Georgia, serif" font-size="43" font-weight="500" fill="url(#pusdGradient)" text-anchor="middle" filter="url(#softGlow)">$</text>
    <g filter="url(#softGlow)">
      <polygon points="50,22 51.6,27.5 57.9,27.5 52.9,31.6 54.6,37.2 50,33.0 45.4,37.2 47.1,31.6 42.1,27.5 48.4,27.5" fill="#F5F0E6" fill-opacity="0.85"/>
    </g>
    <text x="50" y="125" font-family="'Cormorant Garamond', Georgia, serif" font-size="18" font-weight="600" fill="#E8DCC4" text-anchor="middle">pUSD</text>
  </g>

  <!-- ==================== ROW 2: CDPs → pGOLD (centered at y=340) ==================== -->
  <g transform="translate(780, 250)">
    <rect x="0" y="0" width="180" height="190" rx="24" fill="#0d1f3c" stroke="rgba(212,168,48,0.12)" stroke-width="1" filter="url(#shadow)"/>
    <rect x="4" y="4" width="172" height="182" rx="22" fill="none" stroke="rgba(212,168,48,0.03)" stroke-width="1"/>
    <g transform="translate(90, 65)">
      <rect x="-70" y="-40" width="140" height="85" rx="10" fill="#122a4d" stroke="rgba(212,168,48,0.08)" stroke-width="1"/>
      <g transform="translate(-52, 2)">
        <rect x="0" y="-28" width="9" height="46" rx="3" fill="#7BA5C9" opacity="0.75" filter="url(#shadowSmall)"/>
        <rect x="0" y="-28" width="9" height="14" rx="3" fill="#9ECBEB" opacity="0.3"/>
        <rect x="11" y="-16" width="9" height="34" rx="3" fill="#D4A830" opacity="0.75" filter="url(#shadowSmall)"/>
        <rect x="11" y="-16" width="9" height="10" rx="3" fill="#F5D76E" opacity="0.3"/>
      </g>
      <g transform="translate(-22, 2)">
        <rect x="0" y="-18" width="9" height="36" rx="3" fill="#7BA5C9" opacity="0.75" filter="url(#shadowSmall)"/>
        <rect x="0" y="-18" width="9" height="11" rx="3" fill="#9ECBEB" opacity="0.3"/>
        <rect x="11" y="-6" width="9" height="24" rx="3" fill="#D4A830" opacity="0.75" filter="url(#shadowSmall)"/>
        <rect x="11" y="-6" width="9" height="8" rx="3" fill="#F5D76E" opacity="0.3"/>
      </g>
      <g transform="translate(8, 2)">
        <rect x="0" y="-10" width="9" height="28" rx="3" fill="#7BA5C9" opacity="0.75" filter="url(#shadowSmall)"/>
        <rect x="0" y="-10" width="9" height="9" rx="3" fill="#9ECBEB" opacity="0.3"/>
        <rect x="11" y="0" width="9" height="18" rx="3" fill="#D4A830" opacity="0.75" filter="url(#shadowSmall)"/>
        <rect x="11" y="0" width="9" height="6" rx="3" fill="#F5D76E" opacity="0.3"/>
      </g>
      <g transform="translate(38, 2)">
        <rect x="0" y="-23" width="9" height="41" rx="3" fill="#7BA5C9" opacity="0.75" filter="url(#shadowSmall)"/>
        <rect x="0" y="-23" width="9" height="12" rx="3" fill="#9ECBEB" opacity="0.3"/>
        <rect x="11" y="-10" width="9" height="28" rx="3" fill="#D4A830" opacity="0.75" filter="url(#shadowSmall)"/>
        <rect x="11" y="-10" width="9" height="9" rx="3" fill="#F5D76E" opacity="0.3"/>
      </g>
      <rect x="-52" y="45" width="34" height="14" rx="7" fill="rgba(123,165,201,0.1)"/>
      <text x="-35" y="55" font-family="Inter, system-ui, sans-serif" font-size="9" fill="#7BA5C9" text-anchor="middle" font-weight="500">pETH</text>
      <rect x="14" y="45" width="44" height="14" rx="7" fill="rgba(212,168,48,0.1)"/>
      <text x="36" y="55" font-family="Inter, system-ui, sans-serif" font-size="9" fill="#D4A830" text-anchor="middle" font-weight="500">pGOLD</text>
    </g>
    <text x="90" y="152" font-family="'Cormorant Garamond', Georgia, serif" font-size="16" font-weight="500" fill="#E8DCC4" text-anchor="middle">CDPs</text>
    <text x="90" y="172" font-family="Inter, system-ui, sans-serif" font-size="11" fill="rgba(232,220,196,0.55)" text-anchor="middle" letter-spacing="0.03em">Borrow pGOLD</text>
  </g>

  <!-- Arrow: CDPs → pGOLD -->
  <g>
    <line x1="965" y1="340" x2="1033" y2="340" stroke="#D4A830" stroke-width="2" marker-end="url(#arrowGold)" opacity="0.85"/>
    <rect x="983" y="310" width="32" height="18" rx="9" fill="#0d1f3c" stroke="rgba(212,168,48,0.25)" stroke-width="1"/>
    <text x="999" y="323" font-family="Inter, system-ui, sans-serif" font-size="10" fill="#D4A830" text-anchor="middle" font-weight="500">mint</text>
  </g>

  <!-- pGOLD Outcome -->
  <g transform="translate(1050, 290)">
    <circle cx="50" cy="50" r="58" fill="none" stroke="#D4A830" stroke-width="1" opacity="0.25"/>
    <circle cx="50" cy="50" r="62" fill="none" stroke="#D4A830" stroke-width="0.5" opacity="0.12"/>
    <circle cx="50" cy="50" r="50" fill="url(#pgoldCircleBg)" stroke="#D4A830" stroke-width="2.5" filter="url(#shadow)"/>
    <g filter="url(#softGlow)">
      <polygon points="50,22 51.6,27.5 57.9,27.5 52.9,31.6 54.6,37.2 50,33.0 45.4,37.2 47.1,31.6 42.1,27.5 48.4,27.5" fill="#F5D76E" fill-opacity="0.85"/>
    </g>
    <!-- Gold bars -->
    <g transform="translate(50, 56)">
      <polygon points="-11,2 11,2 11,8 -11,8" fill="url(#pgoldDark)"/>
      <polygon points="-11,2 -8,-2 12,-2 11,2" fill="url(#pgoldGradient)"/>
      <polygon points="11,2 12,-2 12,4 11,8" fill="#A67C1A" fill-opacity="0.7"/>
      <polygon points="-7,-4 7,-4 7,2 -7,2" fill="url(#pgoldDark)"/>
      <polygon points="-7,-4 -4,-8 10,-8 7,-4" fill="url(#pgoldGradient)"/>
      <polygon points="7,-4 10,-8 10,-2 7,2" fill="#A67C1A" fill-opacity="0.7"/>
    </g>
    <text x="50" y="125" font-family="'Cormorant Garamond', Georgia, serif" font-size="18" font-weight="600" fill="#E8DCC4" text-anchor="middle">pGOLD</text>
  </g>

  <!-- ==================== ROW 3: CDPs → pCHF (centered at y=540) ==================== -->
  <g transform="translate(780, 450)">
    <rect x="0" y="0" width="180" height="190" rx="24" fill="#0d1f3c" stroke="rgba(217,179,179,0.12)" stroke-width="1" filter="url(#shadow)"/>
    <rect x="4" y="4" width="172" height="182" rx="22" fill="none" stroke="rgba(217,179,179,0.03)" stroke-width="1"/>
    <g transform="translate(90, 65)">
      <rect x="-70" y="-40" width="140" height="85" rx="10" fill="#122a4d" stroke="rgba(217,179,179,0.08)" stroke-width="1"/>
      <g transform="translate(-52, 2)">
        <rect x="0" y="-28" width="9" height="46" rx="3" fill="#7BA5C9" opacity="0.75" filter="url(#shadowSmall)"/>
        <rect x="0" y="-28" width="9" height="14" rx="3" fill="#9ECBEB" opacity="0.3"/>
        <rect x="11" y="-16" width="9" height="34" rx="3" fill="#D9B3B3" opacity="0.75" filter="url(#shadowSmall)"/>
        <rect x="11" y="-16" width="9" height="10" rx="3" fill="#F2E0E0" opacity="0.3"/>
      </g>
      <g transform="translate(-22, 2)">
        <rect x="0" y="-18" width="9" height="36" rx="3" fill="#7BA5C9" opacity="0.75" filter="url(#shadowSmall)"/>
        <rect x="0" y="-18" width="9" height="11" rx="3" fill="#9ECBEB" opacity="0.3"/>
        <rect x="11" y="-6" width="9" height="24" rx="3" fill="#D9B3B3" opacity="0.75" filter="url(#shadowSmall)"/>
        <rect x="11" y="-6" width="9" height="8" rx="3" fill="#F2E0E0" opacity="0.3"/>
      </g>
      <g transform="translate(8, 2)">
        <rect x="0" y="-10" width="9" height="28" rx="3" fill="#7BA5C9" opacity="0.75" filter="url(#shadowSmall)"/>
        <rect x="0" y="-10" width="9" height="9" rx="3" fill="#9ECBEB" opacity="0.3"/>
        <rect x="11" y="0" width="9" height="18" rx="3" fill="#D9B3B3" opacity="0.75" filter="url(#shadowSmall)"/>
        <rect x="11" y="0" width="9" height="6" rx="3" fill="#F2E0E0" opacity="0.3"/>
      </g>
      <g transform="translate(38, 2)">
        <rect x="0" y="-23" width="9" height="41" rx="3" fill="#7BA5C9" opacity="0.75" filter="url(#shadowSmall)"/>
        <rect x="0" y="-23" width="9" height="12" rx="3" fill="#9ECBEB" opacity="0.3"/>
        <rect x="11" y="-10" width="9" height="28" rx="3" fill="#D9B3B3" opacity="0.75" filter="url(#shadowSmall)"/>
        <rect x="11" y="-10" width="9" height="9" rx="3" fill="#F2E0E0" opacity="0.3"/>
      </g>
      <rect x="-52" y="45" width="34" height="14" rx="7" fill="rgba(123,165,201,0.1)"/>
      <text x="-35" y="55" font-family="Inter, system-ui, sans-serif" font-size="9" fill="#7BA5C9" text-anchor="middle" font-weight="500">pETH</text>
      <rect x="18" y="45" width="34" height="14" rx="7" fill="rgba(217,179,179,0.1)"/>
      <text x="35" y="55" font-family="Inter, system-ui, sans-serif" font-size="9" fill="#D9B3B3" text-anchor="middle" font-weight="500">pCHF</text>
    </g>
    <text x="90" y="152" font-family="'Cormorant Garamond', Georgia, serif" font-size="16" font-weight="500" fill="#E8DCC4" text-anchor="middle">CDPs</text>
    <text x="90" y="172" font-family="Inter, system-ui, sans-serif" font-size="11" fill="rgba(232,220,196,0.55)" text-anchor="middle" letter-spacing="0.03em">Borrow pCHF</text>
  </g>

  <!-- Arrow: CDPs → pCHF -->
  <g>
    <line x1="965" y1="540" x2="1033" y2="540" stroke="#D9B3B3" stroke-width="2" marker-end="url(#arrowRose)" opacity="0.85"/>
    <rect x="983" y="510" width="32" height="18" rx="9" fill="#0d1f3c" stroke="rgba(217,179,179,0.25)" stroke-width="1"/>
    <text x="999" y="523" font-family="Inter, system-ui, sans-serif" font-size="10" fill="#D9B3B3" text-anchor="middle" font-weight="500">mint</text>
  </g>

  <!-- pCHF Outcome -->
  <g transform="translate(1050, 490)">
    <circle cx="50" cy="50" r="58" fill="none" stroke="#D9B3B3" stroke-width="1" opacity="0.25"/>
    <circle cx="50" cy="50" r="62" fill="none" stroke="#D9B3B3" stroke-width="0.5" opacity="0.12"/>
    <circle cx="50" cy="50" r="50" fill="url(#pchfCircleBg)" stroke="#D9B3B3" stroke-width="2.5" filter="url(#shadow)"/>
    <g filter="url(#softGlow)">
      <polygon points="50,22 51.6,27.5 57.9,27.5 52.9,31.6 54.6,37.2 50,33.0 45.4,37.2 47.1,31.6 42.1,27.5 48.4,27.5" fill="#F2E0E0" fill-opacity="0.85"/>
    </g>
    <text x="50" y="72" font-family="'Cormorant Garamond', Georgia, serif" font-size="43" font-weight="500" fill="url(#pchfGradient)" text-anchor="middle" filter="url(#softGlow)">&#x20A3;</text>
    <text x="50" y="125" font-family="'Cormorant Garamond', Georgia, serif" font-size="18" font-weight="600" fill="#E8DCC4" text-anchor="middle">pCHF</text>
  </g>

</svg>
