<svg xmlns="http://www.w3.org/2000/svg" viewBox="0 0 1500 900" fill="none">
  <defs>
    <style>
      @import url('https://fonts.googleapis.com/css2?family=Cormorant+Garamond:wght@400;500;600&amp;family=Inter:wght@400;500;600&amp;display=swap');
    </style>

    <!-- Background gradient -->
    <radialGradient id="bgGradient" cx="50%" cy="42%" r="65%">
      <stop offset="0%" style="stop-color:#0d1f3c"/>
      <stop offset="100%" style="stop-color:#050a14"/>
    </radialGradient>

    <!-- Token circle background -->
    <radialGradient id="tokenBg" cx="50%" cy="30%" r="70%">
      <stop offset="0%" style="stop-color:#1a3a5c"/>
      <stop offset="100%" style="stop-color:#0d1f3c"/>
    </radialGradient>

    <!-- pETH gradients -->
    <linearGradient id="pethGradient" x1="0%" y1="0%" x2="100%" y2="100%">
      <stop offset="0%" style="stop-color:#9ECBEB"/>
      <stop offset="100%" style="stop-color:#7BA5C9"/>
    </linearGradient>
    <linearGradient id="pethDark" x1="0%" y1="0%" x2="100%" y2="100%">
      <stop offset="0%" style="stop-color:#6B95B9"/>
      <stop offset="100%" style="stop-color:#5A84A8"/>
    </linearGradient>

    <!-- Polaris emblem gradients (cream) -->
    <radialGradient id="polarisGlow" cx="50%" cy="50%" r="50%">
      <stop offset="0%" style="stop-color:#E8DCC4;stop-opacity:0.28"/>
      <stop offset="100%" style="stop-color:#E8DCC4;stop-opacity:0"/>
    </radialGradient>
    <linearGradient id="polarisLeft" x1="0" y1="0.5" x2="0.5" y2="0.5">
      <stop offset="0%" style="stop-color:#E8DCC4;stop-opacity:0"/>
      <stop offset="46%" style="stop-color:#E8DCC4"/>
    </linearGradient>
    <linearGradient id="polarisRight" x1="1" y1="0.5" x2="0.5" y2="0.5">
      <stop offset="0%" style="stop-color:#E8DCC4;stop-opacity:0"/>
      <stop offset="46%" style="stop-color:#E8DCC4"/>
    </linearGradient>
    <linearGradient id="polarisTop" x1="0.5" y1="0" x2="0.5" y2="0.5">
      <stop offset="0%" style="stop-color:#E8DCC4;stop-opacity:0"/>
      <stop offset="46%" style="stop-color:#E8DCC4"/>
    </linearGradient>
    <linearGradient id="polarisBottom" x1="0.5" y1="1" x2="0.5" y2="0.5">
      <stop offset="0%" style="stop-color:#E8DCC4;stop-opacity:0"/>
      <stop offset="46%" style="stop-color:#E8DCC4"/>
    </linearGradient>

    <!-- POLAR token gradients (purple) -->
    <linearGradient id="polarTokenLeft" x1="0" y1="0.5" x2="0.5" y2="0.5">
      <stop offset="0%" style="stop-color:#9B8FCF;stop-opacity:0"/>
      <stop offset="46%" style="stop-color:#B8A8DF"/>
    </linearGradient>
    <linearGradient id="polarTokenRight" x1="1" y1="0.5" x2="0.5" y2="0.5">
      <stop offset="0%" style="stop-color:#9B8FCF;stop-opacity:0"/>
      <stop offset="46%" style="stop-color:#B8A8DF"/>
    </linearGradient>
    <linearGradient id="polarTokenTop" x1="0.5" y1="0" x2="0.5" y2="0.5">
      <stop offset="0%" style="stop-color:#9B8FCF;stop-opacity:0"/>
      <stop offset="46%" style="stop-color:#B8A8DF"/>
    </linearGradient>
    <linearGradient id="polarTokenBottom" x1="0.5" y1="1" x2="0.5" y2="0.5">
      <stop offset="0%" style="stop-color:#9B8FCF;stop-opacity:0"/>
      <stop offset="46%" style="stop-color:#B8A8DF"/>
    </linearGradient>

    <!-- Burn glow gradient -->
    <radialGradient id="burnGlow" cx="50%" cy="60%" r="50%">
      <stop offset="0%" style="stop-color:#D4A830;stop-opacity:0.12"/>
      <stop offset="60%" style="stop-color:#D4A830;stop-opacity:0.04"/>
      <stop offset="100%" style="stop-color:#D4A830;stop-opacity:0"/>
    </radialGradient>

    <!-- ETH circle bg (for the ETH Released card) -->
    <radialGradient id="ethCircleBg" cx="50%" cy="30%" r="70%">
      <stop offset="0%" style="stop-color:#142d4f"/>
      <stop offset="100%" style="stop-color:#0d1f3c"/>
    </radialGradient>

    <!-- Filters -->
    <filter id="shadow" x="-20%" y="-20%" width="140%" height="140%">
      <feDropShadow dx="0" dy="4" stdDeviation="10" flood-color="#000" flood-opacity="0.45"/>
    </filter>
    <filter id="softGlow" x="-50%" y="-50%" width="200%" height="200%">
      <feGaussianBlur stdDeviation="3" result="blur"/>
      <feMerge>
        <feMergeNode in="blur"/>
        <feMergeNode in="SourceGraphic"/>
      </feMerge>
    </filter>
    <filter id="tokenGlow" x="-50%" y="-50%" width="200%" height="200%">
      <feGaussianBlur stdDeviation="12" result="blur"/>
      <feColorMatrix in="blur" type="matrix" values="1 0 0 0 0  0 1 0 0 0  0 0 1 0 0  0 0 0 0.3 0"/>
      <feMerge>
        <feMergeNode/>
        <feMergeNode in="SourceGraphic"/>
      </feMerge>
    </filter>
    <filter id="burnFilter" x="-40%" y="-40%" width="180%" height="180%">
      <feGaussianBlur stdDeviation="6" result="blur"/>
      <feColorMatrix in="blur" type="matrix" values="1 0 0 0 0  0 0.8 0 0 0  0 0 0.4 0 0  0 0 0 0.5 0"/>
      <feMerge>
        <feMergeNode/>
        <feMergeNode in="SourceGraphic"/>
      </feMerge>
    </filter>

    <!-- Arrow markers (chevron style) -->
    <marker id="arrowBlue" markerWidth="12" markerHeight="12" refX="10" refY="6" orient="auto" markerUnits="userSpaceOnUse">
      <path d="M2,2 L10,6 L2,10" fill="none" stroke="#9ECBEB" stroke-width="2" stroke-linecap="round" stroke-linejoin="round"/>
    </marker>
    <marker id="arrowPurple" markerWidth="12" markerHeight="12" refX="10" refY="6" orient="auto" markerUnits="userSpaceOnUse">
      <path d="M2,2 L10,6 L2,10" fill="none" stroke="#B8A8DF" stroke-width="2" stroke-linecap="round" stroke-linejoin="round"/>
    </marker>
    <marker id="arrowCream" markerWidth="12" markerHeight="12" refX="10" refY="6" orient="auto" markerUnits="userSpaceOnUse">
      <path d="M2,2 L10,6 L2,10" fill="none" stroke="#E8DCC4" stroke-width="2" stroke-linecap="round" stroke-linejoin="round"/>
    </marker>
    <marker id="arrowSteelBlue" markerWidth="12" markerHeight="12" refX="10" refY="6" orient="auto" markerUnits="userSpaceOnUse">
      <path d="M2,2 L10,6 L2,10" fill="none" stroke="#7BA5C9" stroke-width="2" stroke-linecap="round" stroke-linejoin="round"/>
    </marker>
    <marker id="arrowGold" markerWidth="12" markerHeight="12" refX="10" refY="6" orient="auto" markerUnits="userSpaceOnUse">
      <path d="M2,2 L10,6 L2,10" fill="none" stroke="#F5D76E" stroke-width="2" stroke-linecap="round" stroke-linejoin="round"/>
    </marker>
    <marker id="arrowBurn" markerWidth="12" markerHeight="12" refX="10" refY="6" orient="auto" markerUnits="userSpaceOnUse">
      <path d="M2,2 L10,6 L2,10" fill="none" stroke="#D4A830" stroke-width="2" stroke-linecap="round" stroke-linejoin="round"/>
    </marker>
  </defs>

  <!-- ========== BACKGROUND ========== -->
  <rect width="1500" height="900" fill="url(#bgGradient)"/>

  <g transform="translate(-53, 0)">

  <!-- ========== STARFIELD ========== -->
  <g fill="#E8DCC4">
    <polygon points="160,85 161.2,88 164.5,88 161.8,90.5 163,94 160,91.5 157,94 158.2,90.5 155.5,88 158.8,88" opacity="0.26"/>
    <polygon points="1340,110 1341.2,113 1344.5,113 1341.8,115.5 1343,119 1340,116.5 1337,119 1338.2,115.5 1335.5,113 1338.8,113" opacity="0.22"/>
    <polygon points="80,520 81.2,523 84.5,523 81.8,525.5 83,529 80,526.5 77,529 78.2,525.5 75.5,523 78.8,523" opacity="0.2"/>
    <polygon points="1440,260 1441.2,263 1444.5,263 1441.8,265.5 1443,269 1440,266.5 1437,269 1438.2,265.5 1435.5,263 1438.8,263" opacity="0.24"/>
    <polygon points="420,50 421.2,53 424.5,53 421.8,55.5 423,59 420,56.5 417,59 418.2,55.5 415.5,53 418.8,53" opacity="0.25"/>
    <polygon points="1460,700 1461.2,703 1464.5,703 1461.8,705.5 1463,709 1460,706.5 1457,709 1458.2,705.5 1455.5,703 1458.8,703" opacity="0.18"/>
    <polygon points="50,780 51.2,783 54.5,783 51.8,785.5 53,789 50,786.5 47,789 48.2,785.5 45.5,783 48.8,783" opacity="0.16"/>
    <polygon points="1080,55 1081.2,58 1084.5,58 1081.8,60.5 1083,64 1080,61.5 1077,64 1078.2,60.5 1075.5,58 1078.8,58" opacity="0.22"/>
    <polygon points="150,340 151,342 154,342 151.5,344 152.5,347 150,345 147.5,347 148.5,344 146,342 149,342" opacity="0.16"/>
    <polygon points="1390,470 1391,472 1394,472 1391.5,474 1392.5,477 1390,475 1387.5,477 1388.5,474 1386,472 1389,472" opacity="0.18"/>
    <polygon points="320,860 321,862 324,862 321.5,864 322.5,867 320,865 317.5,867 318.5,864 316,862 319,862" opacity="0.12"/>
    <polygon points="1200,860 1201,862 1204,862 1201.5,864 1202.5,867 1200,865 1197.5,867 1198.5,864 1196,862 1199,862" opacity="0.14"/>
    <polygon points="680,35 681,37 684,37 681.5,39 682.5,42 680,40 677.5,42 678.5,39 676,37 679,37" opacity="0.2"/>
    <polygon points="1100,850 1101,852 1104,852 1101.5,854 1102.5,857 1100,855 1097.5,857 1098.5,854 1096,852 1099,852" opacity="0.12"/>
    <circle cx="130" cy="140" r="1.2" opacity="0.16"/>
    <circle cx="1370" cy="75" r="1" opacity="0.14"/>
    <circle cx="75" cy="420" r="1.3" opacity="0.11"/>
    <circle cx="1430" cy="380" r="1.1" opacity="0.13"/>
    <circle cx="200" cy="680" r="1" opacity="0.09"/>
    <circle cx="1320" cy="620" r="1.2" opacity="0.12"/>
    <circle cx="370" cy="160" r="0.9" opacity="0.14"/>
    <circle cx="1150" cy="130" r="1.1" opacity="0.13"/>
    <circle cx="500" cy="870" r="1" opacity="0.1"/>
    <circle cx="980" cy="880" r="1.2" opacity="0.11"/>
    <circle cx="620" cy="60" r="1.1" opacity="0.14"/>
    <circle cx="780" cy="48" r="1" opacity="0.12"/>
    <circle cx="25" cy="600" r="1" opacity="0.08"/>
    <circle cx="1475" cy="160" r="1.2" opacity="0.13"/>
    <circle cx="240" cy="240" r="0.8" opacity="0.11"/>
    <circle cx="1280" cy="180" r="1" opacity="0.1"/>
    <circle cx="460" cy="35" r="1" opacity="0.14"/>
    <circle cx="1040" cy="30" r="1.2" opacity="0.12"/>
    <circle cx="305" cy="550" r="0.9" opacity="0.09"/>
    <circle cx="1195" cy="540" r="1.1" opacity="0.11"/>
    <circle cx="1450" cy="840" r="1" opacity="0.1"/>
  </g>

  <!-- ========== TITLE ========== -->
  <text x="750" y="72" font-family="'Cormorant Garamond', Georgia, serif" font-size="56" font-weight="500" fill="#F5F0E6" text-anchor="middle" letter-spacing="0.05em">The Conversion Mechanism</text>
  <text x="750" y="108" font-family="'Inter', Arial, sans-serif" font-size="22" font-weight="400" fill="#E8DCC4" fill-opacity="0.5" text-anchor="middle">Every POLAR in circulation required someone to burn pETH to create it</text>

  <!-- ========== ARBITRAGEUR CARD (top-left) ========== -->
  <g transform="translate(210, 150)">
    <rect x="0" y="0" width="150" height="90" rx="16" fill="#0d1f3c" stroke="#E8DCC4" stroke-width="1" stroke-opacity="0.1" filter="url(#shadow)"/>
    <!-- Arbitrage icon -->
    <g transform="translate(57, 8) scale(0.07)">
      <path d="M0 0 C0.68191406 0.39058594 1.36382812 0.78117188 2.06640625 1.18359375 C2.69675781 1.52261719 3.32710938 1.86164062 3.9765625 2.2109375 C12.18087156 7.27777452 15.92733255 15.16633633 18.06640625 24.18359375 C19.11408047 24.18082837 20.16175468 24.17806299 21.24117661 24.17521381 C46.71211496 24.10866863 72.18304206 24.05934191 97.65404892 24.02815723 C109.97154578 24.01267643 122.28898527 23.99156371 134.60644531 23.95727539 C145.34007373 23.92741021 156.07366061 23.90802758 166.80732942 23.90132827 C172.49277782 23.89741113 178.17810738 23.88818008 183.86351776 23.86640358 C189.21174992 23.84608397 194.55981396 23.83975079 199.90808105 23.84427071 C201.87373009 23.84344348 203.83938458 23.83745099 205.80500031 23.82597733 C208.48379497 23.81110404 211.16195056 23.8146212 213.84075928 23.8228302 C215.01391241 23.80972241 215.01391241 23.80972241 216.2107656 23.79634982 C219.37499691 23.82265239 221.70910199 23.9996114 224.54535294 25.46004772 C226.63149933 27.82391578 226.59477594 30.07911561 226.6953125 33.1484375 C225.71453698 36.32225146 223.78462774 37.36969468 221.06640625 39.18359375 C218.07341003 39.70257568 218.07341003 39.70257568 214.71557617 39.72949219 C213.45464645 39.74921082 212.19371674 39.76892944 210.89457703 39.78924561 C209.5286768 39.7909085 208.16277599 39.79213951 206.796875 39.79296875 C205.39152628 39.80795772 203.98619514 39.82468638 202.58088684 39.84307861 C198.89347505 39.88668499 195.20630084 39.90673595 191.51867676 39.92181396 C187.75124095 39.94140959 183.98406082 39.98337671 180.21679688 40.0234375 C172.83340218 40.09866661 165.45011505 40.1490018 158.06640625 40.18359375 C158.26224808 40.69896698 158.4580899 41.21434021 158.65986633 41.74533081 C158.9400914 42.4827652 159.22031647 43.22019958 159.5090332 43.97998047 C159.82885162 44.82160736 160.14867004 45.66323425 160.47817993 46.53036499 C161.21066426 48.45795641 161.94314711 50.38554839 162.67562866 52.31314087 C164.77370884 57.83442448 166.87181698 63.35569746 168.9699707 68.87695312 C173.31255714 80.30448036 177.65481061 91.73213383 181.99609375 103.16015625 C183.58197694 107.33465605 185.16792114 111.50913267 186.75390625 115.68359375 C187.14723145 116.71888214 187.54055664 117.75417053 187.94580078 118.8208313 C192.41009354 130.57083063 196.8758421 142.32026829 201.35609436 154.06419373 C203.01772314 158.42026833 204.67582695 162.7776022 206.32495117 167.13842773 C209.20388803 174.74197291 212.10691154 182.33067684 215.14726257 189.87141418 C216.48656806 193.20010162 217.80466219 196.53699865 219.12094116 199.87484741 C219.73682656 201.41950096 220.36283564 202.96016846 221.00039673 204.4960022 C227.49930219 220.16166926 228.28766442 235.08706224 222.06640625 251.18359375 C218.25983277 260.28701963 213.75822503 268.86399956 207.06640625 276.18359375 C206.26589844 277.075625 205.46539062 277.96765625 204.640625 278.88671875 C195.17853294 288.9102374 184.10700618 295.67741786 171.06640625 300.18359375 C169.68195313 300.663125 169.68195313 300.663125 168.26953125 301.15234375 C147.29316383 307.14559158 124.59347683 303.58630126 105.6953125 293.3203125 C100.68904379 290.45680472 96.31250575 287.07957627 92.06640625 283.18359375 C91.31101562 282.51972656 90.555625 281.85585938 89.77734375 281.171875 C75.11112405 267.5388426 66.33588213 247.88798868 65.56640625 227.94140625 C65.48553167 217.88783676 69.10683698 209.47324799 72.87890625 200.30859375 C73.60545964 198.48361414 74.32892864 196.65740405 75.04956055 194.83007812 C76.58256172 190.94791864 78.12746497 187.07080029 79.6796875 183.19628906 C83.30325699 174.11259194 86.74235074 164.95866869 90.19726562 155.80984497 C92.18821728 150.54241008 94.19046228 145.27927026 96.19140625 140.015625 C97.00134323 137.88364193 97.81123895 135.75164319 98.62109375 133.61962891 C101.08106372 127.14448887 103.54240387 120.66987012 106.00390625 114.1953125 C107.23540144 110.95573652 108.46687202 107.7161512 109.69833374 104.4765625 C110.45786155 102.47864212 111.21747759 100.48075527 111.97720337 98.48291016 C119.36359937 79.05858868 126.71204164 59.62012879 134.06640625 40.18359375 C95.78640625 39.85359375 57.50640625 39.52359375 18.06640625 39.18359375 C16.58140625 43.63859375 16.58140625 43.63859375 15.06640625 48.18359375 C13.56640625 50.70703125 13.56640625 50.70703125 12.06640625 52.55859375 C11.57140625 53.18507812 11.07640625 53.8115625 10.56640625 54.45703125 C9.06640625 56.18359375 9.06640625 56.18359375 7.49757671 57.51032734 C5.64397977 59.67747765 5.68394466 60.85541887 5.66767883 63.68241882 C5.65514069 64.60368561 5.64260254 65.52495239 5.62968445 66.47413635 C5.63111954 67.48258102 5.63255463 68.4910257 5.6340332 69.5300293 C5.62384155 70.59360657 5.6136499 71.65718384 5.60314941 72.75299072 C5.57290709 76.27548412 5.56373614 79.79770609 5.5546875 83.3203125 C5.53784918 85.75984102 5.51970011 88.19936082 5.50028992 90.63887024 C5.452692 97.065168 5.42294589 103.49143042 5.39685059 109.91784668 C5.36709449 116.47329695 5.3205472 123.0286253 5.27539062 129.58398438 C5.18924607 142.45045465 5.1213804 155.31695449 5.06640625 168.18359375 C6.16210938 168.15394531 7.2578125 168.12429687 8.38671875 168.09375 C12.58205398 168.19618387 15.08786287 169.20505037 18.06640625 172.18359375 C18.16301577 174.10721002 18.18827793 176.03442441 18.18666077 177.96046448 C18.18872276 179.8430899 18.18872276 179.8430899 18.19082642 181.76374817 C18.1872868 183.16745019 18.18365199 184.57115197 18.17993164 185.97485352 C18.17964978 187.44296263 18.17980749 188.91107188 18.18037415 190.37918091 C18.18066215 194.37694032 18.17476499 198.37466999 18.16780019 202.37242246 C18.1615671 206.54580108 18.16096289 210.71918031 18.15977478 214.89256287 C18.15666133 222.80092167 18.14844776 230.70926672 18.13842529 238.61761945 C18.12726457 247.61867869 18.12175381 256.61973857 18.11672986 265.620803 C18.10626516 284.14174106 18.08866545 302.6626663 18.06640625 321.18359375 C19.24237869 321.64650063 19.24237869 321.64650063 20.44210815 322.11875916 C22.74228149 323.05207696 24.80318121 324.07572069 26.94921875 325.3125 C27.64144531 325.70759766 28.33367187 326.10269531 29.046875 326.50976562 C29.75457031 326.91775391 30.46226562 327.32574219 31.19140625 327.74609375 C32.60927928 328.56232876 34.02849937 329.3762294 35.44921875 330.1875 C36.07199707 330.54658447 36.69477539 330.90566895 37.33642578 331.27563477 C42.66751584 334.07359186 48.42229291 333.80111404 54.06640625 332.18359375 C55.05640625 331.85359375 56.04640625 331.52359375 57.06640625 331.18359375 C57.00839844 330.48234375 56.95039063 329.78109375 56.890625 329.05859375 C56.60536278 323.05993672 57.03013432 319.01791666 60.2890625 313.9375 C65.09031345 309.19956225 70.90278251 307.35163378 77.31640625 305.93359375 C78.4307605 305.68210571 78.4307605 305.68210571 79.56762695 305.42553711 C86.67314395 303.91079213 93.34634898 302.99036783 100.37890625 305.24609375 C106.45334785 309.62534235 109.10545398 313.43500871 110.97558594 320.80395508 C111.142906 321.45758183 111.31022606 322.11120859 111.48261642 322.78464222 C112.02262395 324.91482821 112.54709538 327.04827212 113.06640625 329.18359375 C113.23876297 329.89176113 113.41111969 330.59992851 113.58869934 331.32955551 C114.89047375 336.71464541 116.14748285 342.10982341 117.39453125 347.5078125 C117.58944908 348.35065104 117.78436691 349.19348957 117.98519135 350.06186867 C119.01305183 354.50995278 120.03717235 358.95888042 121.05859375 363.40844727 C121.89698535 367.05732089 122.74300328 370.70429749 123.59570312 374.34985352 C124.63646711 378.7995144 125.66420739 383.25199863 126.68288422 387.70676613 C127.06915935 389.38649129 127.45980121 391.06521918 127.85514069 392.74283409 C133.41217156 416.36859074 133.41217156 416.36859074 129.00390625 424.68359375 C125.30206753 430.36722491 118.86207035 432.52422282 112.55761719 433.95874023 C111.79739258 434.11544189 111.03716797 434.27214355 110.25390625 434.43359375 C109.46145508 434.60125244 108.66900391 434.76891113 107.85253906 434.94165039 C99.57033234 436.61013673 92.57324581 437.83068491 85.06640625 433.18359375 C84.42703125 432.72984375 83.78765625 432.27609375 83.12890625 431.80859375 C80.31559468 430.95607509 78.22863686 431.43666064 75.59765625 432.6796875 C72.77257189 435.45432392 73.00372797 439.32279521 72.57421875 443.1015625 C71.5962409 449.03713575 68.70002582 452.79856846 64.19140625 456.62109375 C60.75043821 458.34157777 57.88376522 458.87820503 54.06640625 459.18359375 C54.14890625 460.17359375 54.23140625 461.16359375 54.31640625 462.18359375 C54.27864005 466.85716124 52.81282243 470.42534003 50.06640625 474.18359375 C44.57393774 479.2892687 40.24116679 481.3279029 32.69140625 481.37109375 C31.56992187 481.38527344 30.4484375 481.39945312 29.29296875 481.4140625 C26.11755783 481.18724743 23.92405907 480.53750043 21.06640625 479.18359375 C20.64230469 479.72628906 20.21820313 480.26898438 19.78125 480.828125 C15.23583273 486.37253507 11.66364718 489.68196111 4.23828125 490.4921875 C-3.24693764 490.80250436 -8.79687422 489.75391647 -14.53125 484.8046875 C-15.71551132 483.64681641 -16.8332459 482.42148508 -17.93359375 481.18359375 C-18.58714844 481.88935547 -18.58714844 481.88935547 -19.25390625 482.609375 C-19.84945312 483.23199219 -20.445 483.85460937 -21.05859375 484.49609375 C-21.63867188 485.11097656 -22.21875 485.72585938 -22.81640625 486.359375 C-27.479568 490.37726529 -31.71274582 491.62928776 -37.80859375 491.68359375 C-39.53722656 491.73 -39.53722656 491.73 -41.30078125 491.77734375 C-51.78355656 490.06402994 -58.86600137 480.56596037 -65.93359375 473.30859375 C-68.20054864 470.99486449 -70.47190504 468.68552468 -72.74609375 466.37890625 C-73.29446899 465.82189529 -73.84284424 465.26488434 -74.40783691 464.69099426 C-77.75339676 461.31297702 -81.19952143 458.13985094 -84.82421875 455.06152344 C-89.91376147 450.53041666 -94.63537576 445.58210983 -99.43359375 440.74609375 C-100.55315007 439.62151045 -101.67294004 438.4971597 -102.79296875 437.37304688 C-105.50920909 434.64590031 -108.22227667 431.91563468 -110.93359375 429.18359375 C-113.436816 430.36877116 -115.31244868 431.48852576 -117.49609375 433.24609375 C-122.46040552 437.19208516 -127.87626444 436.67231009 -133.93359375 436.18359375 C-144.59112789 434.60802079 -154.94972411 432.37567422 -161.99609375 423.62109375 C-165.37630877 411.22697202 -161.35233439 398.40579454 -158.515625 386.2890625 C-158.05596962 384.28675054 -157.59713719 382.28424949 -157.13908386 380.28157043 C-156.18069231 376.10648547 -155.21208204 371.93394249 -154.23608398 367.76293945 C-152.99000253 362.43374886 -151.77040461 357.09890351 -150.55843067 351.76186657 C-149.61779848 347.63368391 -148.6629213 343.50889634 -147.70380211 339.38497353 C-147.2484825 337.41932538 -146.79759644 335.45264449 -146.35135841 333.48491478 C-145.72501934 330.73267763 -145.07949487 327.98561682 -144.42895508 325.23901367 C-144.16137138 324.03641655 -144.16137138 324.03641655 -143.88838196 322.80952454 C-142.42930192 316.7854963 -140.15272171 310.62419514 -135.06101704 306.76388836 C-125.86911212 301.29260183 -114.81574463 304.5789586 -105.10546875 306.9921875 C-100.21464409 308.3166956 -96.78377329 309.79543575 -92.93359375 313.18359375 C-91.61359375 315.82359375 -90.29359375 318.46359375 -88.93359375 321.18359375 C-69.62859375 321.67859375 -69.62859375 321.67859375 -49.93359375 322.18359375 C-49.95715942 315.39124146 -49.95715942 315.39124146 -49.98120117 308.46166992 C-50.0308259 293.52990662 -50.06416683 278.59814014 -50.08903027 263.66631603 C-50.10451083 254.60977671 -50.12562301 245.55331542 -50.15991211 236.49682617 C-50.18977813 228.60481777 -50.20916009 220.71286585 -50.21585923 212.82080251 C-50.21977626 208.64052134 -50.22900634 204.4604018 -50.25078392 200.28017235 C-50.27110498 196.34776563 -50.2774365 192.41558756 -50.27291679 188.48313332 C-50.27374397 187.03791691 -50.27973579 185.59269307 -50.29121017 184.14752197 C-50.30608393 182.17804966 -50.30077175 180.20845541 -50.2943573 178.23893738 C-50.29712268 177.13555118 -50.29988806 176.03216497 -50.30273724 174.89534283 C-49.93359375 172.18359375 -49.93359375 172.18359375 -48.70401478 170.34810352 C-46.49069225 168.89227145 -44.87727078 168.68675875 -42.24609375 168.49609375 C-41.03373047 168.39748047 -41.03373047 168.39748047 -39.796875 168.296875 C-39.18199219 168.25949219 -38.56710938 168.22210938 -37.93359375 168.18359375 C-37.90062228 153.97935188 -37.90819436 139.77562281 -37.96205997 125.57143402 C-37.98589676 118.97552343 -37.99686541 112.38011798 -37.97827148 105.78417969 C-37.96079746 99.41665819 -37.97732721 93.05004357 -38.01727104 86.68263245 C-38.02655341 84.25543277 -38.02365658 81.82815448 -38.00828743 79.40098572 C-37.98882367 75.99613229 -38.01296093 72.59413333 -38.04711914 69.18945312 C-38.03130295 68.18963409 -38.01548676 67.18981506 -37.99919128 66.15969849 C-38.12480045 59.63748981 -39.6109179 56.39257291 -44.28130245 51.80835724 C-46.27651996 49.84638082 -47.33530081 47.89577434 -48.37109375 45.30859375 C-48.67917969 44.56867187 -48.98726562 43.82875 -49.3046875 43.06640625 C-49.93359375 41.18359375 -49.93359375 41.18359375 -49.93359375 39.18359375 C-88.21359375 39.51359375 -126.49359375 39.84359375 -165.93359375 40.18359375 C-151.42503602 79.03957122 -151.42503602 79.03957122 -136.63415527 117.78820801 C-129.62820395 135.91359795 -122.749664 154.08713178 -115.87133789 172.26123047 C-115.2049807 174.02051376 -115.2049807 174.02051376 -114.52516174 175.81533813 C-113.64337047 178.14458322 -112.76285283 180.4743109 -111.88365173 182.80453491 C-109.6562718 188.69574389 -107.39430957 194.57020153 -105.07226562 200.42480469 C-104.37965385 202.18373299 -104.37965385 202.18373299 -103.67304993 203.97819519 C-102.79855096 206.19431662 -101.91548723 208.40708586 -101.0221405 210.61567688 C-97.68435598 219.10239215 -96.46601716 226.04548351 -97.93359375 235.18359375 C-98.03510742 235.8290918 -98.13662109 236.47458984 -98.24121094 237.13964844 C-100.79347861 252.15341788 -107.64902771 265.97479328 -117.93359375 277.18359375 C-118.59746094 277.93898438 -119.26132813 278.694375 -119.9453125 279.47265625 C-133.08662868 293.60989473 -152.29479977 302.73764754 -171.59765625 303.51953125 C-193.66970313 303.85729378 -214.16254566 299.51624903 -230.93359375 284.18359375 C-231.825625 283.38308594 -232.71765625 282.58257812 -233.63671875 281.7578125 C-248.2609881 267.95266206 -257.50643075 249.03471717 -258.5703125 228.84765625 C-258.73790702 216.51808633 -253.44749739 205.48934163 -248.93359375 194.24609375 C-248.00961052 191.88286324 -247.08850746 189.51850477 -246.17016602 187.15307617 C-244.31725234 182.39022162 -242.45040743 177.63324149 -240.57080078 172.88085938 C-237.24114042 164.44929765 -234.02542229 155.97585158 -230.81851196 147.49703979 C-229.22155247 143.28146796 -227.61204517 139.07069177 -226.00390625 134.859375 C-221.81630603 123.88499465 -217.64637864 112.90391328 -213.47625732 101.92288208 C-205.65672005 81.33233919 -197.81028359 60.75233694 -189.93359375 40.18359375 C-190.7139801 40.1755069 -191.49436646 40.16742004 -192.29840088 40.15908813 C-199.6553744 40.08112432 -207.01215009 39.9938284 -214.36888504 39.89606667 C-218.15099677 39.84613591 -221.93308101 39.79980572 -225.71533203 39.76171875 C-229.36590422 39.72482504 -233.0162446 39.67845425 -236.66661835 39.62553024 C-238.0588143 39.60700795 -239.4510599 39.59189197 -240.84333038 39.58024979 C-242.79441582 39.56335107 -244.74537262 39.53318204 -246.69628906 39.50244141 C-247.80659485 39.48911774 -248.91690063 39.47579407 -250.06085205 39.46206665 C-252.89887286 39.18695946 -254.56973448 38.74531073 -256.93359375 37.18359375 C-258.4881968 34.07438766 -258.66080068 30.55276347 -257.93359375 27.18359375 C-255.42328576 24.52684242 -253.937186 24.18395427 -250.25545883 23.81445026 C-248.73967127 23.80185033 -247.22369209 23.80589459 -245.70794678 23.8228302 C-244.45325321 23.81898529 -244.45325321 23.81898529 -243.17321229 23.8150627 C-240.36625624 23.8101155 -237.55983631 23.82663314 -234.75292969 23.84301758 C-232.74251315 23.84386365 -230.73209568 23.8433891 -228.72167969 23.84169006 C-223.25919994 23.8408279 -217.79691707 23.85848949 -212.33448315 23.87941194 C-206.62764161 23.8981419 -200.92079576 23.89992627 -195.21392822 23.90348816 C-184.4050646 23.91281945 -173.59629179 23.93744793 -162.78746819 23.96753663 C-150.48290648 24.0010469 -138.17834046 24.01755816 -125.87374449 24.03262293 C-100.56031052 24.0639965 -75.24695722 24.11677809 -49.93359375 24.18359375 C-49.73411636 23.49344177 -49.53463898 22.80328979 -49.32911682 22.09222412 C-49.06396774 21.18877258 -48.79881866 20.28532104 -48.52563477 19.35449219 C-48.13360619 18.00988922 -48.13360619 18.00988922 -47.73365784 16.63812256 C-45.19803155 8.85903601 -39.26679322 4.24581901 -32.36328125 0.375 C-31.56148437 -0.01816406 -30.7596875 -0.41132813 -29.93359375 -0.81640625 C-29.17691406 -1.19152344 -28.42023438 -1.56664062 -27.640625 -1.953125 C-19.18650507 -4.6491719 -7.93329024 -3.87939235 0 0 Z M-32.30859375 19.62109375 C-35.72393011 25.00681647 -36.3638265 29.41784623 -35.51953125 35.65625 C-34.29204785 40.95079504 -32.13069317 44.63203385 -27.66015625 47.7890625 C-22.24555146 50.76293005 -18.06197334 52.07319724 -11.93359375 51.18359375 C-5.71819576 49.18242394 -1.53810259 45.57262992 2.06640625 40.18359375 C4.58480596 35.14679433 4.35684439 30.55106831 3.06640625 25.18359375 C0.86009657 19.61320794 -2.64748084 16.15526149 -7.73046875 13.10546875 C-17.17878918 9.15191623 -25.658585 12.79608477 -32.30859375 19.62109375 Z" fill="#E8DCC4" fill-opacity="0.6" transform="translate(271.93359375,11.81640625)"/>
    </g>
    <text x="75" y="74" font-family="'Inter', Arial, sans-serif" font-size="18" font-weight="500" fill="#E8DCC4" fill-opacity="0.9" text-anchor="middle">Arbitrageur</text>
  </g>

  <!-- ========== FLOW ARROW: Arbitrageur → pETH (BUY, vertical) ========== -->
  <line x1="285" y1="240" x2="285" y2="328" stroke="#F5D76E" stroke-width="2" opacity="0.7" marker-end="url(#arrowGold)"/>
  <!-- Pill label on arrow -->
  <rect x="259" y="270" width="52" height="28" rx="14" fill="#0a1628" stroke="#F5D76E" stroke-width="1" stroke-opacity="0.15"/>
  <text x="285" y="289" font-family="'Inter', Arial, sans-serif" font-size="18" font-weight="500" fill="#F5D76E" fill-opacity="0.8" text-anchor="middle">BUY</text>

  <!-- ========== pETH TOKEN ========== -->
  <g transform="translate(285, 390)" filter="url(#tokenGlow)">
    <circle cx="0" cy="0" r="62" fill="none" stroke="#7BA5C9" stroke-width="0.5" opacity="0.12"/>
    <circle cx="0" cy="0" r="58" fill="none" stroke="#9ECBEB" stroke-width="1" opacity="0.2"/>
    <circle cx="0" cy="0" r="50" fill="url(#tokenBg)" stroke="#7BA5C9" stroke-width="1.5" filter="url(#shadow)"/>
    <!-- Polaris star -->
    <polygon points="0,-28 1.4,-23 6.6,-23 2.4,-19.4 4,-14 0,-18 -4,-14 -2.4,-19.4 -6.6,-23 -1.4,-23" fill="#9ECBEB" fill-opacity="0.8" filter="url(#softGlow)"/>
    <!-- pETH diamond -->
    <g transform="translate(0, 8)">
      <polygon points="0,-18 14,0 0,7 -14,0" fill="url(#pethGradient)"/>
      <polygon points="0,7 14,0 0,20 -14,0" fill="url(#pethDark)"/>
      <polygon points="0,-18 6,-3 0,-5 -6,-3" fill="#B8D4F0" opacity="0.3"/>
    </g>
  </g>
  <text x="285" y="472" font-family="'Cormorant Garamond', Georgia, serif" font-size="30" font-weight="500" fill="#E8DCC4" text-anchor="middle">pETH</text>

  <!-- ========== ARROW: pETH → Market Price Rises (downward) ========== -->
  <line x1="285" y1="490" x2="285" y2="565" stroke="#F5D76E" stroke-width="2" opacity="0.5" marker-end="url(#arrowGold)"/>

  <!-- ========== MARKET PRICE RISES CARD (below pETH) ========== -->
  <g transform="translate(170, 565)">
    <rect x="0" y="0" width="230" height="68" rx="16" fill="#1a1f0f" stroke="#F5D76E" stroke-width="1" stroke-opacity="0.2" filter="url(#shadow)"/>
    <!-- Upward arrow icon -->
    <g transform="translate(26, 35)">
      <path d="M0,-12 L8,2 L3,2 L3,10 L-3,10 L-3,2 L-8,2 Z" fill="#E8DCC4" opacity="0.6"/>
    </g>
    <text x="44" y="36" font-family="'Inter', Arial, sans-serif" font-size="20" font-weight="500" fill="#E8DCC4" fill-opacity="0.9" dominant-baseline="middle">Market Price Rises</text>
  </g>

  <!-- ========== FLOW ARROW: pETH → Conversion (BURN) ========== -->
  <path d="M350,390 C420,390 510,390 620,390" fill="none" stroke="#D4A830" stroke-width="2" opacity="0.7" marker-end="url(#arrowBurn)"/>
  <!-- Pill label on arrow -->
  <rect x="450" y="374" width="70" height="28" rx="14" fill="#0a1628" stroke="#D4A830" stroke-width="1" stroke-opacity="0.15"/>
  <text x="485" y="393" font-family="'Inter', Arial, sans-serif" font-size="18" font-weight="500" fill="#D4A830" fill-opacity="0.8" text-anchor="middle">BURN</text>

  <!-- ========== CONVERSION CARD (center) ========== -->
  <g>
    <!-- Card -->
    <rect x="630" y="290" width="340" height="200" rx="24" fill="#0d1f3c" stroke="#E8DCC4" stroke-width="1" stroke-opacity="0.1" filter="url(#shadow)"/>
    <rect x="634" y="294" width="332" height="192" rx="20" fill="none" stroke="#E8DCC4" stroke-width="1" stroke-opacity="0.03"/>

    <!-- Warm burn glow behind emblem -->
    <ellipse cx="800" cy="370" rx="110" ry="70" fill="url(#burnGlow)"/>

    <!-- Polaris emblem (four-pointed star, ~90px span) -->
    <g transform="translate(800, 370)">
      <circle cx="0" cy="0" r="45" fill="url(#polarisGlow)"/>
      <path d="M-45,0 L-4.5,-4 L0,0 L-4.5,4 Z" fill="url(#polarisLeft)"/>
      <path d="M45,0 L4.5,-4 L0,0 L4.5,4 Z" fill="url(#polarisRight)"/>
      <path d="M0,-45 L4,-4.5 L0,0 L-4,-4.5 Z" fill="url(#polarisTop)"/>
      <path d="M0,45 L4,4.5 L0,0 L-4,4.5 Z" fill="url(#polarisBottom)"/>
      <circle cx="0" cy="0" r="5" fill="#E8DCC4" filter="url(#softGlow)"/>
    </g>

    <!-- CONVERSION label -->
    <text x="800" y="445" font-family="'Inter', Arial, sans-serif" font-size="22" font-weight="600" fill="#E8DCC4" fill-opacity="0.9" text-anchor="middle" letter-spacing="0.2em">CONVERSION</text>
  </g>

  <!-- ========== THREE OUTPUT ARROWS (straight lines) ========== -->

  <!-- Arrow → POLAR (diagonal up-right) -->
  <line x1="970" y1="345" x2="1235" y2="217" stroke="#B8A8DF" stroke-width="2" opacity="0.6" marker-end="url(#arrowPurple)"/>

  <!-- Arrow → Floor Price (pure horizontal) -->
  <line x1="970" y1="390" x2="1195" y2="390" stroke="#F5D76E" stroke-width="2" opacity="0.5" marker-end="url(#arrowGold)"/>

  <!-- Arrow → ETH Released (diagonal down to top-center of card) -->
  <line x1="970" y1="435" x2="1235" y2="565" stroke="#7BA5C9" stroke-width="2" opacity="0.6" marker-end="url(#arrowSteelBlue)"/>

  <!-- ========== POLAR TOKEN (top-right) ========== -->
  <g transform="translate(1280, 195)" filter="url(#tokenGlow)">
    <circle cx="0" cy="0" r="62" fill="none" stroke="#9B8FCF" stroke-width="0.5" opacity="0.12"/>
    <circle cx="0" cy="0" r="58" fill="none" stroke="#9B8FCF" stroke-width="1" opacity="0.2"/>
    <circle cx="0" cy="0" r="50" fill="url(#tokenBg)" stroke="#9B8FCF" stroke-width="1.5" filter="url(#shadow)"/>
    <!-- POLAR four-pointed star -->
    <path d="M-28,0 L-3,-2.2 L0,0 L-3,2.2 Z" fill="url(#polarTokenLeft)"/>
    <path d="M28,0 L3,-2.2 L0,0 L3,2.2 Z" fill="url(#polarTokenRight)"/>
    <path d="M0,-28 L2.2,-3 L0,0 L-2.2,-3 Z" fill="url(#polarTokenTop)"/>
    <path d="M0,28 L2.2,3 L0,0 L-2.2,3 Z" fill="url(#polarTokenBottom)"/>
    <circle cx="0" cy="0" r="3" fill="#B8A8DF"/>
  </g>
  <text x="1280" y="278" font-family="'Cormorant Garamond', Georgia, serif" font-size="30" font-weight="500" fill="#E8DCC4" text-anchor="middle">POLAR</text>
  <text x="1280" y="302" font-family="'Inter', Arial, sans-serif" font-size="18" font-weight="400" fill="#B8A8DF" fill-opacity="0.6" text-anchor="middle">Minted</text>

  <!-- ========== FLOOR PRICE CARD (middle-right, centered at y=390) ========== -->
  <g transform="translate(1205, 356)">
    <rect x="0" y="0" width="220" height="68" rx="16" fill="#1a1f0f" stroke="#F5D76E" stroke-width="1" stroke-opacity="0.2" filter="url(#shadow)"/>
    <!-- Upward arrow icon -->
    <g transform="translate(26, 35)">
      <path d="M0,-12 L8,2 L3,2 L3,10 L-3,10 L-3,2 L-8,2 Z" fill="#E8DCC4" opacity="0.6"/>
    </g>
    <text x="44" y="36" font-family="'Inter', Arial, sans-serif" font-size="20" font-weight="500" fill="#E8DCC4" fill-opacity="0.9" dominant-baseline="middle">Floor Price Rises</text>
  </g>

  <!-- ========== ETH RELEASED CARD (bottom-right) ========== -->
  <g transform="translate(1137, 565)">
    <rect x="0" y="0" width="196" height="68" rx="16" fill="#0d1f3c" stroke="#7BA5C9" stroke-width="1" stroke-opacity="0.1" filter="url(#shadow)"/>
    <!-- ETH diamond icon -->
    <g transform="translate(28, 34)">
      <polygon points="0,-14 10,0 0,5 -10,0" fill="#7BA5C9" opacity="0.85"/>
      <polygon points="0,5 10,0 0,14 -10,0" fill="#5A84A8" opacity="0.75"/>
      <polygon points="0,-14 4,-2 0,-4 -4,-2" fill="#9ECBEB" opacity="0.3"/>
    </g>
    <text x="52" y="34" font-family="'Inter', Arial, sans-serif" font-size="20" font-weight="500" fill="#9ECBEB" fill-opacity="0.9" dominant-baseline="middle">ETH Released</text>
  </g>

  <!-- ========== CONVERTER REBATE CARD (below ETH Released) ========== -->
  <line x1="1285" y1="633" x2="1310" y2="718" stroke="#7BA5C9" stroke-width="1.5" opacity="0.5" marker-end="url(#arrowSteelBlue)"/>
  <g transform="translate(1200, 726)">
    <rect x="0" y="0" width="220" height="68" rx="14" fill="#0d1f3c" stroke="#7BA5C9" stroke-width="1" stroke-opacity="0.12" filter="url(#shadow)"/>
    <!-- Return arrow icon -->
    <g transform="translate(33, 34)">
      <path d="M4,-5 L-4,-5 L-4,-8 L-10,0 L-4,8 L-4,5 L4,5 Z" fill="#9ECBEB" opacity="0.5" transform="scale(0.8)"/>
    </g>
    <text x="57" y="28" font-family="'Inter', Arial, sans-serif" font-size="19" font-weight="500" fill="#9ECBEB" fill-opacity="0.9">Converter Rebate</text>
    <text x="57" y="50" font-family="'Inter', Arial, sans-serif" font-size="18" font-weight="400" fill="#9ECBEB" fill-opacity="0.4">Direct ETH return</text>
  </g>

  <!-- ========== BUY ARROW: ETH Released → pETH ========== -->
  <line x1="1195" y1="633" x2="997" y2="760" stroke="#F5D76E" stroke-width="2" opacity="0.7" marker-end="url(#arrowGold)"/>
  <!-- Pill label on arrow -->
  <rect x="1060" y="683" width="52" height="28" rx="14" fill="#0a1628" stroke="#F5D76E" stroke-width="1" stroke-opacity="0.15"/>
  <text x="1086" y="702" font-family="'Inter', Arial, sans-serif" font-size="18" font-weight="500" fill="#F5D76E" fill-opacity="0.8" text-anchor="middle">BUY</text>

  <!-- ========== pETH TOKEN (second, below ETH Released) ========== -->
  <g transform="translate(935, 760)" filter="url(#tokenGlow)">
    <circle cx="0" cy="0" r="62" fill="none" stroke="#7BA5C9" stroke-width="0.5" opacity="0.12"/>
    <circle cx="0" cy="0" r="58" fill="none" stroke="#9ECBEB" stroke-width="1" opacity="0.2"/>
    <circle cx="0" cy="0" r="50" fill="url(#tokenBg)" stroke="#7BA5C9" stroke-width="1.5" filter="url(#shadow)"/>
    <!-- Polaris star -->
    <polygon points="0,-28 1.4,-23 6.6,-23 2.4,-19.4 4,-14 0,-18 -4,-14 -2.4,-19.4 -6.6,-23 -1.4,-23" fill="#9ECBEB" fill-opacity="0.8" filter="url(#softGlow)"/>
    <!-- pETH diamond -->
    <g transform="translate(0, 8)">
      <polygon points="0,-18 14,0 0,7 -14,0" fill="url(#pethGradient)"/>
      <polygon points="0,7 14,0 0,20 -14,0" fill="url(#pethDark)"/>
      <polygon points="0,-18 6,-3 0,-5 -6,-3" fill="#B8D4F0" opacity="0.3"/>
    </g>
  </g>
  <text x="935" y="842" font-family="'Cormorant Garamond', Georgia, serif" font-size="30" font-weight="500" fill="#E8DCC4" text-anchor="middle">pETH</text>

  <!-- ========== SPLIT ARROWS: pETH → Fee Router / Market Price Rises (to the left) ========== -->

  <!-- Arrow → Fee Router (left, slight up) -->
  <line x1="873" y1="760" x2="755" y2="736" stroke="#E8DCC4" stroke-width="2" opacity="0.5" marker-end="url(#arrowCream)"/>

  <!-- Arrow → Market Price Rises (left, down) -->
  <line x1="873" y1="760" x2="755" y2="824" stroke="#F5D76E" stroke-width="2" opacity="0.5" marker-end="url(#arrowGold)"/>

  <!-- ========== FEE ROUTER CARD (left of second pETH) ========== -->
  <g transform="translate(525, 700)">
    <rect x="0" y="0" width="230" height="72" rx="14" fill="#0d1f3c" stroke="#E8DCC4" stroke-width="1" stroke-opacity="0.12" filter="url(#shadow)"/>
    <!-- Router icon: split paths -->
    <g transform="translate(33, 36)">
      <path d="M0,-8 L0,0 M0,0 L-6,8 M0,0 L6,8" fill="none" stroke="#E8DCC4" stroke-width="1.5" opacity="0.6" stroke-linecap="round"/>
      <circle cx="0" cy="-8" r="2" fill="#E8DCC4" opacity="0.6"/>
      <circle cx="-6" cy="8" r="2" fill="#E8DCC4" opacity="0.6"/>
      <circle cx="6" cy="8" r="2" fill="#E8DCC4" opacity="0.6"/>
    </g>
    <text x="57" y="30" font-family="'Inter', Arial, sans-serif" font-size="19" font-weight="500" fill="#E8DCC4" fill-opacity="0.9">Fee Router</text>
    <text x="57" y="52" font-family="'Inter', Arial, sans-serif" font-size="18" font-weight="400" fill="#E8DCC4" fill-opacity="0.4">pETH distribution</text>
  </g>

  <!-- ========== MARKET PRICE RISES CARD (left of second pETH, below Fee Router) ========== -->
  <g transform="translate(525, 788)">
    <rect x="0" y="0" width="230" height="68" rx="16" fill="#1a1f0f" stroke="#F5D76E" stroke-width="1" stroke-opacity="0.2" filter="url(#shadow)"/>
    <!-- Upward arrow icon -->
    <g transform="translate(26, 35)">
      <path d="M0,-12 L8,2 L3,2 L3,10 L-3,10 L-3,2 L-8,2 Z" fill="#E8DCC4" opacity="0.6"/>
    </g>
    <text x="44" y="36" font-family="'Inter', Arial, sans-serif" font-size="20" font-weight="500" fill="#E8DCC4" fill-opacity="0.9" dominant-baseline="middle">Market Price Rises</text>
  </g>

  </g>
</svg>