<svg xmlns="http://www.w3.org/2000/svg" viewBox="0 0 1380 680" fill="none">
  <defs>
    <style>
      @import url('https://fonts.googleapis.com/css2?family=Cormorant+Garamond:wght@400;500;600&amp;family=Inter:wght@400;500;600;700&amp;display=swap');
      .title { font-family: 'Cormorant Garamond', Georgia, serif; fill: #F5F0E6; }
      .subtitle { font-family: 'Inter', Arial, sans-serif; fill: #E8DCC4; }
      .label { font-family: 'Inter', Arial, sans-serif; fill: #8BA4B8; }
      .label-cream { font-family: 'Inter', Arial, sans-serif; fill: #E8DCC4; }
      .label-bright { font-family: 'Inter', Arial, sans-serif; fill: #F5F0E6; }
      .mono { font-family: 'Inter', Arial, sans-serif; font-variant-numeric: tabular-nums; }
    </style>

    <!-- Background -->
    <radialGradient id="bgGradient" cx="50%" cy="46%" r="72%">
      <stop offset="0%" style="stop-color:#0d1f3c"/>
      <stop offset="100%" style="stop-color:#050a14"/>
    </radialGradient>

    <!-- Filters -->
    <filter id="shadow" x="-10%" y="-10%" width="130%" height="130%">
      <feDropShadow dx="0" dy="4" stdDeviation="8" flood-color="#000" flood-opacity="0.55"/>
    </filter>
    <filter id="softGlow" x="-30%" y="-30%" width="160%" height="160%">
      <feGaussianBlur in="SourceGraphic" stdDeviation="5" result="blur"/>
      <feMerge>
        <feMergeNode in="blur"/>
        <feMergeNode in="SourceGraphic"/>
      </feMerge>
    </filter>
    <filter id="tightGlow" x="-20%" y="-20%" width="140%" height="140%">
      <feGaussianBlur in="SourceGraphic" stdDeviation="3" result="blur"/>
      <feMerge>
        <feMergeNode in="blur"/>
        <feMergeNode in="SourceGraphic"/>
      </feMerge>
    </filter>
    <filter id="yearnSliceGlow" x="-50%" y="-50%" width="200%" height="200%">
      <feGaussianBlur in="SourceGraphic" stdDeviation="6" result="blur"/>
      <feColorMatrix in="blur" type="matrix" values="1 0 0 0 0  0 1 0 0 0  0 0 1 0 0  0 0 0 0.6 0"/>
      <feMerge>
        <feMergeNode/>
        <feMergeNode in="SourceGraphic"/>
      </feMerge>
    </filter>

    <!-- Integrator color gradients -->
    <linearGradient id="pusdGrad" x1="0%" y1="0%" x2="100%" y2="100%">
      <stop offset="0%" style="stop-color:#F5F0E6"/>
      <stop offset="100%" style="stop-color:#E8DCC4"/>
    </linearGradient>
    <linearGradient id="pgoldGrad" x1="0%" y1="0%" x2="100%" y2="100%">
      <stop offset="0%" style="stop-color:#F5D76E"/>
      <stop offset="100%" style="stop-color:#D4A830"/>
    </linearGradient>
    <linearGradient id="yearnGrad" x1="0%" y1="0%" x2="100%" y2="100%">
      <stop offset="0%" style="stop-color:#7FE0B8"/>
      <stop offset="100%" style="stop-color:#4FB48A"/>
    </linearGradient>
    <linearGradient id="defisaverGrad" x1="0%" y1="0%" x2="100%" y2="100%">
      <stop offset="0%" style="stop-color:#7A92A6"/>
      <stop offset="100%" style="stop-color:#536A80"/>
    </linearGradient>

    <radialGradient id="donutCore" cx="50%" cy="50%" r="55%">
      <stop offset="0%" style="stop-color:#122a4d"/>
      <stop offset="100%" style="stop-color:#0a1628"/>
    </radialGradient>

    <radialGradient id="stewardBadge" cx="50%" cy="40%" r="70%">
      <stop offset="0%" style="stop-color:#1a3558"/>
      <stop offset="100%" style="stop-color:#0d1f3c"/>
    </radialGradient>

    <!-- Lever dial arc gradient (subtle → bright teal left→right) -->
    <linearGradient id="dialArc" x1="0%" y1="0%" x2="100%" y2="0%">
      <stop offset="0%" style="stop-color:#7FE0B8" stop-opacity="0.22"/>
      <stop offset="100%" style="stop-color:#7FE0B8" stop-opacity="1"/>
    </linearGradient>

    <!-- Arrow markers -->
    <marker id="arrowYearn" markerWidth="12" markerHeight="12" refX="10" refY="6" orient="auto" markerUnits="userSpaceOnUse">
      <path d="M2,2 L10,6 L2,10" fill="none" stroke="#7FE0B8" stroke-width="2" stroke-linecap="round" stroke-linejoin="round"/>
    </marker>
  </defs>

  <!-- Background -->
  <rect width="1380" height="680" fill="url(#bgGradient)"/>

  <!-- Subtle grid -->
  <g opacity="0.03">
    <line x1="120" y1="0" x2="120" y2="620" stroke="#F5F0E6"/>
    <line x1="240" y1="0" x2="240" y2="620" stroke="#F5F0E6"/>
    <line x1="360" y1="0" x2="360" y2="620" stroke="#F5F0E6"/>
    <line x1="480" y1="0" x2="480" y2="620" stroke="#F5F0E6"/>
    <line x1="600" y1="0" x2="600" y2="620" stroke="#F5F0E6"/>
    <line x1="720" y1="0" x2="720" y2="620" stroke="#F5F0E6"/>
    <line x1="840" y1="0" x2="840" y2="620" stroke="#F5F0E6"/>
    <line x1="960" y1="0" x2="960" y2="620" stroke="#F5F0E6"/>
    <line x1="1080" y1="0" x2="1080" y2="620" stroke="#F5F0E6"/>
    <line x1="1200" y1="0" x2="1200" y2="620" stroke="#F5F0E6"/>
    <line x1="1260" y1="0" x2="1260" y2="620" stroke="#F5F0E6"/>
  </g>

  <!-- ================ TITLE ================ -->
  <text x="690" y="88" class="title" font-size="58" font-weight="500" text-anchor="middle" letter-spacing="0.03em">The Negotiation Lever</text>

  <!-- ================ SECTION PILLS (above donuts) ================ -->
  <g transform="translate(330, 175)">
    <rect x="-95" y="-24" width="190" height="48" rx="24" fill="#0a1628" stroke="rgba(232,220,196,0.2)" stroke-width="1.2"/>
    <text x="0" y="7" class="label-cream" font-size="20" font-weight="600" text-anchor="middle" letter-spacing="0.22em">BEFORE</text>
  </g>

  <g transform="translate(1050, 175)">
    <rect x="-95" y="-24" width="190" height="48" rx="24" fill="#0a1628" stroke="rgba(127,224,184,0.45)" stroke-width="1.5"/>
    <text x="0" y="7" font-family="Inter, sans-serif" font-size="20" font-weight="600" fill="#7FE0B8" text-anchor="middle" letter-spacing="0.22em">AFTER</text>
  </g>

  <!-- ================ BEFORE DONUT ================ -->
  <g>
    <!-- Inner core -->
    <circle cx="330" cy="410" r="86" fill="url(#donutCore)"/>

    <!-- Slices (order: pUSD, pGOLD, Yearn, DeFiSaver) -->
    <!-- Recomputed for cy=410 (shifted by +30) -->
    <path d="M330.00,260.00 A150,150 0 1 1 264.94,545.16 L291.83,489.29 A88,88 0 1 0 330.00,322.00 Z"
          fill="url(#pusdGrad)" opacity="0.92"/>
    <path d="M264.94,545.16 A150,150 0 0 1 212.70,316.51 L261.18,355.15 A88,88 0 0 0 291.83,489.29 Z"
          fill="url(#pgoldGrad)" opacity="0.92"/>
    <path d="M212.70,316.51 A150,150 0 0 1 264.88,274.87 L291.80,330.72 A88,88 0 0 0 261.18,355.15 Z"
          fill="url(#yearnGrad)" opacity="0.78"/>
    <path d="M264.88,274.87 A150,150 0 0 1 329.96,260.00 L329.98,322.00 A88,88 0 0 0 291.80,330.72 Z"
          fill="url(#defisaverGrad)" opacity="0.9"/>

    <!-- Slice borders -->
    <circle cx="330" cy="410" r="150" fill="none" stroke="#050a14" stroke-width="1.5" opacity="0.5"/>
    <circle cx="330" cy="410" r="88" fill="none" stroke="#050a14" stroke-width="1.5" opacity="0.5"/>

    <!-- Segment separators -->
    <g stroke="#050a14" stroke-width="2" opacity="0.6">
      <line x1="330" y1="260" x2="330" y2="322"/>
      <line x1="264.94" y1="545.16" x2="291.83" y2="489.29"/>
      <line x1="212.70" y1="316.51" x2="261.18" y2="355.15"/>
      <line x1="264.88" y1="274.87" x2="291.80" y2="330.72"/>
    </g>

    <!-- Center hub -->
    <text x="330" y="418" font-family="Inter, sans-serif" font-size="32" font-weight="600" fill="#E8DCC4" text-anchor="middle" class="mono">8,750</text>
    <text x="330" y="442" class="label" font-size="12" font-weight="500" text-anchor="middle" letter-spacing="0.22em" opacity="0.6">WEIGHTED pETH</text>
  </g>

  <!-- BEFORE Yearn external label -->
  <g>
    <line x1="237" y1="293" x2="170" y2="305" stroke="#7FE0B8" stroke-width="1" opacity="0.5"/>
    <text x="160" y="294" font-family="Inter, sans-serif" font-size="13" font-weight="600" fill="#7FE0B8" text-anchor="end" letter-spacing="0.18em" opacity="0.85">YEARN</text>
    <text x="160" y="320" font-family="Inter, sans-serif" font-size="20" font-weight="600" fill="#7FE0B8" text-anchor="end" class="mono">7.14%</text>
  </g>

  <!-- BEFORE DeFiSaver external label -->
  <g>
    <line x1="297" y1="264" x2="460" y2="250" stroke="#8BA4B8" stroke-width="1" opacity="0.45"/>
    <text x="470" y="240" font-family="Inter, sans-serif" font-size="13" font-weight="500" fill="#8BA4B8" text-anchor="start" letter-spacing="0.18em" opacity="0.8">DEFISAVER</text>
    <text x="470" y="265" font-family="Inter, sans-serif" font-size="17" font-weight="600" fill="#8BA4B8" text-anchor="start" class="mono">7.14%</text>
  </g>

  <!-- ================ CENTER: WEIGHT LEVER ================ -->
  <g transform="translate(690, 460)">
    <!-- Dial track (semi-circle, top half) -->
    <!-- Left portion (inactive, 0.1 → 0.5), darker slate -->
    <path d="M -100 0 A 100 100 0 0 1 0 -100"
          fill="none" stroke="#2d4a6e" stroke-width="11" stroke-linecap="round" opacity="0.7"/>
    <!-- Right portion (teal, 0.5 → 1.0), gradient showing weight lift -->
    <path d="M 0 -100 A 100 100 0 0 1 100 0"
          fill="none" stroke="url(#dialArc)" stroke-width="11" stroke-linecap="round" filter="url(#tightGlow)"/>

    <!-- Tick marks (0.5 and 1.0 only) -->
    <line x1="-4" y1="-112" x2="-4" y2="-88" stroke="#E8DCC4" stroke-width="2.5" opacity="0.85"/>
    <text x="0" y="-120" font-family="Inter, sans-serif" font-size="20" font-weight="600" fill="#E8DCC4" text-anchor="middle" opacity="0.9">0.5</text>
    <line x1="88" y1="0" x2="112" y2="0" stroke="#7FE0B8" stroke-width="2.5"/>
    <text x="122" y="7" font-family="Inter, sans-serif" font-size="20" font-weight="700" fill="#7FE0B8" text-anchor="start">1.0</text>

    <!-- Ghost knob at 0.5 (BEFORE position) -->
    <g transform="translate(0, -100)">
      <circle cx="0" cy="0" r="13" fill="#0a1628" stroke="#E8DCC4" stroke-width="1.5" stroke-dasharray="3,3" opacity="0.55"/>
      <circle cx="0" cy="0" r="3" fill="#E8DCC4" opacity="0.5"/>
    </g>

    <!-- Active knob at 1.0 (AFTER position) -->
    <g transform="translate(100, 0)">
      <circle cx="0" cy="0" r="17" fill="#0a1628" stroke="#7FE0B8" stroke-width="2.5" filter="url(#softGlow)"/>
      <circle cx="0" cy="0" r="5.5" fill="#7FE0B8"/>
    </g>

    <!-- Curved motion arrow from 0.5 to 1.0 -->
    <path d="M 14 -99 A 100 100 0 0 1 90 -43"
          fill="none" stroke="#7FE0B8" stroke-width="3" stroke-linecap="round"
          stroke-dasharray="6,4" opacity="0.85" marker-end="url(#arrowYearn)"/>

  </g>

  <!-- ================ AFTER DONUT ================ -->
  <g>
    <!-- Inner core -->
    <circle cx="1050" cy="410" r="86" fill="url(#donutCore)"/>

    <!-- Slices (cy=410) -->
    <path d="M1050.00,260.00 A150,150 0 1 1 1018.84,556.73 L1031.72,496.08 A88,88 0 1 0 1050.00,322.00 Z"
          fill="url(#pusdGrad)" opacity="0.92"/>
    <path d="M1018.84,556.73 A150,150 0 0 1 907.34,363.65 L966.31,382.81 A88,88 0 0 0 1031.72,496.08 Z"
          fill="url(#pgoldGrad)" opacity="0.92"/>
    <!-- Yearn: emphasized slice with glow filter -->
    <g filter="url(#yearnSliceGlow)">
      <path d="M907.34,363.65 A150,150 0 0 1 988.96,272.98 L1014.19,329.62 A88,88 0 0 0 966.31,382.81 Z"
            fill="url(#yearnGrad)" opacity="1"/>
    </g>
    <path d="M988.96,272.98 A150,150 0 0 1 1050.00,260.00 L1050.00,322.00 A88,88 0 0 0 1014.19,329.62 Z"
          fill="url(#defisaverGrad)" opacity="0.9"/>

    <!-- Slice borders -->
    <circle cx="1050" cy="410" r="150" fill="none" stroke="#050a14" stroke-width="1.5" opacity="0.5"/>
    <circle cx="1050" cy="410" r="88" fill="none" stroke="#050a14" stroke-width="1.5" opacity="0.5"/>

    <!-- Segment separators -->
    <g stroke="#050a14" stroke-width="2" opacity="0.6">
      <line x1="1050" y1="260" x2="1050" y2="322"/>
      <line x1="1018.84" y1="556.73" x2="1031.72" y2="496.08"/>
      <line x1="907.34" y1="363.65" x2="966.31" y2="382.81"/>
      <line x1="988.96" y1="272.98" x2="1014.19" y2="329.62"/>
    </g>

    <!-- Center hub -->
    <text x="1050" y="418" font-family="Inter, sans-serif" font-size="32" font-weight="600" fill="#E8DCC4" text-anchor="middle" class="mono">9,375</text>
    <text x="1050" y="442" class="label" font-size="12" font-weight="500" text-anchor="middle" letter-spacing="0.22em" opacity="0.6">WEIGHTED pETH</text>
  </g>

  <!-- AFTER Yearn external label (emphasized) -->
  <g>
    <line x1="939" y1="310" x2="890" y2="320" stroke="#7FE0B8" stroke-width="1.5" opacity="0.85"/>
    <text x="880" y="308" font-family="Inter, sans-serif" font-size="13" font-weight="600" fill="#7FE0B8" text-anchor="end" letter-spacing="0.18em" opacity="0.95">YEARN</text>
    <g filter="url(#tightGlow)">
      <text x="880" y="340" font-family="Inter, sans-serif" font-size="26" font-weight="700" fill="#7FE0B8" text-anchor="end" class="mono">13.33% &#8593;</text>
    </g>
  </g>

  <!-- AFTER DeFiSaver external label -->
  <g>
    <line x1="1019" y1="264" x2="1180" y2="250" stroke="#8BA4B8" stroke-width="1" opacity="0.45"/>
    <text x="1190" y="240" font-family="Inter, sans-serif" font-size="13" font-weight="500" fill="#8BA4B8" text-anchor="start" letter-spacing="0.18em" opacity="0.8">DEFISAVER</text>
    <text x="1190" y="265" font-family="Inter, sans-serif" font-size="17" font-weight="600" fill="#8BA4B8" text-anchor="start" class="mono">6.67%</text>
  </g>

  <!-- Bottom kicker: the WHY -->
  <text x="690" y="628" class="label" font-size="18" font-weight="400" text-anchor="middle" opacity="0.7">Yearn burns a share of vault fees &#8212; Stewardship votes the weight up to 1.0</text>

</svg>
