<svg xmlns="http://www.w3.org/2000/svg" viewBox="0 0 1400 900">
  <defs>
    <!-- Filters -->
    <filter id="shadow" x="-10%" y="-10%" width="130%" height="130%">
      <feDropShadow dx="0" dy="4" stdDeviation="8" flood-color="#000" flood-opacity="0.5"/>
    </filter>
    <filter id="softGlow" x="-20%" y="-20%" width="140%" height="140%">
      <feGaussianBlur in="SourceGraphic" stdDeviation="6" result="blur"/>
      <feMerge>
        <feMergeNode in="blur"/>
        <feMergeNode in="SourceGraphic"/>
      </feMerge>
    </filter>
    <filter id="chartGlow" x="-10%" y="-10%" width="120%" height="120%">
      <feGaussianBlur in="SourceGraphic" stdDeviation="3" result="blur"/>
      <feMerge>
        <feMergeNode in="blur"/>
        <feMergeNode in="SourceGraphic"/>
      </feMerge>
    </filter>
    <filter id="tokenGlow" x="-30%" y="-30%" width="160%" height="160%">
      <feGaussianBlur in="SourceGraphic" stdDeviation="10" result="blur"/>
      <feColorMatrix in="blur" type="matrix" values="1 0 0 0 0  0 1 0 0 0  0 0 1 0 0  0 0 0 0.4 0"/>
      <feMerge>
        <feMergeNode/>
        <feMergeNode in="SourceGraphic"/>
      </feMerge>
    </filter>

    <!-- Arrow marker (chevron) -->
    <marker id="arrowSlate" markerWidth="12" markerHeight="12" refX="10" refY="6" orient="auto" markerUnits="userSpaceOnUse">
      <path d="M2,2 L10,6 L2,10" fill="none" stroke="#627D92" stroke-width="2" stroke-linecap="round" stroke-linejoin="round"/>
    </marker>
    <marker id="arrowBlue" markerWidth="12" markerHeight="12" refX="10" refY="6" orient="auto" markerUnits="userSpaceOnUse">
      <path d="M2,2 L10,6 L2,10" fill="none" stroke="#7BA5C9" stroke-width="2" stroke-linecap="round" stroke-linejoin="round"/>
    </marker>
    <marker id="arrowCream" markerWidth="12" markerHeight="12" refX="10" refY="6" orient="auto" markerUnits="userSpaceOnUse">
      <path d="M2,2 L10,6 L2,10" fill="none" stroke="#E8DCC4" stroke-width="2" stroke-linecap="round" stroke-linejoin="round"/>
    </marker>

    <!-- Gradients for token circles (from polaris-system-v2) -->
    <radialGradient id="ethCircleBg" cx="50%" cy="30%" r="70%">
      <stop offset="0%" style="stop-color:#142d4f"/>
      <stop offset="100%" style="stop-color:#0d1f3c"/>
    </radialGradient>
    <radialGradient id="pethCircleBg" cx="50%" cy="30%" r="70%">
      <stop offset="0%" style="stop-color:#0f2a4a"/>
      <stop offset="100%" style="stop-color:#0d1f3c"/>
    </radialGradient>
    <radialGradient id="pusdCircleBg" cx="50%" cy="30%" r="70%">
      <stop offset="0%" style="stop-color:#1a2f48"/>
      <stop offset="100%" style="stop-color:#0d1f3c"/>
    </radialGradient>
    <linearGradient id="pusdGradient" x1="0%" y1="0%" x2="100%" y2="100%">
      <stop offset="0%" style="stop-color:#F5F0E6"/>
      <stop offset="100%" style="stop-color:#E8DCC4"/>
    </linearGradient>

    <!-- Clip path for chart area -->
    <clipPath id="chartClip">
      <rect x="365" y="195" width="530" height="460"/>
    </clipPath>

    <style>
      @import url('https://fonts.googleapis.com/css2?family=Cormorant+Garamond:wght@400;600&amp;family=Inter:wght@400;500;600&amp;display=swap');
      .title { font-family: 'Cormorant Garamond', Georgia, serif; fill: #F5F0E6; }
      .label { font-family: 'Inter', Arial, sans-serif; fill: #8BA4B8; }
      .label-bright { font-family: 'Inter', Arial, sans-serif; fill: #F5F0E6; }
      .label-cream { font-family: 'Inter', Arial, sans-serif; fill: #E8DCC4; }
      .label-blue { font-family: 'Inter', Arial, sans-serif; fill: #9ECBEB; }
      .token-name { font-family: 'Cormorant Garamond', Georgia, serif; fill: #F5F0E6; }
    </style>
  </defs>

  <!-- Background -->
  <rect width="1400" height="900" fill="#0a1628"/>

  <!-- Subtle grid pattern -->
  <g opacity="0.03">
    <line x1="0" y1="0" x2="0" y2="900" stroke="#F5F0E6" stroke-width="1" transform="translate(100,0)"/>
    <line x1="0" y1="0" x2="0" y2="900" stroke="#F5F0E6" stroke-width="1" transform="translate(200,0)"/>
    <line x1="0" y1="0" x2="0" y2="900" stroke="#F5F0E6" stroke-width="1" transform="translate(300,0)"/>
    <line x1="0" y1="0" x2="0" y2="900" stroke="#F5F0E6" stroke-width="1" transform="translate(400,0)"/>
    <line x1="0" y1="0" x2="0" y2="900" stroke="#F5F0E6" stroke-width="1" transform="translate(500,0)"/>
    <line x1="0" y1="0" x2="0" y2="900" stroke="#F5F0E6" stroke-width="1" transform="translate(600,0)"/>
    <line x1="0" y1="0" x2="0" y2="900" stroke="#F5F0E6" stroke-width="1" transform="translate(700,0)"/>
    <line x1="0" y1="0" x2="0" y2="900" stroke="#F5F0E6" stroke-width="1" transform="translate(800,0)"/>
    <line x1="0" y1="0" x2="0" y2="900" stroke="#F5F0E6" stroke-width="1" transform="translate(900,0)"/>
    <line x1="0" y1="0" x2="0" y2="900" stroke="#F5F0E6" stroke-width="1" transform="translate(1000,0)"/>
    <line x1="0" y1="0" x2="0" y2="900" stroke="#F5F0E6" stroke-width="1" transform="translate(1100,0)"/>
    <line x1="0" y1="0" x2="0" y2="900" stroke="#F5F0E6" stroke-width="1" transform="translate(1200,0)"/>
    <line x1="0" y1="0" x2="0" y2="900" stroke="#F5F0E6" stroke-width="1" transform="translate(1300,0)"/>
  </g>

  <!-- ==================== TITLE ==================== -->
  <text x="60" y="65" class="title" font-size="32" font-weight="600">Polaris Bonding Curve</text>
  <text x="60" y="92" class="label" font-size="13">How ETH is bonded into pETH and used to collateralise pUSD</text>

  <!-- ==================== CHART CARD ==================== -->
  <rect x="340" y="130" width="580" height="520" rx="24" fill="#0d1f3c" stroke="rgba(232,220,196,0.12)" stroke-width="1.5" filter="url(#shadow)"/>

  <!-- Chart area: origin at (415, 600), end at (885, 180) -->
  <!-- width=470, height=420 -->

  <!-- Axes -->
  <line x1="415" y1="600" x2="885" y2="600" stroke="#3A5068" stroke-width="1.5"/>
  <line x1="415" y1="600" x2="415" y2="175" stroke="#3A5068" stroke-width="1.5"/>

  <!-- Axis labels -->
  <text x="415" y="622" class="label" font-size="10" text-anchor="middle">0</text>
  <text x="645" y="622" class="label" font-size="10" text-anchor="middle">0.5</text>
  <text x="885" y="622" class="label" font-size="10" text-anchor="middle">1</text>
  <text x="405" y="604" class="label" font-size="10" text-anchor="end">0</text>
  <text x="405" y="394" class="label" font-size="10" text-anchor="end">0.5</text>
  <text x="405" y="184" class="label" font-size="10" text-anchor="end">1</text>

  <!-- Axis titles -->
  <text x="650" y="648" class="label" font-size="11" text-anchor="middle" font-weight="500">Supply (normalised)</text>
  <text transform="translate(378,400) rotate(-90)" class="label" font-size="11" text-anchor="middle" font-weight="500">Price (normalised)</text>

  <!-- Tick marks -->
  <line x1="645" y1="600" x2="645" y2="605" stroke="#3A5068" stroke-width="1"/>
  <line x1="885" y1="600" x2="885" y2="605" stroke="#3A5068" stroke-width="1"/>
  <line x1="415" y1="390" x2="410" y2="390" stroke="#3A5068" stroke-width="1"/>
  <line x1="415" y1="180" x2="410" y2="180" stroke="#3A5068" stroke-width="1"/>

  <!-- ===== AREA FILLS ===== -->
  <!-- Curve: y = x^0.33 polyline (76 exact sample points) -->
  <!-- Floor price at y=300 crosses curve at (586.3, 300) -->
  <!-- Current supply at x=760, curve at (760, 221.1) -->

  <!-- Area 1: "ETH released" (purple) - below curve from origin to floor-price intersection -->
  <path d="M415.0,600.0 L415.0,591.6 L415.0,583.2 L415.1,574.8 L415.2,566.4 L415.5,558.0 L415.8,549.6 L416.3,541.2 L416.9,532.8 L417.7,524.4 L418.8,516.0 L420.0,507.6 L421.5,499.2 L423.3,490.8 L425.3,482.4 L427.7,474.0 L430.4,465.6 L433.5,457.2 L436.9,448.8 L440.8,440.4 L445.1,432.0 L449.8,423.6 L455.0,415.2 L460.7,406.8 L467.0,398.4 L473.8,390.0 L482.0,380.6 L490.2,372.0 L498.4,364.0 L506.6,356.4 L514.9,349.4 L523.1,342.7 L531.3,336.3 L539.5,330.2 L547.8,324.4 L556.0,318.8 L564.2,313.5 L572.5,308.3 L580.7,303.3 L586.3,300.0 L586.3,600 Z" fill="#9B8FCF" opacity="0.35"/>

  <!-- Area 2: "pUSD backing" (cream) - Full area under curve from floor-price intersection to current supply -->
  <path d="M586.3,300.0 L588.9,298.5 L597.1,293.8 L605.4,289.3 L613.6,284.8 L621.8,280.6 L630.0,276.4 L638.2,272.3 L646.5,268.3 L654.7,264.4 L662.9,260.6 L671.1,256.9 L679.4,253.3 L687.6,249.7 L695.8,246.3 L704.0,242.8 L712.3,239.5 L720.5,236.2 L728.7,232.9 L737.0,229.8 L745.2,226.6 L753.4,223.6 L760.0,221.1 L760.0,600 L586.3,600 Z" fill="#E8DCC4" opacity="0.20"/>

  <!-- Area 3: "Mcap pETH" (blue) - Above the curve, from floor-price intersection to curve endpoint, up to chart top -->
  <path d="M586.3,180 L885.0,180.0 L876.8,182.5 L868.5,185.0 L860.3,187.5 L852.1,190.0 L843.9,192.6 L835.7,195.2 L827.4,197.9 L819.2,200.6 L811.0,203.3 L802.8,206.1 L794.5,208.9 L786.3,211.7 L778.1,214.6 L769.9,217.6 L761.6,220.5 L753.4,223.6 L745.2,226.6 L737.0,229.8 L728.7,232.9 L720.5,236.2 L712.3,239.5 L704.0,242.8 L695.8,246.3 L687.6,249.7 L679.4,253.3 L671.1,256.9 L662.9,260.6 L654.7,264.4 L646.5,268.3 L638.2,272.3 L630.0,276.4 L621.8,280.6 L613.6,284.8 L605.4,289.3 L597.1,293.8 L588.9,298.5 L586.3,300.0 Z" fill="#6BCAA0" opacity="0.22"/>

  <!-- Area 4: "ETH Reserve" (steel blue) - Below curve, from current supply to end -->
  <path d="M760.0,221.1 L761.6,220.5 L769.9,217.6 L778.1,214.6 L786.3,211.7 L794.5,208.9 L802.8,206.1 L811.0,203.3 L819.2,200.6 L827.4,197.9 L835.7,195.2 L843.9,192.6 L852.1,190.0 L860.3,187.5 L868.5,185.0 L876.8,182.5 L885.0,180.0 L885.0,600 L760.0,600 Z" fill="#7BA5C9" opacity="0.25"/>

  <!-- ===== REFERENCE LINES ===== -->
  <!-- Floor-price horizontal dashed line at y=300 -->
  <line x1="415" y1="300" x2="586.3" y2="300" stroke="#E8DCC4" stroke-width="1" stroke-dasharray="6,4" opacity="0.5"/>

  <!-- Current supply vertical dashed line at x=760 -->
  <line x1="760" y1="221.1" x2="760" y2="600" stroke="#9ECBEB" stroke-width="1" stroke-dasharray="6,4" opacity="0.5"/>

  <!-- ===== BONDING CURVE ===== -->
  <!-- y = x^0.33 polyline: 76 exact sample points, dense near origin for steep section -->
  <path d="M415.0,600.0 L415.0,591.6 L415.0,583.2 L415.1,574.8 L415.2,566.4 L415.5,558.0 L415.8,549.6 L416.3,541.2 L416.9,532.8 L417.7,524.4 L418.8,516.0 L420.0,507.6 L421.5,499.2 L423.3,490.8 L425.3,482.4 L427.7,474.0 L430.4,465.6 L433.5,457.2 L436.9,448.8 L440.8,440.4 L445.1,432.0 L449.8,423.6 L455.0,415.2 L460.7,406.8 L467.0,398.4 L473.8,390.0 L482.0,380.6 L490.2,372.0 L498.4,364.0 L506.6,356.4 L514.9,349.4 L523.1,342.7 L531.3,336.3 L539.5,330.2 L547.8,324.4 L556.0,318.8 L564.2,313.5 L572.5,308.3 L580.7,303.3 L588.9,298.5 L597.1,293.8 L605.4,289.3 L613.6,284.8 L621.8,280.6 L630.0,276.4 L638.2,272.3 L646.5,268.3 L654.7,264.4 L662.9,260.6 L671.1,256.9 L679.4,253.3 L687.6,249.7 L695.8,246.3 L704.0,242.8 L712.3,239.5 L720.5,236.2 L728.7,232.9 L737.0,229.8 L745.2,226.6 L753.4,223.6 L761.6,220.5 L769.9,217.6 L778.1,214.6 L786.3,211.7 L794.5,208.9 L802.8,206.1 L811.0,203.3 L819.2,200.6 L827.4,197.9 L835.7,195.2 L843.9,192.6 L852.1,190.0 L860.3,187.5 L868.5,185.0 L876.8,182.5 L885.0,180.0" fill="none" stroke="#F5F0E6" stroke-width="2.5" stroke-linecap="round" stroke-linejoin="round" filter="url(#chartGlow)"/>

  <!-- Floor price dot at curve intersection with floor-price line -->
  <circle cx="586.3" cy="300" r="5" fill="#F5F0E6" filter="url(#softGlow)"/>
  <circle cx="586.3" cy="300" r="3" fill="#E8DCC4"/>
  <text x="420" y="295" class="label-cream" font-size="10" font-weight="500">floor price</text>

  <!-- Market price horizontal dashed line from curve endpoint to y-axis -->
  <line x1="415" y1="180" x2="885" y2="180" stroke="#E8DCC4" stroke-width="1" stroke-dasharray="6,4" opacity="0.5"/>
  <text x="420" y="175" class="label-bright" font-size="10" font-weight="500">market price</text>

  <!-- Market price dot at curve endpoint -->
  <circle cx="885" cy="180" r="5" fill="#F5F0E6" filter="url(#softGlow)"/>
  <circle cx="885" cy="180" r="3" fill="#9ECBEB"/>

  <!-- ===== AREA LABELS ===== -->
  <text x="500" y="516" class="label" font-size="16" text-anchor="middle" fill="#9B8FCF" opacity="0.9">released</text>
  <text x="500" y="536" class="label" font-size="16" text-anchor="middle" fill="#9B8FCF" opacity="0.9">ETH</text>

  <text x="673" y="460" class="label" font-size="16" text-anchor="middle" fill="#E8DCC4" opacity="0.9">pUSD</text>

  <text x="690" y="209" class="label" font-size="16" text-anchor="middle" fill="#6BCAA0" opacity="0.9">pETH</text>

  <text x="830" y="416" class="label" font-size="16" text-anchor="middle" fill="#7BA5C9" opacity="0.9">ETH</text>
  <text x="830" y="436" class="label" font-size="16" text-anchor="middle" fill="#7BA5C9" opacity="0.9">reserve</text>

  <!-- ==================== ETH TOKEN (left) ==================== -->
  <g transform="translate(160, 400)">
    <!-- Outer glow ring -->
    <circle cx="0" cy="0" r="58" fill="none" stroke="#627D92" stroke-width="1" opacity="0.2"/>
    <!-- ETH Circle -->
    <circle cx="0" cy="0" r="50" fill="url(#ethCircleBg)" stroke="#627D92" stroke-width="2" filter="url(#shadow)"/>
    <!-- ETH Diamond Logo (from polaris-system-v2) -->
    <g>
      <polygon points="0,-26 17,0 0,10 -17,0" fill="#7BA5C9" opacity="0.95"/>
      <polygon points="0,10 17,0 0,26 -17,0" fill="#5A84A8" opacity="0.85"/>
      <!-- Highlight on upper facet -->
      <polygon points="0,-26 8,-5 0,-8 -8,-5" fill="#9ECBEB" opacity="0.3"/>
    </g>
    <!-- Label -->
    <text x="0" y="78" font-family="'Cormorant Garamond', Georgia, serif" font-size="18" font-weight="500" fill="#E8DCC4" text-anchor="middle">ETH</text>
  </g>

  <!-- ==================== pETH TOKEN (top-right) ==================== -->
  <g transform="translate(1080, 240)">
    <!-- Outer glow ring -->
    <circle cx="0" cy="0" r="58" fill="none" stroke="#7BA5C9" stroke-width="1" opacity="0.2"/>
    <!-- pETH Circle -->
    <circle cx="0" cy="0" r="50" fill="url(#pethCircleBg)" stroke="#7BA5C9" stroke-width="2" filter="url(#shadow)"/>
    <!-- Small star above with glow (from polaris-system-v2) -->
    <g filter="url(#softGlow)">
      <polygon points="0,-28 1.6,-22.5 7.9,-22.5 2.9,-18.4 4.6,-12.8 0,-17.0 -4.6,-12.8 -2.9,-18.4 -7.9,-22.5 -1.6,-22.5" fill="#9ECBEB" fill-opacity="0.8"/>
    </g>
    <!-- pETH Diamond (from polaris-system-v2) -->
    <g transform="translate(0, 8)">
      <polygon points="0,-22 17,0 0,8 -17,0" fill="#9ECBEB" opacity="0.9"/>
      <polygon points="0,8 17,0 0,24 -17,0" fill="#7BA5C9" opacity="0.8"/>
      <!-- Highlight -->
      <polygon points="0,-22 8,-4 0,-6 -8,-4" fill="#B8D4F0" opacity="0.3"/>
    </g>
    <!-- Label -->
    <text x="0" y="78" font-family="'Cormorant Garamond', Georgia, serif" font-size="18" font-weight="500" fill="#E8DCC4" text-anchor="middle">pETH</text>
  </g>

  <!-- ==================== pUSD TOKEN (bottom-right) ==================== -->
  <g transform="translate(1080, 700)">
    <!-- Outer glow ring (from polaris-system-v2) -->
    <circle cx="0" cy="0" r="58" fill="none" stroke="#E8DCC4" stroke-width="1" opacity="0.25"/>
    <circle cx="0" cy="0" r="62" fill="none" stroke="#E8DCC4" stroke-width="0.5" opacity="0.12"/>
    <!-- pUSD Circle -->
    <circle cx="0" cy="0" r="50" fill="url(#pusdCircleBg)" stroke="#E8DCC4" stroke-width="2.5" filter="url(#shadow)"/>
    <!-- pUSD Dollar Symbol with shadow (from polaris-system-v2) -->
    <text x="0" y="20" font-family="'Cormorant Garamond', Georgia, serif" font-size="43" font-weight="500" fill="url(#pusdGradient)" text-anchor="middle" filter="url(#softGlow)">$</text>
    <!-- Small star above with glow (from polaris-system-v2) -->
    <g filter="url(#softGlow)">
      <polygon points="0,-28 1.6,-22.5 7.9,-22.5 2.9,-18.4 4.6,-12.8 0,-17.0 -4.6,-12.8 -2.9,-18.4 -7.9,-22.5 -1.6,-22.5" fill="#F5F0E6" fill-opacity="0.85"/>
    </g>
    <!-- Label -->
    <text x="0" y="78" font-family="'Cormorant Garamond', Georgia, serif" font-size="18" font-weight="600" fill="#E8DCC4" text-anchor="middle">pUSD</text>
  </g>

  <!-- ==================== CDPs CARD (from polaris-system-v2) ==================== -->
  <g transform="translate(1080, 470)">
    <!-- Card Background -->
    <rect x="-90" y="-65" width="180" height="130" rx="24" fill="#0d1f3c" stroke="rgba(232,220,196,0.12)" stroke-width="1" filter="url(#shadow)"/>
    <rect x="-86" y="-61" width="172" height="122" rx="22" fill="none" stroke="rgba(232,220,196,0.03)" stroke-width="1"/>

    <!-- CDPs Container -->
    <g transform="translate(0, -5)">
      <!-- Container outline -->
      <rect x="-70" y="-40" width="140" height="90" rx="10" fill="#122a4d" stroke="rgba(232,220,196,0.08)" stroke-width="1"/>

      <!-- CDP 1 (large) -->
      <g transform="translate(-52, 5)">
        <rect x="0" y="-30" width="9" height="50" rx="3" fill="#7BA5C9" opacity="0.75"/>
        <rect x="0" y="-30" width="9" height="15" rx="3" fill="#9ECBEB" opacity="0.3"/>
        <rect x="11" y="-18" width="9" height="38" rx="3" fill="#E8DCC4" opacity="0.75"/>
        <rect x="11" y="-18" width="9" height="12" rx="3" fill="#F5F0E6" opacity="0.3"/>
      </g>
      <!-- CDP 2 (medium) -->
      <g transform="translate(-22, 5)">
        <rect x="0" y="-20" width="9" height="40" rx="3" fill="#7BA5C9" opacity="0.75"/>
        <rect x="0" y="-20" width="9" height="12" rx="3" fill="#9ECBEB" opacity="0.3"/>
        <rect x="11" y="-8" width="9" height="28" rx="3" fill="#E8DCC4" opacity="0.75"/>
        <rect x="11" y="-8" width="9" height="9" rx="3" fill="#F5F0E6" opacity="0.3"/>
      </g>
      <!-- CDP 3 (small) -->
      <g transform="translate(8, 5)">
        <rect x="0" y="-12" width="9" height="32" rx="3" fill="#7BA5C9" opacity="0.75"/>
        <rect x="0" y="-12" width="9" height="10" rx="3" fill="#9ECBEB" opacity="0.3"/>
        <rect x="11" y="-2" width="9" height="22" rx="3" fill="#E8DCC4" opacity="0.75"/>
        <rect x="11" y="-2" width="9" height="7" rx="3" fill="#F5F0E6" opacity="0.3"/>
      </g>
      <!-- CDP 4 (medium-large) -->
      <g transform="translate(38, 5)">
        <rect x="0" y="-25" width="9" height="45" rx="3" fill="#7BA5C9" opacity="0.75"/>
        <rect x="0" y="-25" width="9" height="14" rx="3" fill="#9ECBEB" opacity="0.3"/>
        <rect x="11" y="-12" width="9" height="32" rx="3" fill="#E8DCC4" opacity="0.75"/>
        <rect x="11" y="-12" width="9" height="10" rx="3" fill="#F5F0E6" opacity="0.3"/>
      </g>

      <!-- Labels with pill backgrounds -->
      <rect x="-52" y="50" width="34" height="14" rx="7" fill="rgba(123,165,201,0.1)"/>
      <text x="-35" y="60" font-family="Inter, system-ui, sans-serif" font-size="9" fill="#7BA5C9" text-anchor="middle" font-weight="500">pETH</text>
      <rect x="18" y="50" width="34" height="14" rx="7" fill="rgba(232,220,196,0.1)"/>
      <text x="35" y="60" font-family="Inter, system-ui, sans-serif" font-size="9" fill="#E8DCC4" text-anchor="middle" font-weight="500">pUSD</text>
    </g>

    <!-- Title (inside card, top) -->
    <text x="0" y="-48" font-family="'Cormorant Garamond', Georgia, serif" font-size="16" font-weight="500" fill="#E8DCC4" text-anchor="middle">CDPs</text>
  </g>

  <!-- ==================== FLOW ARROWS ==================== -->

  <!-- Arrow 1: ETH -> bond -> Chart (horizontal right) -->
  <line x1="225" y1="400" x2="330" y2="400" stroke="#627D92" stroke-width="2" marker-end="url(#arrowSlate)"/>
  <!-- Pill label "bond" -->
  <rect x="252" y="390" width="40" height="20" rx="9" fill="#0d1f3c" stroke="#627D92" stroke-width="1" opacity="0.9"/>
  <text x="272" y="404" class="label" font-size="10" text-anchor="middle" fill="#8BA4B8">bond</text>

  <!-- Arrow 2: Chart -> issue -> pETH (from chart right to pETH left) -->
  <path d="M890,240 L1015,240" fill="none" stroke="#7BA5C9" stroke-width="2" marker-end="url(#arrowBlue)"/>
  <!-- Pill label "issue" - vertically centered on arrow at y=240 -->
  <rect x="928" y="230" width="40" height="20" rx="9" fill="#0d1f3c" stroke="#7BA5C9" stroke-width="1" opacity="0.9"/>
  <text x="948" y="244" class="label-blue" font-size="10" text-anchor="middle">issue</text>

  <!-- Arrow 3: pETH -> collateral -> CDPs (vertical down, starts below pETH label) -->
  <line x1="1080" y1="332" x2="1080" y2="398" stroke="#7BA5C9" stroke-width="2" marker-end="url(#arrowBlue)"/>
  <!-- Pill label "collateral" -->
  <rect x="1093" y="355" width="70" height="20" rx="9" fill="#0d1f3c" stroke="#7BA5C9" stroke-width="1" opacity="0.9"/>
  <text x="1128" y="369" class="label-blue" font-size="10" text-anchor="middle">collateral</text>

  <!-- Arrow 4: CDPs -> mint -> pUSD (vertical down, starts below CDPs card) -->
  <line x1="1080" y1="542" x2="1080" y2="632" stroke="#E8DCC4" stroke-width="2" marker-end="url(#arrowCream)"/>
  <!-- Pill label "mint" -->
  <rect x="1093" y="577" width="40" height="20" rx="9" fill="#0d1f3c" stroke="#E8DCC4" stroke-width="1" opacity="0.9"/>
  <text x="1113" y="591" class="label-cream" font-size="10" text-anchor="middle">mint</text>

  <!-- ==================== LEGEND (bottom-left) ==================== -->
  <g transform="translate(60, 780)">
    <rect x="-10" y="-15" width="260" height="100" rx="16" fill="#0d1f3c" stroke="rgba(232,220,196,0.08)" stroke-width="1"/>
    <rect x="10" y="5" width="12" height="12" rx="2" fill="#9B8FCF" opacity="0.6"/>
    <text x="30" y="15" class="label" font-size="11">ETH released</text>
    <rect x="10" y="25" width="12" height="12" rx="2" fill="#E8DCC4" opacity="0.4"/>
    <text x="30" y="35" class="label" font-size="11">pUSD backing reserve</text>
    <rect x="10" y="45" width="12" height="12" rx="2" fill="#6BCAA0" opacity="0.4"/>
    <text x="30" y="55" class="label" font-size="11">pETH market capitalisation</text>
    <rect x="10" y="65" width="12" height="12" rx="2" fill="#7BA5C9" opacity="0.45"/>
    <text x="30" y="75" class="label" font-size="11">ETH reserve</text>
  </g>

</svg>