<svg xmlns="http://www.w3.org/2000/svg" viewBox="0 0 1200 700" fill="none">
  <defs>
    <style>
      @import url('https://fonts.googleapis.com/css2?family=Cormorant+Garamond:wght@400;500;600&amp;family=Inter:wght@400;500;600&amp;display=swap');
      .title { font-family: 'Cormorant Garamond', Georgia, serif; fill: #E8DCC4; }
      .subtitle { font-family: 'Inter', Arial, sans-serif; fill: #E8DCC4; }
      .label { font-family: 'Inter', Arial, sans-serif; fill: #8BA4B8; }
      .label-cream { font-family: 'Inter', Arial, sans-serif; fill: #E8DCC4; }
      .label-bright { font-family: 'Inter', Arial, sans-serif; fill: #F5F0E6; }
    </style>

    <!-- Background gradient -->
    <radialGradient id="bgGradient" cx="50%" cy="48%" r="65%">
      <stop offset="0%" style="stop-color:#0d1f3c"/>
      <stop offset="100%" style="stop-color:#050a14"/>
    </radialGradient>

    <!-- Filters -->
    <filter id="shadow" x="-10%" y="-10%" width="130%" height="130%">
      <feDropShadow dx="0" dy="4" stdDeviation="8" flood-color="#000" flood-opacity="0.5"/>
    </filter>
    <filter id="softGlow" x="-20%" y="-20%" width="140%" height="140%">
      <feGaussianBlur in="SourceGraphic" stdDeviation="6" result="blur"/>
      <feMerge>
        <feMergeNode in="blur"/>
        <feMergeNode in="SourceGraphic"/>
      </feMerge>
    </filter>
    <filter id="lineGlow" x="-10%" y="-10%" width="120%" height="120%">
      <feGaussianBlur in="SourceGraphic" stdDeviation="3" result="blur"/>
      <feMerge>
        <feMergeNode in="blur"/>
        <feMergeNode in="SourceGraphic"/>
      </feMerge>
    </filter>
    <filter id="floorGlow" x="-20%" y="-20%" width="140%" height="140%">
      <feGaussianBlur in="SourceGraphic" stdDeviation="5" result="blur"/>
      <feColorMatrix in="blur" type="matrix" values="1 0 0 0 0.1  0 1 0 0 0.05  0 0 1 0 0  0 0 0 0.7 0" result="coloredBlur"/>
      <feMerge>
        <feMergeNode in="coloredBlur"/>
        <feMergeNode in="SourceGraphic"/>
      </feMerge>
    </filter>
    <filter id="iconGlow" x="-30%" y="-30%" width="160%" height="160%">
      <feGaussianBlur in="SourceGraphic" stdDeviation="2" result="blur"/>
      <feMerge>
        <feMergeNode in="blur"/>
        <feMergeNode in="SourceGraphic"/>
      </feMerge>
    </filter>

    <!-- Token circle backgrounds -->
    <radialGradient id="pethCircleBg" cx="50%" cy="30%" r="70%">
      <stop offset="0%" style="stop-color:#0f2a4a"/>
      <stop offset="100%" style="stop-color:#0d1f3c"/>
    </radialGradient>
    <linearGradient id="pethAccent" x1="0%" y1="0%" x2="100%" y2="100%">
      <stop offset="0%" style="stop-color:#9ECBEB"/>
      <stop offset="100%" style="stop-color:#7BA5C9"/>
    </linearGradient>
    <linearGradient id="pethDark" x1="0%" y1="0%" x2="100%" y2="100%">
      <stop offset="0%" style="stop-color:#6B95B9"/>
      <stop offset="100%" style="stop-color:#5A84A8"/>
    </linearGradient>

    <!-- POLAR gradients -->
    <linearGradient id="polarBg" x1="0%" y1="0%" x2="100%" y2="100%">
      <stop offset="0%" style="stop-color:#1a3a5c"/>
      <stop offset="100%" style="stop-color:#0d1f3c"/>
    </linearGradient>
    <radialGradient id="polarGlow" cx="50%" cy="50%" r="50%">
      <stop offset="0%" style="stop-color:#9B8FCF" stop-opacity="0.32"/>
      <stop offset="100%" style="stop-color:#9B8FCF" stop-opacity="0"/>
    </radialGradient>
    <linearGradient id="polarLeft" x1="0%" y1="50%" x2="50%" y2="50%">
      <stop offset="0%" style="stop-color:#9B8FCF" stop-opacity="0"/>
      <stop offset="46%" style="stop-color:#B8A8DF"/>
    </linearGradient>
    <linearGradient id="polarRight" x1="100%" y1="50%" x2="50%" y2="50%">
      <stop offset="0%" style="stop-color:#9B8FCF" stop-opacity="0"/>
      <stop offset="46%" style="stop-color:#B8A8DF"/>
    </linearGradient>
    <linearGradient id="polarTop" x1="50%" y1="0%" x2="50%" y2="50%">
      <stop offset="0%" style="stop-color:#9B8FCF" stop-opacity="0"/>
      <stop offset="46%" style="stop-color:#B8A8DF"/>
    </linearGradient>
    <linearGradient id="polarBottom" x1="50%" y1="100%" x2="50%" y2="50%">
      <stop offset="0%" style="stop-color:#9B8FCF" stop-opacity="0"/>
      <stop offset="46%" style="stop-color:#B8A8DF"/>
    </linearGradient>

    <!-- Arrow marker -->
    <marker id="arrowCream" markerWidth="8" markerHeight="8" refX="4" refY="4" orient="auto" markerUnits="userSpaceOnUse">
      <path d="M0,1 L7,4 L0,7" fill="none" stroke="#E8DCC4" stroke-width="1.5" stroke-linecap="round" stroke-linejoin="round"/>
    </marker>

    <!-- Flame gradient (orange core to red edges) -->
    <linearGradient id="flameGradient" x1="50%" y1="100%" x2="50%" y2="0%">
      <stop offset="0%" style="stop-color:#FF6B35"/>
      <stop offset="50%" style="stop-color:#F7931E"/>
      <stop offset="100%" style="stop-color:#FFD23F"/>
    </linearGradient>
    <linearGradient id="flameInner" x1="50%" y1="100%" x2="50%" y2="0%">
      <stop offset="0%" style="stop-color:#F7931E"/>
      <stop offset="100%" style="stop-color:#FFD23F"/>
    </linearGradient>
  </defs>

  <!-- Background -->
  <rect width="1200" height="700" fill="url(#bgGradient)"/>

  <!-- Subtle grid -->
  <g opacity="0.03">
    <line x1="100" y1="0" x2="100" y2="700" stroke="#F5F0E6" stroke-width="1"/>
    <line x1="200" y1="0" x2="200" y2="700" stroke="#F5F0E6" stroke-width="1"/>
    <line x1="300" y1="0" x2="300" y2="700" stroke="#F5F0E6" stroke-width="1"/>
    <line x1="400" y1="0" x2="400" y2="700" stroke="#F5F0E6" stroke-width="1"/>
    <line x1="500" y1="0" x2="500" y2="700" stroke="#F5F0E6" stroke-width="1"/>
    <line x1="600" y1="0" x2="600" y2="700" stroke="#F5F0E6" stroke-width="1"/>
    <line x1="700" y1="0" x2="700" y2="700" stroke="#F5F0E6" stroke-width="1"/>
    <line x1="800" y1="0" x2="800" y2="700" stroke="#F5F0E6" stroke-width="1"/>
    <line x1="900" y1="0" x2="900" y2="700" stroke="#F5F0E6" stroke-width="1"/>
    <line x1="1000" y1="0" x2="1000" y2="700" stroke="#F5F0E6" stroke-width="1"/>
    <line x1="1100" y1="0" x2="1100" y2="700" stroke="#F5F0E6" stroke-width="1"/>
  </g>

  <!-- Title -->
  <text x="80" y="80" class="title" font-size="36" font-weight="600">The Rising Floor</text>
  <text x="80" y="110" class="subtitle" font-size="14" font-weight="400" opacity="0.5" letter-spacing="0.05em">How pETH's floor price only goes up</text>

  <!-- Y-axis label -->
  <text x="100" y="580" class="label" font-size="13" font-weight="500">Floor Price (ETH)</text>

  <!-- X-axis time indicator -->
  <line x1="1000" y1="580" x2="1100" y2="580" stroke="#8BA4B8" stroke-width="1.5" marker-end="url(#arrowCream)" opacity="0.5"/>
  <text x="1050" y="600" class="label" font-size="13" text-anchor="middle">time</text>

  <!-- Staircase chart area -->
  <!-- Base line (starting floor) -->
  <line x1="140" y1="520" x2="180" y2="520" stroke="#F5F0E6" stroke-width="3" opacity="0.5"/>

  <!-- Step 1: Swap fee burn - rise from 520 to 450 -->
  <rect x="180" y="450" width="160" height="70" fill="#E8DCC4" opacity="0.08"/>
  <line x1="180" y1="520" x2="180" y2="450" stroke="#F5F0E6" stroke-width="3.5" filter="url(#floorGlow)"/>
  <line x1="180" y1="450" x2="340" y2="450" stroke="#F5F0E6" stroke-width="3.5" filter="url(#floorGlow)"/>
  <!-- Step corner dot -->
  <circle cx="180" cy="450" r="5" fill="#F5F0E6" filter="url(#softGlow)"/>

  <!-- Step 2: Swap fee burn - rise from 450 to 395 -->
  <rect x="340" y="395" width="160" height="55" fill="#E8DCC4" opacity="0.08"/>
  <line x1="340" y1="450" x2="340" y2="395" stroke="#F5F0E6" stroke-width="3.5" filter="url(#floorGlow)"/>
  <line x1="340" y1="395" x2="500" y2="395" stroke="#F5F0E6" stroke-width="3.5" filter="url(#floorGlow)"/>
  <!-- Step corner dot -->
  <circle cx="340" cy="395" r="5" fill="#F5F0E6" filter="url(#softGlow)"/>

  <!-- Step 3: Conversion auction - rise from 395 to 340 -->
  <rect x="500" y="340" width="160" height="55" fill="#9B8FCF" opacity="0.12"/>
  <line x1="500" y1="395" x2="500" y2="340" stroke="#D4C8F0" stroke-width="3.5" filter="url(#floorGlow)"/>
  <line x1="500" y1="340" x2="660" y2="340" stroke="#F5F0E6" stroke-width="3.5" filter="url(#floorGlow)"/>
  <!-- Step corner dot (purple for conversion) -->
  <circle cx="500" cy="340" r="5" fill="#D4C8F0" filter="url(#softGlow)"/>

  <!-- Step 4: Swap fee burn - rise from 340 to 295 -->
  <rect x="660" y="295" width="160" height="45" fill="#E8DCC4" opacity="0.08"/>
  <line x1="660" y1="340" x2="660" y2="295" stroke="#F5F0E6" stroke-width="3.5" filter="url(#floorGlow)"/>
  <line x1="660" y1="295" x2="820" y2="295" stroke="#F5F0E6" stroke-width="3.5" filter="url(#floorGlow)"/>
  <!-- Step corner dot -->
  <circle cx="660" cy="295" r="5" fill="#F5F0E6" filter="url(#softGlow)"/>

  <!-- Step 5: Conversion auction - rise from 295 to 250 -->
  <rect x="820" y="250" width="160" height="45" fill="#9B8FCF" opacity="0.12"/>
  <line x1="820" y1="295" x2="820" y2="250" stroke="#D4C8F0" stroke-width="3.5" filter="url(#floorGlow)"/>
  <line x1="820" y1="250" x2="980" y2="250" stroke="#F5F0E6" stroke-width="3.5" filter="url(#floorGlow)"/>
  <!-- Step corner dot (purple for conversion) -->
  <circle cx="820" cy="250" r="5" fill="#D4C8F0" filter="url(#softGlow)"/>

  <!-- End line (trailing off) -->
  <line x1="980" y1="250" x2="1020" y2="250" stroke="#F5F0E6" stroke-width="3" opacity="0.5"/>

  <!-- ==================== TRIGGER ICONS ==================== -->

  <!-- Step 1 icon: pETH burn (swap fee) -->
  <g transform="translate(260, 370)">
    <!-- pETH mini icon -->
    <circle cx="0" cy="0" r="26" fill="url(#pethCircleBg)" stroke="#7BA5C9" stroke-width="1.5" stroke-opacity="0.4"/>
    <polygon points="0,-8 1.4,-5 5.5,-5 2,-2 3.5,1.5 0,-0.7 -3.5,1.5 -2,-2 -5.5,-5 -1.4,-5" fill="#7BA5C9" fill-opacity="0.7" transform="translate(0,-5)"/>
    <g transform="translate(0, 5)">
      <polygon points="0,-7 6,0 0,3 -6,0" fill="url(#pethAccent)"/>
      <polygon points="0,3 6,0 0,9 -6,0" fill="url(#pethDark)"/>
    </g>
    <!-- Burn flame indicator -->
    <g transform="translate(22, -18)" filter="url(#iconGlow)">
      <!-- Outer flame (3 tongues) -->
      <path d="M0,18 C-3,18 -6,14 -6,10 C-6,6 -4,4 -3,2 C-4,5 -2,7 0,5 C-1,8 1,10 3,8 C2,10 4,12 6,10 C6,14 3,18 0,18 Z" fill="url(#flameGradient)"/>
      <!-- Inner bright core -->
      <path d="M0,16 C-2,16 -3,13 -3,10 C-3,8 -1,6 0,8 C1,6 3,8 3,10 C3,13 2,16 0,16 Z" fill="url(#flameInner)"/>
      <!-- Hot center -->
      <ellipse cx="0" cy="13" rx="1.5" ry="2" fill="#FFF7E0"/>
    </g>
    <text x="0" y="48" class="label-cream" font-size="12" text-anchor="middle" font-weight="500">swap fee</text>
    <text x="0" y="62" class="label-cream" font-size="12" text-anchor="middle" opacity="0.6">burned</text>
  </g>

  <!-- Step 2 icon: pETH burn (swap fee) -->
  <g transform="translate(420, 310)">
    <circle cx="0" cy="0" r="26" fill="url(#pethCircleBg)" stroke="#7BA5C9" stroke-width="1.5" stroke-opacity="0.4"/>
    <polygon points="0,-8 1.4,-5 5.5,-5 2,-2 3.5,1.5 0,-0.7 -3.5,1.5 -2,-2 -5.5,-5 -1.4,-5" fill="#7BA5C9" fill-opacity="0.7" transform="translate(0,-5)"/>
    <g transform="translate(0, 5)">
      <polygon points="0,-7 6,0 0,3 -6,0" fill="url(#pethAccent)"/>
      <polygon points="0,3 6,0 0,9 -6,0" fill="url(#pethDark)"/>
    </g>
    <!-- Burn flame indicator -->
    <g transform="translate(22, -18)" filter="url(#iconGlow)">
      <path d="M0,18 C-3,18 -6,14 -6,10 C-6,6 -4,4 -3,2 C-4,5 -2,7 0,5 C-1,8 1,10 3,8 C2,10 4,12 6,10 C6,14 3,18 0,18 Z" fill="url(#flameGradient)"/>
      <path d="M0,16 C-2,16 -3,13 -3,10 C-3,8 -1,6 0,8 C1,6 3,8 3,10 C3,13 2,16 0,16 Z" fill="url(#flameInner)"/>
      <ellipse cx="0" cy="13" rx="1.5" ry="2" fill="#FFF7E0"/>
    </g>
    <text x="0" y="48" class="label-cream" font-size="12" text-anchor="middle" font-weight="500">swap fee</text>
    <text x="0" y="62" class="label-cream" font-size="12" text-anchor="middle" opacity="0.6">burned</text>
  </g>

  <!-- Step 3 icon: Conversion auction (pETH -> POLAR) -->
  <g transform="translate(580, 250)">
    <!-- pETH icon -->
    <circle cx="-40" cy="0" r="26" fill="url(#pethCircleBg)" stroke="#7BA5C9" stroke-width="1.5" stroke-opacity="0.4"/>
    <polygon points="0,-8 1.4,-5 5.5,-5 2,-2 3.5,1.5 0,-0.7 -3.5,1.5 -2,-2 -5.5,-5 -1.4,-5" fill="#7BA5C9" fill-opacity="0.7" transform="translate(-40,-5)"/>
    <g transform="translate(-40, 5)">
      <polygon points="0,-7 6,0 0,3 -6,0" fill="url(#pethAccent)"/>
      <polygon points="0,3 6,0 0,9 -6,0" fill="url(#pethDark)"/>
    </g>
    <!-- Burn flame on pETH -->
    <g transform="translate(-18, -20)" filter="url(#iconGlow)">
      <path d="M0,18 C-3,18 -6,14 -6,10 C-6,6 -4,4 -3,2 C-4,5 -2,7 0,5 C-1,8 1,10 3,8 C2,10 4,12 6,10 C6,14 3,18 0,18 Z" fill="url(#flameGradient)"/>
      <path d="M0,16 C-2,16 -3,13 -3,10 C-3,8 -1,6 0,8 C1,6 3,8 3,10 C3,13 2,16 0,16 Z" fill="url(#flameInner)"/>
      <ellipse cx="0" cy="13" rx="1.5" ry="2" fill="#FFF7E0"/>
    </g>
    <!-- Arrow -->
    <path d="M-10,0 L8,0" stroke="#B8A8DF" stroke-width="2" opacity="0.8"/>
    <polygon points="14,0 8,-4 8,4" fill="#B8A8DF" opacity="0.8"/>
    <!-- POLAR icon -->
    <circle cx="44" cy="0" r="26" fill="url(#polarBg)" stroke="#9B8FCF" stroke-width="1.5" stroke-opacity="0.4"/>
    <circle cx="44" cy="0" r="20" fill="url(#polarGlow)"/>
    <path d="M24,0 L40,-2.5 L44,0 L40,2.5 Z" fill="url(#polarLeft)"/>
    <path d="M64,0 L48,-2.5 L44,0 L48,2.5 Z" fill="url(#polarRight)"/>
    <path d="M44,-20 L46.5,-7 L44,0 L41.5,-7 Z" fill="url(#polarTop)"/>
    <path d="M44,20 L46.5,7 L44,0 L41.5,7 Z" fill="url(#polarBottom)"/>
    <circle cx="44" cy="0" r="3.5" fill="#B8A8DF"/>
    <text x="2" y="50" class="label" font-size="12" text-anchor="middle" font-weight="500" fill="#B8A8DF">conversion</text>
    <text x="2" y="64" class="label" font-size="12" text-anchor="middle" opacity="0.6" fill="#B8A8DF">auction</text>
  </g>

  <!-- Step 4 icon: pETH burn (swap fee) -->
  <g transform="translate(740, 210)">
    <circle cx="0" cy="0" r="26" fill="url(#pethCircleBg)" stroke="#7BA5C9" stroke-width="1.5" stroke-opacity="0.4"/>
    <polygon points="0,-8 1.4,-5 5.5,-5 2,-2 3.5,1.5 0,-0.7 -3.5,1.5 -2,-2 -5.5,-5 -1.4,-5" fill="#7BA5C9" fill-opacity="0.7" transform="translate(0,-5)"/>
    <g transform="translate(0, 5)">
      <polygon points="0,-7 6,0 0,3 -6,0" fill="url(#pethAccent)"/>
      <polygon points="0,3 6,0 0,9 -6,0" fill="url(#pethDark)"/>
    </g>
    <!-- Burn flame indicator -->
    <g transform="translate(22, -18)" filter="url(#iconGlow)">
      <path d="M0,18 C-3,18 -6,14 -6,10 C-6,6 -4,4 -3,2 C-4,5 -2,7 0,5 C-1,8 1,10 3,8 C2,10 4,12 6,10 C6,14 3,18 0,18 Z" fill="url(#flameGradient)"/>
      <path d="M0,16 C-2,16 -3,13 -3,10 C-3,8 -1,6 0,8 C1,6 3,8 3,10 C3,13 2,16 0,16 Z" fill="url(#flameInner)"/>
      <ellipse cx="0" cy="13" rx="1.5" ry="2" fill="#FFF7E0"/>
    </g>
    <text x="0" y="48" class="label-cream" font-size="12" text-anchor="middle" font-weight="500">swap fee</text>
    <text x="0" y="62" class="label-cream" font-size="12" text-anchor="middle" opacity="0.6">burned</text>
  </g>

  <!-- Step 5 icon: Conversion auction (pETH -> POLAR) -->
  <g transform="translate(900, 160)">
    <!-- pETH icon -->
    <circle cx="-40" cy="0" r="26" fill="url(#pethCircleBg)" stroke="#7BA5C9" stroke-width="1.5" stroke-opacity="0.4"/>
    <polygon points="0,-8 1.4,-5 5.5,-5 2,-2 3.5,1.5 0,-0.7 -3.5,1.5 -2,-2 -5.5,-5 -1.4,-5" fill="#7BA5C9" fill-opacity="0.7" transform="translate(-40,-5)"/>
    <g transform="translate(-40, 5)">
      <polygon points="0,-7 6,0 0,3 -6,0" fill="url(#pethAccent)"/>
      <polygon points="0,3 6,0 0,9 -6,0" fill="url(#pethDark)"/>
    </g>
    <!-- Burn flame on pETH -->
    <g transform="translate(-18, -20)" filter="url(#iconGlow)">
      <path d="M0,18 C-3,18 -6,14 -6,10 C-6,6 -4,4 -3,2 C-4,5 -2,7 0,5 C-1,8 1,10 3,8 C2,10 4,12 6,10 C6,14 3,18 0,18 Z" fill="url(#flameGradient)"/>
      <path d="M0,16 C-2,16 -3,13 -3,10 C-3,8 -1,6 0,8 C1,6 3,8 3,10 C3,13 2,16 0,16 Z" fill="url(#flameInner)"/>
      <ellipse cx="0" cy="13" rx="1.5" ry="2" fill="#FFF7E0"/>
    </g>
    <!-- Arrow -->
    <path d="M-10,0 L8,0" stroke="#B8A8DF" stroke-width="2" opacity="0.8"/>
    <polygon points="14,0 8,-4 8,4" fill="#B8A8DF" opacity="0.8"/>
    <!-- POLAR icon -->
    <circle cx="44" cy="0" r="26" fill="url(#polarBg)" stroke="#9B8FCF" stroke-width="1.5" stroke-opacity="0.4"/>
    <circle cx="44" cy="0" r="20" fill="url(#polarGlow)"/>
    <path d="M24,0 L40,-2.5 L44,0 L40,2.5 Z" fill="url(#polarLeft)"/>
    <path d="M64,0 L48,-2.5 L44,0 L48,2.5 Z" fill="url(#polarRight)"/>
    <path d="M44,-20 L46.5,-7 L44,0 L41.5,-7 Z" fill="url(#polarTop)"/>
    <path d="M44,20 L46.5,7 L44,0 L41.5,7 Z" fill="url(#polarBottom)"/>
    <circle cx="44" cy="0" r="3.5" fill="#B8A8DF"/>
    <text x="2" y="50" class="label" font-size="12" text-anchor="middle" font-weight="500" fill="#B8A8DF">conversion</text>
    <text x="2" y="64" class="label" font-size="12" text-anchor="middle" opacity="0.6" fill="#B8A8DF">auction</text>
  </g>

  <!-- Bottom caption -->
  <g transform="translate(600, 650)">
    <text x="0" y="0" class="label-bright" font-size="16" text-anchor="middle" font-weight="500">Every interaction burns pETH</text>
    <text x="175" y="0" class="label" font-size="16" font-weight="400" opacity="0.6">&#8594; floor rises permanently</text>
  </g>

</svg>
