<svg xmlns="http://www.w3.org/2000/svg" viewBox="0 0 1300 510" fill="none">
  <defs>
    <style>
      @import url('https://fonts.googleapis.com/css2?family=Cormorant+Garamond:wght@400;600&amp;family=Inter:wght@400;500;600&amp;display=swap');
    </style>

    <!-- Background gradient -->
    <radialGradient id="bgGradient" cx="50%" cy="48%" r="65%">
      <stop offset="0%" style="stop-color:#0d1f3c"/>
      <stop offset="100%" style="stop-color:#050a14"/>
    </radialGradient>

    <!-- Card shadow -->
    <filter id="shadow" x="-10%" y="-10%" width="130%" height="130%">
      <feDropShadow dx="0" dy="4" stdDeviation="8" flood-color="#000" flood-opacity="0.5"/>
    </filter>

    <!-- Maker gradient (teal) -->
    <linearGradient id="makerGrad" x1="0%" y1="0%" x2="0%" y2="100%">
      <stop offset="0%" style="stop-color:#4fa89b"/>
      <stop offset="100%" style="stop-color:#6acebb"/>
    </linearGradient>

    <!-- Clip paths for logos -->
    <clipPath id="logoClip">
      <circle cx="0" cy="0" r="38"/>
    </clipPath>
  </defs>

  <!-- Background -->
  <rect width="1300" height="510" fill="url(#bgGradient)"/>

  <!-- ==================== TITLE SECTION ==================== -->
  <text x="650" y="55" font-family="'Cormorant Garamond', Georgia, serif" font-size="32" font-weight="600" fill="#E8DCC4" text-anchor="middle" letter-spacing="0.05em">The Governance Track Record</text>
  <text x="650" y="81" font-family="'Inter', Arial, sans-serif" font-size="13" font-weight="400" fill="rgba(232,220,196,0.5)" text-anchor="middle" letter-spacing="0.08em">RECURRING PATTERNS ACROSS MAJOR PROTOCOLS</text>

  <!-- ==================== LAYOUT ====================
    Left column (pattern names): x=60..430
    Protocol columns centered at: x=620, x=860, x=1100
    Cards: 190px wide, so at x=525/765/1005
  -->

  <!-- ===== PROTOCOL LOGOS (no boxes, just circle + name) ===== -->

  <!-- Maker -->
  <g transform="translate(620, 150)">
    <circle cx="0" cy="0" r="38" fill="url(#makerGrad)"/>
    <g clip-path="url(#logoClip)">
      <g transform="scale(0.178) translate(-300, -302)">
        <path fill="#F5F0E6" d="M152.34,390V248.8l107.08,80.59V390h27.33V323.7A15.94,15.94,0,0,0,280.4,311L150.54,213.23A16,16,0,0,0,125,226V390Zm296.14,0V248.8L341.4,329.39V390H314.07V323.7A15.94,15.94,0,0,1,320.42,311l129.86-97.73A16,16,0,0,1,475.82,226V390Z"/>
      </g>
    </g>
  </g>

  <!-- Aave -->
  <g transform="translate(860, 150)">
    <circle cx="0" cy="0" r="38" fill="#9391F7"/>
    <g clip-path="url(#logoClip)">
      <g transform="scale(0.48) translate(-95, -62)">
        <path fill="#F5F0E6" d="M77.5,99.9c8.2-1.3,13.7-9,12.4-17.2c-1.3-8.2-9-13.7-17.2-12.4c-8.2,1.3-13.7,9-12.4,17.2C61.7,95.7,69.4,101.2,77.5,99.9L77.5,99.9z M116.7,99.9c8.2-1.3,13.7-9,12.4-17.2c-1.3-8.2-9-13.7-17.2-12.4c-8.2,1.3-13.7,9-12.4,17.2C100.8,95.7,108.5,101.2,116.7,99.9L116.7,99.9z"/>
        <path fill="#F5F0E6" d="M94.7,23.3C54,23.3,21,56.9,21,98.3h18.8c0-31.1,24.4-56.2,54.8-56.2c30.5,0,54.8,25.2,54.8,56.2h18.8C168.4,56.9,135.4,23.3,94.7,23.3L94.7,23.3L94.7,23.3z"/>
      </g>
    </g>
  </g>

  <!-- Uniswap -->
  <g transform="translate(1100, 150)">
    <circle cx="0" cy="0" r="38" fill="#FF007A"/>
    <g clip-path="url(#logoClip)">
      <g transform="scale(0.38) translate(-84, -97)">
        <path fill="#F5F0E6" d="M66,44.1c-2.1-0.3-2.2-0.4-1.2-0.5c1.9-0.3,6.3,0.1,9.4,0.8c7.2,1.7,13.7,6.1,20.6,13.8l1.8,2.1l2.6-0.4c11.1-1.8,22.5-0.4,32,4c2.6,1.2,6.7,3.6,7.2,4.2c0.2,0.2,0.5,1.5,0.7,2.8c0.7,4.7,0.4,8.2-1.1,10.9c-0.8,1.5-0.8,1.9-0.3,3.2c0.4,1,1.6,1.7,2.7,1.7c2.4,0,4.9-3.8,6.1-9.1l0.5-2.1l0.9,1c5.1,5.7,9.1,13.6,9.7,19.2l0.2,1.5l-0.9-1.3c-1.5-2.3-2.9-3.8-4.8-5.1c-3.4-2.3-7-3-16.5-3.5c-8.6-0.5-13.5-1.2-18.3-2.8c-8.2-2.7-12.4-6.2-22.1-19.1c-4.3-5.7-7-8.8-9.7-11.4C79.6,48.3,73.7,45.3,66,44.1z"/>
        <path fill="#F5F0E6" d="M140.5,56.8c0.2-3.8,0.7-6.3,1.8-8.6c0.4-0.9,0.8-1.7,0.9-1.7c0.1,0-0.1,0.7-0.4,1.5c-0.8,2.2-0.9,5.3-0.4,8.8c0.7,4.5,1,5.1,5.8,10c2.2,2.3,4.8,5.2,5.8,6.4l1.7,2.2l-1.7-1.6c-2.1-2-6.9-5.8-8-6.3c-0.7-0.4-0.8-0.4-1.3,0.1c-0.4,0.4-0.5,1-0.5,3.9c-0.1,4.5-0.7,7.3-2.2,10.2c-0.8,1.5-0.9,1.2-0.2-0.5c0.5-1.3,0.6-1.9,0.6-6.2c0-8.7-1-10.8-7.1-14.3c-1.5-0.9-4.1-2.2-5.6-2.9c-1.6-0.7-2.8-1.3-2.7-1.3c0.2-0.2,6.1,1.5,8.4,2.5c3.5,1.4,4.1,1.5,4.5,1.4C140.2,60.1,140.4,59.3,140.5,56.8z"/>
        <path fill="#F5F0E6" d="M70.1,71.7c-4.2-5.8-6.9-14.8-6.3-21.5l0.2-2.1l1,0.2c1.8,0.3,4.9,1.5,6.4,2.4c4,2.4,5.8,5.7,7.5,13.9c0.5,2.4,1.2,5.2,1.5,6.1c0.5,1.5,2.4,5,4,7.2c1.1,1.6,0.4,2.4-2.1,2.2C78.5,79.7,73.4,76.2,70.1,71.7z"/>
        <path fill="#F5F0E6" d="M135.4,115.2c-19.8-8-26.8-14.9-26.8-26.6c0-1.7,0.1-3.1,0.1-3.1c0.1,0,0.8,0.6,1.7,1.3c4,3.2,8.5,4.6,21,6.4c7.3,1.1,11.5,1.9,15.3,3.2c12.1,4,19.6,12.2,21.4,23.3c0.5,3.2,0.2,9.3-0.6,12.5c-0.7,2.5-2.7,7.1-3.2,7.2c-0.1,0-0.3-0.5-0.3-1.3c-0.2-4.2-2.3-8.2-5.8-11.3C154,123.2,148.6,120.5,135.4,115.2z"/>
        <path fill="#F5F0E6" d="M121.4,118.5c-0.2-1.5-0.7-3.4-1-4.2l-0.5-1.5l0.9,1.1c1.3,1.5,2.3,3.3,3.2,5.8c0.7,1.9,0.7,2.5,0.7,5.6c0,3-0.1,3.7-0.7,5.4c-1,2.7-2.2,4.6-4.2,6.7c-3.6,3.7-8.3,5.7-15,6.6c-1.2,0.1-4.6,0.4-7.6,0.6c-7.5,0.4-12.5,1.2-17,2.8c-0.6,0.2-1.2,0.4-1.3,0.3c-0.2-0.2,2.9-2,5.4-3.2c3.5-1.7,7.1-2.6,15-4c3.9-0.6,7.9-1.4,8.9-1.8C118.1,135.6,123,127.9,121.4,118.5z"/>
        <path fill="#F5F0E6" d="M130.5,134.6c-2.6-5.7-3.2-11.1-1.8-16.2c0.2-0.5,0.4-1,0.6-1c0.2,0,0.8,0.3,1.4,0.7c1.2,0.8,3.7,2.2,10.1,5.7c8.1,4.4,12.7,7.8,15.9,11.7c2.8,3.4,4.5,7.3,5.3,12.1c0.5,2.7,0.2,9.2-0.5,11.9c-2.2,8.5-7.2,15.3-14.5,19.2c-1.1,0.6-2,1-2.1,1c-0.1,0,0.3-1,0.9-2.2c2.4-5.1,2.7-10,0.9-15.5c-1.1-3.4-3.4-7.5-8-14.4C133.2,139.6,131.9,137.5,130.5,134.6z"/>
        <path fill="#F5F0E6" d="M56,165.2c7.4-6.2,16.5-10.6,24.9-12c3.6-0.6,9.6-0.4,12.9,0.5c5.3,1.4,10.1,4.4,12.6,8.1c2.4,3.6,3.5,6.7,4.6,13.6c0.4,2.7,0.9,5.5,1,6.1c0.8,3.6,2.4,6.4,4.4,7.9c3.1,2.3,8.5,2.4,13.8,0.4c0.9-0.3,1.7-0.6,1.7-0.5c0.2,0.2-2.5,2-4.3,2.9c-2.5,1.3-4.5,1.7-7.2,1.7c-4.8,0-8.9-2.5-12.2-7.5c-0.7-1-2.1-3.9-3.3-6.6c-3.5-8.1-5.3-10.5-9.4-13.2c-3.6-2.3-8.2-2.8-11.7-1.1c-4.6,2.2-5.8,8.1-2.6,11.7c1.3,1.5,3.7,2.7,5.7,3c3.7,0.5,6.9-2.4,6.9-6.1c0-2.4-0.9-3.8-3.3-4.9c-3.2-1.4-6.7,0.2-6.6,3.3c0,1.3,0.6,2.1,1.9,2.7c0.8,0.4,0.8,0.4,0.2,0.3c-2.9-0.6-3.6-4.2-1.3-6.5c2.8-2.8,8.7-1.6,10.7,2.3c0.8,1.6,0.9,4.8,0.2,6.8c-1.7,4.4-6.5,6.7-11.4,5.4c-3.3-0.9-4.7-1.8-8.7-5.9c-7-7.2-9.7-8.6-19.7-10.1l-1.9-0.3L56,165.2z"/>
        <path fill-rule="evenodd" clip-rule="evenodd" fill="#F5F0E6" d="M3.4,4.3c23.3,28.3,59.2,72.3,61,74.7c1.5,2,0.9,3.9-1.6,5.3c-1.4,0.8-4.3,1.6-5.7,1.6c-1.6,0-3.5-0.8-4.8-2.1c-0.9-0.9-4.8-6.6-13.6-20.3c-6.7-10.5-12.4-19.2-12.5-19.3C25.8,44,25.8,44,38,65.8C45.7,79.5,48.2,84.4,48.2,85c0,1.3-0.4,2-2,3.8c-2.7,3-3.9,6.4-4.8,13.5c-1,7.9-3.7,13.5-11.4,23c-4.5,5.6-5.2,6.6-6.3,8.9c-1.4,2.8-1.8,4.4-2,8c-0.2,3.8,0.2,6.2,1.3,9.8c1,3.2,2.1,5.3,4.8,9.4c2.3,3.6,3.7,6.3,3.7,7.3c0,0.8,0.2,0.8,3.8,0c8.6-2,15.7-5.4,19.6-9.6c2.4-2.6,3-4,3-7.6c0-2.3-0.1-2.8-0.7-4.2c-1-2.2-2.9-4-7-6.8c-5.4-3.7-7.7-6.7-8.3-10.7c-0.5-3.4,0.1-5.7,3.1-12c3.1-6.5,3.9-9.2,4.4-15.8c0.3-4.2,0.8-5.9,2-7.2c1.3-1.4,2.4-1.9,5.5-2.3c5.1-0.7,8.4-2,11-4.5c2.3-2.1,3.3-4.2,3.4-7.3l0.1-2.3L70.1,77C65.4,71.6,0.3,0,0,0C-0.1,0,1.5,1.9,3.4,4.3z M34.1,146.5c1.1-1.9,0.5-4.3-1.3-5.5c-1.7-1.1-4.3-0.6-4.3,0.9c0,0.4,0.2,0.8,0.8,1c0.9,0.5,1,1,0.3,2.1c-0.7,1.1-0.7,2.1,0.2,2.8C31.2,148.9,33.1,148.3,34.1,146.5z"/>
        <path fill-rule="evenodd" clip-rule="evenodd" fill="#F5F0E6" d="M74.6,93.9c-2.4,0.7-4.7,3.3-5.4,5.9c-0.4,1.6-0.2,4.5,0.5,5.4c1.1,1.4,2.1,1.8,4.9,1.8c5.5,0,10.2-2.4,10.7-5.3c0.5-2.4-1.6-5.7-4.5-7.2C79.3,93.7,76.2,93.4,74.6,93.9z M81,98.9c0.8-1.2,0.5-2.5-1-3.4c-2.7-1.7-6.8-0.3-6.8,2.3c0,1.3,2.1,2.7,4.1,2.7C78.6,100.5,80.4,99.7,81,98.9z"/>
      </g>
    </g>
  </g>

  <!-- ==================== FAILURE PATTERN TABLE ==================== -->

  <!-- Subtle table background -->
  <rect x="60" y="205" width="1180" height="280" rx="16" fill="rgba(13,31,60,0.4)" stroke="rgba(232,220,196,0.06)" stroke-width="1"/>

  <!-- Column headers -->
  <text x="250" y="233" font-family="'Inter', Arial, sans-serif" font-size="13" font-weight="600" fill="rgba(232,220,196,0.35)" letter-spacing="0.08em">FAILURE PATTERN</text>
  <text x="620" y="233" font-family="'Inter', Arial, sans-serif" font-size="13" font-weight="500" fill="rgba(232,220,196,0.4)" text-anchor="middle" letter-spacing="0.05em">MAKER</text>
  <text x="860" y="233" font-family="'Inter', Arial, sans-serif" font-size="13" font-weight="500" fill="rgba(232,220,196,0.4)" text-anchor="middle" letter-spacing="0.05em">AAVE</text>
  <text x="1100" y="233" font-family="'Inter', Arial, sans-serif" font-size="13" font-weight="500" fill="rgba(232,220,196,0.4)" text-anchor="middle" letter-spacing="0.05em">UNISWAP</text>

  <!-- Header separator -->
  <line x1="80" y1="247" x2="1220" y2="247" stroke="rgba(232,220,196,0.1)" stroke-width="0.5"/>

  <!-- Row 1: Undisclosed conflicts of interest — Maker ✓, Aave ✓, Uniswap ✓ -->
  <text x="100" y="277" font-family="'Inter', Arial, sans-serif" font-size="16" font-weight="500" fill="#8BA4B8">Undisclosed conflicts of interest</text>
  <text x="620" y="277" font-family="'Inter', Arial, sans-serif" font-size="20" font-weight="500" fill="#E8DCC4" fill-opacity="0.5" text-anchor="middle">&#x2713;</text>
  <text x="860" y="277" font-family="'Inter', Arial, sans-serif" font-size="20" font-weight="500" fill="#E8DCC4" fill-opacity="0.5" text-anchor="middle">&#x2713;</text>
  <text x="1100" y="277" font-family="'Inter', Arial, sans-serif" font-size="20" font-weight="500" fill="#E8DCC4" fill-opacity="0.5" text-anchor="middle">&#x2713;</text>
  <line x1="80" y1="293" x2="1220" y2="293" stroke="rgba(232,220,196,0.05)" stroke-width="0.5"/>

  <!-- Row 2: Undefined governance scope — Maker ✓, Aave ✓, Uniswap — -->
  <text x="100" y="323" font-family="'Inter', Arial, sans-serif" font-size="16" font-weight="500" fill="#8BA4B8">Undefined governance scope</text>
  <text x="620" y="323" font-family="'Inter', Arial, sans-serif" font-size="20" font-weight="500" fill="#E8DCC4" fill-opacity="0.5" text-anchor="middle">&#x2713;</text>
  <text x="860" y="323" font-family="'Inter', Arial, sans-serif" font-size="20" font-weight="500" fill="#E8DCC4" fill-opacity="0.5" text-anchor="middle">&#x2713;</text>
  <text x="1100" y="323" font-family="'Inter', Arial, sans-serif" font-size="18" font-weight="400" fill="#3A5068" text-anchor="middle">&#x2014;</text>
  <line x1="80" y1="339" x2="1220" y2="339" stroke="rgba(232,220,196,0.05)" stroke-width="0.5"/>

  <!-- Row 3: Governance capture — Maker ✓, Aave ✓, Uniswap ✓ -->
  <text x="100" y="369" font-family="'Inter', Arial, sans-serif" font-size="16" font-weight="500" fill="#8BA4B8">Governance capture</text>
  <text x="620" y="369" font-family="'Inter', Arial, sans-serif" font-size="20" font-weight="500" fill="#E8DCC4" fill-opacity="0.5" text-anchor="middle">&#x2713;</text>
  <text x="860" y="369" font-family="'Inter', Arial, sans-serif" font-size="20" font-weight="500" fill="#E8DCC4" fill-opacity="0.5" text-anchor="middle">&#x2713;</text>
  <text x="1100" y="369" font-family="'Inter', Arial, sans-serif" font-size="20" font-weight="500" fill="#E8DCC4" fill-opacity="0.5" text-anchor="middle">&#x2713;</text>
  <line x1="80" y1="385" x2="1220" y2="385" stroke="rgba(232,220,196,0.05)" stroke-width="0.5"/>

  <!-- Row 4: Privatized revenue streams — Maker —, Aave ✓, Uniswap ✓ -->
  <text x="100" y="415" font-family="'Inter', Arial, sans-serif" font-size="16" font-weight="500" fill="#8BA4B8">Privatized revenue streams</text>
  <text x="620" y="415" font-family="'Inter', Arial, sans-serif" font-size="18" font-weight="400" fill="#3A5068" text-anchor="middle">&#x2014;</text>
  <text x="860" y="415" font-family="'Inter', Arial, sans-serif" font-size="20" font-weight="500" fill="#E8DCC4" fill-opacity="0.5" text-anchor="middle">&#x2713;</text>
  <text x="1100" y="415" font-family="'Inter', Arial, sans-serif" font-size="20" font-weight="500" fill="#E8DCC4" fill-opacity="0.5" text-anchor="middle">&#x2713;</text>
  <line x1="80" y1="431" x2="1220" y2="431" stroke="rgba(232,220,196,0.05)" stroke-width="0.5"/>

  <!-- Row 5: Excessive provider compensation — Maker ✓, Aave ✓, Uniswap ✓ -->
  <text x="100" y="461" font-family="'Inter', Arial, sans-serif" font-size="16" font-weight="500" fill="#8BA4B8">Excessive provider compensation</text>
  <text x="620" y="461" font-family="'Inter', Arial, sans-serif" font-size="20" font-weight="500" fill="#E8DCC4" fill-opacity="0.5" text-anchor="middle">&#x2713;</text>
  <text x="860" y="461" font-family="'Inter', Arial, sans-serif" font-size="20" font-weight="500" fill="#E8DCC4" fill-opacity="0.5" text-anchor="middle">&#x2713;</text>
  <text x="1100" y="461" font-family="'Inter', Arial, sans-serif" font-size="20" font-weight="500" fill="#E8DCC4" fill-opacity="0.5" text-anchor="middle">&#x2713;</text>


</svg>